<svg width="24" height="25" viewBox="0 0 24 25" fill="none" xmlns="http://www.w3.org/2000/svg">
<path d="M12 10.25V14" stroke="#F94646" stroke-width="1.5" stroke-linecap="round" stroke-linejoin="round"/>
<path d="M10.7058 4.24999L2.45585 18.5C2.32442 18.7276 2.25512 18.9858 2.25488 19.2487C2.25465 19.5115 2.3235 19.7698 2.45452 19.9977C2.58555 20.2256 2.77416 20.415 3.00145 20.5471C3.22875 20.6791 3.48674 20.7491 3.7496 20.75H20.2496C20.5125 20.7491 20.7705 20.6791 20.9977 20.5471C21.225 20.415 21.4136 20.2256 21.5447 19.9977C21.6757 19.7698 21.7445 19.5115 21.7443 19.2487C21.7441 18.9858 21.6748 18.7276 21.5434 18.5L13.2934 4.24999C13.1629 4.02206 12.9746 3.83263 12.7474 3.70088C12.5202 3.56914 12.2622 3.49976 11.9996 3.49976C11.737 3.49976 11.479 3.56914 11.2518 3.70088C11.0246 3.83263 10.8363 4.02206 10.7058 4.24999V4.24999Z" stroke="#F94646" stroke-width="1.5" stroke-linecap="round" stroke-linejoin="round"/>
<path d="M12 18.5C12.6213 18.5 13.125 17.9963 13.125 17.375C13.125 16.7537 12.6213 16.25 12 16.25C11.3787 16.25 10.875 16.7537 10.875 17.375C10.875 17.9963 11.3787 18.5 12 18.5Z" fill="#F94646"/>
</svg>
