<svg width="24" height="24" viewBox="0 0 24 24" fill="none" xmlns="http://www.w3.org/2000/svg">
  <g clip-path="url(#a)">
    <path d="M23.973.027H.027v23.946h23.946V.027Z" fill="#000" stroke="#000" stroke-miterlimit="10"/>
    <path d="M19.065 7.534c-.24-.194-.528-.46-1.051-.525-.49-.067-.99.27-1.329.492-.338.223-.977.877-1.24 1.076-.264.199-.94.383-2.028 1.051-1.088.668-5.357 3.473-5.357 3.473l1.111.014-4.953 2.61h.495L4 16.28s.63.17 1.157-.17v.156s5.899-2.379 7.037-1.763l-.694.209c.06 0 1.18.076 1.18.076.028.237.106.465.229.668.123.204.289.376.484.507.676.454.69.705.69.705s-.351.147-.351.332c0 0 .518-.161 1-.147.305.012.608.061.902.147 0 0-.037-.199-.504-.332-.468-.132-.93-.653-1.158-.938a1.343 1.343 0 0 1-.19-1.298c.162-.43.727-.668 1.894-1.284 1.375-.73 1.69-1.27 1.884-1.69.195-.423.482-1.261.644-1.654.203-.507.453-.777.662-.938.208-.161 1.134-.517 1.134-.517s-.708-.63-.935-.815Z" fill="#fff"/>
  </g>
  <defs>
    <clipPath id="a">
      <rect width="24" height="24" rx="12" fill="#fff"/>
    </clipPath>
  </defs>
</svg>
