<svg width="24" height="24" viewBox="0 0 24 24" fill="none" xmlns="http://www.w3.org/2000/svg">
<circle cx="12" cy="12" r="12" fill="#7AEAD7"/>
<path d="M14.0391 15.1878C13.9953 15.1987 14.0062 15.2425 14.05 15.2315C14.0062 15.2425 14.0062 15.2972 14.05 15.2862H14.061C14.05 15.2972 14.061 15.3191 14.0829 15.3191C14.0829 15.3409 14.0938 15.3628 14.0938 15.3628C14.1157 15.3628 14.1266 15.3519 14.1266 15.3409C14.1376 15.33 14.1595 15.33 14.1704 15.3409C14.1923 15.3409 14.2142 15.3409 14.2142 15.3738C14.2471 15.3738 14.258 15.3957 14.269 15.4066C14.3237 15.4504 14.3347 15.516 14.3565 15.5816L14.3456 15.5926C14.3456 15.5926 14.3675 15.6364 14.4113 15.6692C14.4441 15.7786 14.5098 15.8333 14.5974 15.888C14.6193 15.9208 14.674 15.9646 14.7178 16.0083L14.7069 15.9755V15.9427C14.7397 15.9646 14.7726 15.9865 14.8054 16.0193C14.8164 16.0193 14.8273 16.0083 14.8273 16.0083C14.8492 16.0302 14.8601 16.063 14.882 16.074C14.893 16.074 14.9039 16.074 14.9149 16.063C14.9915 16.1506 15.0134 16.2709 15.0791 16.3475C15.1338 16.4022 15.2652 16.4788 15.32 16.5663C15.3856 16.6539 15.5061 16.6867 15.5718 16.7742C15.5936 16.7414 15.6046 16.7851 15.6265 16.7742C15.6265 16.7851 15.6265 16.807 15.6374 16.807L15.725 16.8399C15.7031 16.8289 15.6922 16.807 15.6812 16.7961C15.8454 16.9055 15.9987 17.0368 16.1629 17.1571C16.5899 17.5182 17.0059 17.9339 17.4329 18.3059C17.4219 18.2731 17.4219 18.2512 17.4438 18.2403C17.5095 18.295 17.608 18.4153 17.6737 18.4263C17.4986 18.2403 17.3015 18.0652 17.2358 17.8464C17.3015 17.8574 17.3343 17.8574 17.3891 17.9011C17.3672 17.9121 17.3562 17.923 17.3562 17.9449C17.4 17.9121 17.411 17.9449 17.4219 17.9558C17.7175 18.2841 18.0241 18.5904 18.3415 18.8858C18.1664 18.6123 17.8927 18.4482 17.7504 18.1856C18.0131 18.4153 18.2759 18.6451 18.5167 18.9186L18.8013 19.214C18.8013 19.1812 18.8123 19.1593 18.8123 19.1374L18.5167 18.8202C18.4182 18.7217 18.2977 18.6123 18.2321 18.5138C18.1445 18.3716 18.1007 18.2294 17.9584 18.1418C17.9584 18.1746 18.0022 18.2184 17.9803 18.2403C17.7832 18.0543 17.5424 17.8464 17.411 17.6167C17.4329 17.5948 17.4657 17.6714 17.4657 17.6276C17.4 17.5838 17.3453 17.4963 17.3015 17.3978C17.2687 17.3978 17.3015 17.4416 17.2577 17.4197C17.1373 17.2556 16.9183 17.1681 16.8307 16.9602C16.8636 16.9711 16.8964 16.9821 16.9402 16.9821C16.995 16.993 16.6227 16.8508 16.6775 16.6867C16.7322 16.5554 16.7541 16.7851 16.9512 16.8289C17.0278 16.8399 17.0169 16.7742 17.0497 16.7414C17.3562 17.0368 17.608 17.2775 17.7175 17.365V17.3322C17.6847 17.2775 17.6409 17.2666 17.6409 17.2118L17.6518 17.179C17.8489 17.4088 18.2321 17.9558 18.5495 17.9887C18.5167 17.9558 18.4948 17.9339 18.4948 17.8902C18.5058 17.8355 18.5386 17.8464 18.5933 17.8464C18.5386 17.8136 18.5058 17.8027 18.451 17.8027V17.8464C18.3853 17.8355 18.3087 17.8245 18.2759 17.748C18.3087 17.748 18.3634 17.7479 18.3744 17.7042C18.2868 17.7042 18.2321 17.6932 18.1773 17.6057C18.2102 17.5838 18.243 17.5838 18.2649 17.5838C18.2649 17.551 18.2649 17.551 18.243 17.5182C18.2102 17.4963 18.1335 17.3978 18.1116 17.3978C18.0788 17.365 18.035 17.3431 18.035 17.3431L17.9912 17.3541L17.9693 17.2447C17.9146 17.2666 17.9474 17.3322 17.8927 17.3541L17.6956 17.1353V17.0477C17.6956 16.993 17.7504 17.0149 17.7613 17.0149C17.7504 17.1024 17.6628 17.0806 17.827 17.179L17.8379 17.1134C17.8379 17.004 17.7066 16.993 17.7066 16.9055H17.6956C17.6956 16.8946 17.7066 16.8727 17.7066 16.8617C17.6847 16.8727 17.6737 16.8508 17.6518 16.8399C17.6409 16.8399 17.6409 16.8399 17.6299 16.8289H17.619V16.7851C17.5205 16.7851 17.4876 16.6867 17.4438 16.632C17.3453 16.4788 17.2249 16.3256 17.0825 16.2053C17.0716 16.1615 17.0169 16.0959 16.9074 15.9646C16.8526 15.9099 17.2906 16.2381 17.2687 16.1943C17.1811 16.0521 17.8817 16.2053 17.8817 16.2053L17.6847 16.0521C17.7285 16.0412 17.6737 15.8661 17.6737 15.8442V15.8114L17.619 15.8552V15.8223L17.5424 15.8771H17.5314C17.5314 15.8114 17.5533 15.7676 17.5971 15.7348H17.5861C17.5424 15.7348 17.5314 15.6801 17.5752 15.6801C17.5971 15.6801 17.608 15.7129 17.5971 15.7239L17.6628 15.6911L17.6737 15.7567H17.7175C17.7175 15.8005 17.7394 15.8333 17.7723 15.8989H17.7285L17.7613 16.0302C17.816 16.0302 17.816 15.8989 17.8051 15.8442C17.8051 15.7567 17.7723 15.7239 17.7613 15.6364H17.7941V15.6145H17.7504L17.619 15.5598L17.5752 15.5926C17.5752 15.5379 17.5314 15.5379 17.5205 15.5379C17.4438 15.5379 17.4329 15.5379 17.4329 15.5926L17.4438 15.6254L17.4329 15.6473C17.4329 15.6473 17.3781 15.6364 17.3453 15.6035L17.3124 15.5707L17.3453 15.516C17.3453 15.5488 17.3781 15.5488 17.4 15.5488L17.3891 15.4832H17.4219C17.4329 15.4722 17.4329 15.3957 17.4329 15.3628C17.4329 15.3628 17.4219 15.3191 17.3891 15.3191H17.3672L17.3562 15.2315C17.3562 15.2315 17.411 15.2862 17.4219 15.2753L17.4986 15.2425C17.4219 15.1768 17.3562 15.1987 17.2687 15.1987C17.2687 15.144 17.2906 15.144 17.2796 15.1002C17.2468 15.0455 17.2139 15.0237 17.1701 15.0237C17.1701 15.0346 17.192 15.1112 17.2358 15.1112C17.1811 15.155 17.1482 15.1987 17.1263 15.2425L17.0935 15.2097L17.0388 15.2425L17.0059 15.2534H16.9731C17.0935 15.1987 17.1482 15.155 17.1373 15.0237C17.0825 15.0237 16.9621 14.9908 16.9402 14.9799L16.9293 14.8924L16.8088 14.9033V14.8267L16.8745 14.8158V14.8048C16.8417 14.772 16.787 14.7611 16.787 14.7611L16.6665 14.8158C16.6665 14.8158 16.6556 14.8158 16.6337 14.8267C16.6884 14.8048 16.6556 14.7283 16.7103 14.7283V14.6954C16.7103 14.6626 16.6994 14.6298 16.6884 14.6079C16.7103 14.597 16.6994 14.5532 16.6884 14.5532C16.6665 14.5532 16.6665 14.5641 16.6665 14.5751C16.5899 14.5204 16.4695 14.5532 16.4585 14.4219L16.4038 14.4657C16.3162 14.4657 16.2396 14.3453 16.2286 14.2906L16.1848 14.3016C16.1848 14.2469 16.2177 14.1703 16.1301 14.1812C16.1301 14.1593 16.1191 14.1265 16.1739 14.1265C16.1739 14.1156 16.152 14.0718 16.1191 14.0718L16.0644 14.1265C16.0863 14.0718 16.0316 14.0718 16.0316 14.028H16.0863V13.9843H16.0753C16.0753 13.9405 16.1082 13.9186 16.0753 13.853C15.9987 13.8202 15.9549 13.853 15.933 13.8967L15.9111 13.9077L15.8454 13.8639H15.9111V13.8202C15.8783 13.8092 15.8126 13.7326 15.8126 13.7326L15.7579 13.7873L15.6922 13.7326L15.7469 13.6998L15.725 13.6342C15.7579 13.6123 15.7798 13.5904 15.7688 13.5576C15.7579 13.4919 15.6046 13.5029 15.6265 13.6123C15.5718 13.5904 15.3637 13.4044 15.3418 13.3825C15.309 13.3497 15.2324 13.2622 15.2433 13.2294C15.2543 13.2294 15.2652 13.2403 15.2762 13.2403H15.2871C15.2871 13.2512 15.309 13.2622 15.32 13.2841L15.3309 13.295L15.3747 13.3497C15.3637 13.3606 15.3637 13.3825 15.3747 13.4044C15.3856 13.4153 15.4185 13.4153 15.4404 13.4044C15.4732 13.4372 15.4951 13.4482 15.4951 13.4372C15.4951 13.4263 15.4842 13.4153 15.4623 13.3935C15.4732 13.3935 15.4842 13.3825 15.4951 13.3716C15.4842 13.3059 15.4294 13.295 15.3966 13.3278L15.3747 13.3059C15.4075 13.295 15.4294 13.2294 15.3966 13.2075C15.3637 13.1965 15.3309 13.2184 15.32 13.2512C15.309 13.2403 15.2981 13.2403 15.2981 13.2294C15.3528 13.2184 15.3528 13.1965 15.4185 13.1746C15.4404 13.1528 15.4513 13.1309 15.4623 13.109C15.4623 13.1418 15.4842 13.1418 15.4842 13.109C15.4842 13.0981 15.4732 13.0871 15.4732 13.0871V13.0652V13.0434C15.4732 12.923 15.3309 12.8464 15.1886 12.8574C15.1776 12.8902 15.1886 12.923 15.1886 12.9668H15.1776C15.1667 12.9449 15.1448 12.9339 15.1338 12.923L15.1886 12.8464C15.2324 12.8464 15.2433 12.8464 15.2762 12.8027H15.2324L15.1995 12.8245C15.2214 12.7808 15.2324 12.737 15.2214 12.6823C15.1229 12.6604 14.9477 12.7589 14.9039 12.8792L14.7288 12.7261C14.7507 12.7261 14.7726 12.7151 14.7835 12.6932C14.8054 12.6932 14.8054 12.6823 14.8054 12.6714C14.8164 12.6495 14.8164 12.6276 14.8164 12.6057H14.9587C14.9477 12.5182 14.8054 12.5182 14.8383 12.4635L14.6631 12.3213C14.685 12.2884 14.674 12.2447 14.6302 12.2009C14.5974 12.2009 14.5755 12.2118 14.5536 12.2228C14.3675 12.0587 14.1485 11.8836 14.1266 11.9055L13.853 11.6429L13.7982 11.6539C13.7216 11.6539 13.6559 11.3366 13.5136 11.435L13.4479 11.3694C13.7654 10.9427 14.0829 10.516 14.3784 10.0893C14.4003 10.0893 14.4332 10.0784 14.466 10.0455C14.4551 9.99084 14.477 9.94707 14.466 9.89237C14.5208 9.81578 14.5646 9.75014 14.5755 9.70637L14.4222 9.90331C14.3784 9.90331 14.3456 9.85955 14.2909 9.90331C14.258 9.93613 14.258 10.0127 14.3018 10.0565C14.1157 10.2644 13.9405 10.4722 13.7325 10.6254C13.7435 10.5488 13.7325 10.516 13.8092 10.4175C13.8201 10.4285 13.842 10.4285 13.8639 10.4175C13.8201 10.3957 13.8639 10.3628 13.8858 10.3409L14.4113 9.68449C14.4551 9.70637 14.4989 9.70637 14.5208 9.70637C14.5536 9.65167 14.5427 9.59696 14.5208 9.54226L14.674 9.35626C14.674 9.41097 14.7178 9.46567 14.7616 9.4985C14.7288 9.53132 14.685 9.56414 14.674 9.59696C14.7178 9.5532 14.7616 9.52038 14.7835 9.5532C14.7945 9.59696 14.7288 9.65167 14.7069 9.69543C14.7835 9.62979 14.8492 9.5532 14.9039 9.48756C14.9258 9.46567 14.9477 9.44379 14.9587 9.41097C15.0682 9.26874 15.1557 9.13745 15.2543 8.99521C15.09 9.1265 15.0463 9.23591 14.9587 9.35626C14.9477 9.32344 14.9258 9.29062 14.893 9.27968C15.0463 9.14839 15.1886 8.99521 15.2543 8.85298L15.1886 8.91863C15.1886 8.86392 15.1338 8.80922 15.0791 8.82016L15.2105 8.63416C14.9149 8.91863 14.7178 9.23591 14.477 9.50944C14.466 9.4985 14.4441 9.48756 14.4332 9.48756C14.5646 9.29062 14.7178 9.09368 14.8601 8.89675C14.882 8.89675 14.893 8.8858 14.9039 8.86392V8.85298L15.2652 8.39346L15.528 8.05429C15.5499 8.09806 15.6155 8.11994 15.6374 8.04335C15.6374 8.03241 15.6046 8.01053 15.5827 7.99959L15.6046 7.96677V8.01053C15.6593 7.94489 15.7798 7.85736 15.8017 7.76983L15.6155 7.95583C15.6922 7.85736 15.7688 7.75889 15.8564 7.67136C15.8564 7.6823 15.8564 7.70419 15.8673 7.70419C15.9002 7.70419 15.9111 7.66042 15.8783 7.64948C15.9221 7.59478 15.9659 7.55101 16.0097 7.51819C16.1848 7.17902 16.5023 6.86173 16.8088 6.50068C17.0716 6.20528 17.3124 5.84423 17.5752 5.516L18.1664 4.77202C18.2211 4.70637 18.3963 4.4985 18.3196 4.58602C17.2249 5.86611 16.141 7.18996 15.1229 8.45911C15.1229 8.45911 15.1119 8.47005 15.1119 8.48099C15.0572 8.44817 15.0244 8.44817 14.9915 8.49193C14.9915 8.53569 15.0134 8.55758 15.0463 8.55758L14.9477 8.68887C14.9368 8.67793 14.9149 8.67793 14.9039 8.68887C14.9149 8.69981 14.9149 8.71075 14.9149 8.72169L14.8711 8.78734C14.8492 8.7764 14.8273 8.7764 14.8054 8.7764C14.7726 8.80922 14.7835 8.85298 14.8054 8.87486L14.674 9.0171C14.5536 9.13744 14.4332 9.23591 14.3347 9.33438C14.3675 9.27968 14.3894 9.21403 14.4003 9.13745C14.4441 8.8311 14.6521 8.62322 14.8711 8.42629C14.9258 8.38252 15.0025 8.32782 15.0025 8.22935C14.9806 8.21841 14.9806 8.17464 15.0134 8.17464C15.0353 8.17464 15.0463 8.17464 15.0463 8.19653C15.0572 8.17464 15.0682 8.1637 15.0572 8.14182H15.101V8.13088H15.09C15.09 8.13088 15.101 8.11994 15.1119 8.11994C15.1448 8.09806 15.1557 8.05429 15.1557 8.02147C15.1667 8.01053 15.1557 7.98865 15.1448 7.97771C15.1667 7.97771 15.2105 7.94488 15.2543 7.91206C15.2652 7.90112 15.2762 7.90112 15.2762 7.89018C15.309 7.94489 15.3747 7.96677 15.4294 7.91206C15.4294 7.87924 15.4075 7.84642 15.3637 7.81359C15.4294 7.74795 15.4842 7.69324 15.4842 7.66042C15.4732 7.60572 15.5389 7.63854 15.5827 7.55101H15.4732L15.528 7.49631C15.6155 7.46348 15.6046 7.40878 15.6593 7.36502L15.6265 7.34314V7.31031L15.6593 7.27749C15.7141 7.25561 15.7688 7.13526 15.7688 7.13526L15.8235 7.15714C15.8235 7.12432 15.8345 7.11338 15.8783 7.06961C15.8345 7.02585 15.8345 7.03679 15.8235 7.03679C15.8126 6.94926 15.9002 6.93832 15.9878 6.93832L15.9002 6.89456C15.9111 6.79609 15.9878 6.73044 16.0425 6.6648C16.0425 6.69762 16.0753 6.69762 16.0753 6.6648C16.0753 6.65386 16.0644 6.64292 16.0535 6.65386C16.0863 6.59915 16.1191 6.55539 16.1191 6.48974L15.9768 6.62103C15.9768 6.53351 16.0206 6.43504 16.0097 6.34751C15.9221 6.35845 15.528 6.87267 15.4951 6.97114H15.5499C15.5061 7.04773 15.309 7.15714 15.32 7.24467H15.3966C15.3418 7.27749 15.2543 7.29937 15.1995 7.31031V7.28843C15.1886 7.2009 15.2433 7.15714 15.309 7.15714C15.309 7.1462 15.2762 7.10243 15.2762 7.10243C15.309 7.10243 15.3309 7.08055 15.3637 7.03679C15.3747 7.04773 15.3747 7.05867 15.3856 7.05867C15.4075 7.05867 15.4075 7.01491 15.3966 6.99303C15.4513 6.92738 15.4951 6.85079 15.5389 6.81797L15.3747 6.82891C15.5389 6.80703 15.8783 6.53351 15.8673 6.35845C15.8673 6.30375 15.7469 6.31469 15.7469 6.22716L15.736 6.19434C15.736 6.17246 15.9002 5.95364 15.9002 5.93176L15.8454 5.95364V5.93176C15.8345 5.80046 16.2067 5.55976 16.1958 5.40659L15.933 5.71294H15.9221C15.9221 5.72388 15.9221 5.80046 15.8892 5.80046H15.8454L15.8345 5.7567C15.9221 5.71294 15.9111 5.62541 15.9111 5.53788V5.42847C15.8783 5.48318 15.7579 5.66917 15.7141 5.66917L15.3856 6.00834L15.3528 6.01928C15.3856 5.97552 15.5389 5.82235 15.5389 5.77858C15.5389 5.74576 15.517 5.73482 15.4842 5.73482C15.5389 5.68011 15.7798 5.39565 15.8235 5.34095L15.9002 5.25342C15.736 5.28624 15.5936 5.49412 15.5061 5.60353H15.4732L15.4951 5.55976L15.6046 5.40659H15.5827C15.5827 5.40659 15.528 5.50506 15.5061 5.47224L15.2324 5.7567L15.1667 5.76764C15.1995 5.74576 15.3309 5.61447 15.3309 5.57071C15.3309 5.52694 15.2981 5.516 15.2762 5.516C15.3309 5.4613 15.3747 5.38471 15.4075 5.33001C15.32 5.39565 15.2214 5.516 15.1995 5.65823L15.1667 5.66917C15.1448 5.66917 15.0791 5.71294 15.0572 5.7567V5.71294C14.9696 5.72388 14.9477 5.77858 14.9477 5.85517C14.9806 5.85517 14.9806 5.88799 14.9477 5.89893V5.85517C14.9368 5.85517 14.9368 5.89893 14.9477 5.89893V5.9427C14.8601 5.9427 14.893 5.95364 14.8492 5.89893L14.882 5.81141V5.77858H14.8383C14.8492 5.89893 14.685 6.22716 14.5098 6.2381C14.5208 6.25998 14.5536 6.25998 14.5755 6.25998C14.5646 6.30375 14.5317 6.31469 14.5098 6.32563C14.5208 6.33657 14.5208 6.38033 14.4989 6.38033C14.477 6.38033 14.466 6.35845 14.477 6.34751C14.4441 6.35845 14.4222 6.38033 14.4441 6.46786L14.4113 6.43504L14.3675 6.4788L14.3894 6.51162V6.53351C14.3347 6.58821 14.269 6.63197 14.2252 6.67574L14.258 6.70856C14.2252 6.79609 14.1704 6.75233 14.1157 6.75233V6.68668C14.061 6.68668 14.061 6.75233 13.9953 6.76327H13.9405L14.061 6.68668L13.9843 6.64292L14.1376 6.59915L14.1595 6.63197H14.1923L14.2142 6.56633V6.53351L14.0172 6.54445C14.0172 6.54445 13.9624 6.64292 13.9296 6.61009L13.7982 6.77421L13.7873 6.65386L13.6121 6.82891C13.623 6.79609 13.6778 6.74138 13.6778 6.70856V6.68668H13.6668C13.6668 6.59915 13.9186 6.50068 13.8311 6.41316L14.1595 5.97552C14.1157 5.9974 14.0719 6.01928 14.05 6.05211C14.0062 6.08493 13.9734 6.12869 13.9405 6.17246V6.1834L13.8967 6.22716C13.8639 6.28187 13.8201 6.32563 13.7763 6.36939V6.39127L13.7435 6.4241L13.7544 6.39127C13.7325 6.4241 13.7106 6.43504 13.6887 6.45692C13.7325 6.45692 13.7435 6.51162 13.6997 6.51162C13.6778 6.51162 13.6668 6.48974 13.6668 6.4788L13.5245 6.57727C13.5026 6.61009 13.4698 6.64292 13.4369 6.6648C13.4369 6.69762 13.3822 6.73044 13.3822 6.79609V6.81797L13.4369 6.75233H13.4479C13.4369 6.78515 13.415 6.83985 13.3822 6.85079H13.3494L13.3165 6.81797C13.3165 6.79609 13.3275 6.77421 13.3275 6.75233C13.3165 6.79609 13.2946 6.83985 13.2727 6.87267C13.2837 6.89456 13.3056 6.9055 13.3275 6.9055L13.2727 6.99303C13.218 7.03679 13.0209 7.27749 12.9771 7.32125L12.9662 7.28843C13.0647 7.1462 13.1742 7.04773 13.2727 6.93832C12.8676 7.01491 12.9114 7.56195 12.6268 7.74795L12.6815 7.73701L12.5392 7.89018C12.4954 7.85736 12.2327 8.15276 12.167 8.24029V8.22935C12.1889 8.14182 12.156 8.17464 12.2217 8.15276C12.2436 8.09806 12.2765 8.09806 12.2765 8.04335L12.2436 8.05429C11.8823 8.18559 12.0356 8.54664 11.7619 8.8311C11.6306 8.95145 11.2583 9.64073 11.1488 9.64073C10.6781 9.38909 10.1635 8.95145 9.93364 8.76545C9.83511 8.68887 9.29867 8.27311 8.99214 8.30594V8.22935L8.9374 8.25123L8.95929 8.17464L8.89361 8.14182V8.21841L8.86076 8.22935C8.83887 8.22935 8.70749 8.15276 8.67465 8.15276C8.70749 8.09806 8.6856 8.06524 8.65275 8.04335C8.67465 7.95583 8.69655 7.89018 8.61991 7.84642C8.48854 7.82454 8.47759 7.91206 8.36811 7.91206C8.35716 7.93394 8.35716 7.94489 8.34622 7.94489L8.12726 8.01053C8.14916 7.98865 8.1601 7.96677 8.1601 7.923C8.09442 7.85736 8.00684 7.97771 8.07252 8.03241C8.02873 8.04335 7.97399 8.05429 7.90831 8.05429C7.77693 8.06524 7.6784 8.14182 7.61272 8.22935C7.57987 8.24029 7.56892 8.26217 7.54703 8.27311C7.53608 8.24029 7.53608 8.21841 7.50324 8.20747C7.51419 8.13088 7.56892 8.09806 7.57987 8.02147C7.49229 8.03241 7.45945 8.03241 7.36092 8.01053C7.37186 7.97771 7.34997 7.95583 7.32807 7.94489C7.31713 8.05429 7.1748 8.13088 7.07627 8.04335C6.98869 8.06524 6.91206 8.09806 6.91206 8.17464C6.91206 8.32782 7.15291 8.28405 7.1967 8.17464C7.25144 8.27311 7.39376 8.37158 7.52513 8.30594C7.53608 8.30594 7.53608 8.31688 7.54703 8.32782L7.45945 8.50287V8.47005C7.38281 8.4044 7.28428 8.47005 7.25144 8.5357C7.28428 8.60134 7.36092 8.61228 7.4266 8.5904C7.38281 8.67793 7.34997 8.73263 7.29523 8.74357C7.20765 8.74357 7.85357 9.03898 7.76598 9.03898C7.76598 9.10462 7.26239 8.74357 7.26239 8.8311C7.28428 9.09368 6.60552 9.15933 6.85732 10.0127L6.92301 10.1878C7.01059 10.2315 7.36092 10.4722 7.36092 10.5598C7.37186 10.7348 6.74784 10.2534 6.74784 10.3738L7.34997 10.7786L7.31713 10.7895C7.37186 10.7786 7.51419 10.7786 7.55798 10.8552C7.54703 10.7786 7.57987 10.7567 7.63461 10.7567C7.60177 10.8114 7.65651 10.8114 7.66745 10.8552C7.7003 10.8552 7.75504 10.8552 7.75504 10.8442C8.39001 11.1615 9.01403 11.5554 9.60521 11.9383C9.17825 12.9777 6.59457 15.3519 6.89016 15.8442C6.85732 15.8552 6.83542 15.888 6.79163 15.8771C6.78068 15.9208 6.75879 15.9536 6.72595 15.9755C6.6931 16.074 6.75879 16.1506 6.84637 16.1396C6.84637 16.1725 6.86827 16.2053 6.86827 16.249C6.79163 16.249 6.79163 16.3913 6.87921 16.3475C6.89016 16.2272 7.07627 16.249 7.14196 16.1506C7.15291 16.1287 7.15291 16.0959 7.13101 16.0849C7.15291 16.0849 7.16386 16.074 7.18575 16.074C7.1748 16.1178 7.20765 16.1506 7.20765 16.2053C7.2186 16.2162 7.22954 16.2272 7.24049 16.2272C7.22954 16.2272 7.2186 16.2272 7.1967 16.2381C7.15291 16.3256 7.24049 16.3913 7.28428 16.3147C7.28428 16.2819 7.28428 16.26 7.26239 16.2381C7.30618 16.26 7.33902 16.2381 7.39376 16.2381V16.249C7.40471 16.249 7.41566 16.2381 7.4266 16.2381H7.4485C7.47039 16.2381 7.48134 16.26 7.50324 16.26C7.52513 16.26 7.54703 16.249 7.56892 16.249C7.56892 16.3256 7.57987 16.446 7.65651 16.4241C7.6784 16.4022 7.68935 16.3803 7.7003 16.3475C7.7003 16.3913 7.73314 16.3803 7.76598 16.3694C7.77693 16.3475 7.77693 16.3147 7.76598 16.2819C7.73314 16.3037 7.72219 16.3147 7.7003 16.3037V16.249C7.66745 16.249 7.65651 16.2381 7.63461 16.2272C7.65651 16.2162 7.6784 16.1943 7.7003 16.1725L7.71125 16.249C7.73314 16.2381 7.79883 16.2381 7.79883 16.1834H7.76598L7.75504 16.1615L7.78788 16.1287V16.0959L7.76598 16.074C7.77693 16.063 7.77693 16.063 7.77693 16.0521H7.78788C7.79883 16.0302 7.79883 16.0193 7.78788 16.0083C7.83167 16.0083 7.84262 16.0412 7.84262 16.074C7.84262 16.1615 7.82072 16.2381 7.82072 16.3037C7.85357 16.3037 7.88641 16.2709 7.90831 16.2381C7.94115 16.26 7.99589 16.26 7.99589 16.2928L7.96304 16.3475H7.99589L8.02873 16.3147C8.02873 16.3147 8.07252 16.26 8.12726 16.1725C8.13821 16.2053 8.14916 16.2272 8.17105 16.2272L8.13821 16.2819H8.12726C8.11631 16.2819 8.11631 16.2928 8.11631 16.3037C8.07252 16.3803 8.03968 16.435 8.03968 16.446L8.06157 16.5226C8.06157 16.5554 8.05063 16.5773 8.05063 16.6101C8.05063 16.621 8.10537 16.6757 8.13821 16.6648L8.19295 16.6539V16.7414L8.182 16.7304C8.17105 16.7523 8.182 16.7742 8.19295 16.7742C8.2039 16.7633 8.2039 16.7523 8.2039 16.7523C8.2039 16.7304 8.21484 16.6648 8.28053 16.6648C8.29148 16.6648 8.33527 16.6539 8.33527 16.6867L8.29148 16.7523L8.33527 16.7414C8.37906 16.7414 8.40096 16.7304 8.4338 16.7304L8.42285 16.6867V16.6539C8.47759 16.6648 8.52138 16.6867 8.55422 16.7195L8.63086 16.6757C8.67465 16.632 8.67465 16.5992 8.71844 16.5663C8.77318 16.5226 8.82792 16.4569 8.87171 16.3913H8.9155V16.3475C8.9374 16.3475 8.95929 16.3366 8.98119 16.3256C9.09067 16.1834 9.20014 16.074 9.35341 15.9974C9.36436 15.9865 9.36436 15.9536 9.37531 15.9318C9.53953 15.7786 9.649 15.6035 9.79132 15.4285C9.82417 15.3847 9.85701 15.3519 9.91175 15.33C9.9227 15.3191 9.9227 15.2753 9.93364 15.2644L10.076 15.144C9.97744 15.4285 9.45194 15.9755 9.34247 16.2053C9.21109 16.2272 8.94834 16.6539 8.97024 16.6648C9.1673 16.7742 9.36436 16.3147 9.43005 16.3037C9.47384 16.249 9.75848 15.8442 9.84606 15.7786C9.84606 15.8552 9.74753 15.9427 9.73658 16.0193C9.649 16.063 9.48479 16.3803 9.55047 16.3803C9.56142 16.4241 9.83511 15.9865 9.83511 16.0302C9.93364 15.9536 9.81322 16.3037 10.0431 16.0849C10.065 16.063 10.0869 16.0302 10.1198 16.0083C10.1088 15.9974 10.0979 15.9755 10.1088 15.9646C10.1088 15.9318 10.1088 15.8989 10.1635 15.8771C10.1526 15.8442 10.1964 15.8114 10.2073 15.7895C10.284 15.6801 10.4153 15.6145 10.5248 15.516C10.5467 15.4941 10.5467 15.4613 10.5796 15.4504C10.8752 15.2425 10.9189 14.9799 11.0941 14.7283L11.0832 14.7173L11.1817 14.597C11.1817 14.597 11.1707 14.586 11.1707 14.5751C11.2802 14.4219 11.4773 14.3125 11.5868 14.1703C11.6634 14.0718 11.7729 13.8749 11.9042 13.7436L11.959 13.6779L12.0137 13.7217C12.0137 13.6998 12.0137 13.667 12.0466 13.667C12.0685 13.667 12.0794 13.7217 12.0466 13.7217H12.0356C12.2327 13.8639 12.4626 14.0827 12.5283 14.1484H12.4954L12.4407 14.1374C12.4516 14.2359 12.5611 14.3234 12.6596 14.3125L12.7144 14.3016L12.7691 14.3453L12.7253 14.4L12.802 14.3672H12.8129C12.9005 14.3563 12.999 14.5641 13.1304 14.5751V14.5532C13.1304 14.5423 13.0976 14.5094 13.0866 14.4985H13.1304C13.2618 14.4876 13.3822 14.6298 13.5464 14.6188C13.5574 14.7611 13.5902 14.7611 13.7544 14.772L13.6997 14.8048C13.7325 14.8048 13.7435 14.8377 13.7435 14.8595C13.8311 14.8705 13.842 14.9033 13.8639 14.9361C13.8639 14.9252 13.8748 14.9143 13.8858 14.9143C13.8967 14.9143 13.8967 14.969 13.8858 14.969C13.9186 14.9908 13.9624 14.9908 14.061 14.969L14.0391 15.0237L13.9953 15.0674C13.9953 15.1112 14.0719 15.144 14.0719 15.144C14.0829 15.144 14.1266 15.144 14.1266 15.1331V15.1987C14.1376 15.1987 14.2142 15.1331 14.2142 15.1331L14.2252 15.144V15.1878L14.2142 15.1987L14.1923 15.2425C14.1704 15.2644 14.1376 15.2862 14.1047 15.2862H14.0938L14.0829 15.2753H14.0719C14.0719 15.2534 14.0719 15.2315 14.061 15.2315C14.0829 15.2206 14.061 15.1878 14.0391 15.1878ZM14.0062 6.40222V6.43504C14.0391 6.40222 14.0938 6.34751 14.1266 6.34751C14.1485 6.34751 14.2033 6.35845 14.2361 6.35845C14.2033 6.39127 14.1485 6.40222 14.1485 6.45692L14.1595 6.48974C14.1814 6.45692 14.2909 6.35845 14.3237 6.27092V6.33657C14.3237 6.4241 14.2909 6.4241 14.2799 6.4788L14.4332 6.29281V6.25998L14.4003 6.2381L14.5098 6.06305C14.5208 6.07399 14.5646 6.05211 14.6083 6.00834C14.5974 6.01928 14.5974 6.01928 14.6193 6.01928C14.6302 6.01928 14.6302 6.01928 14.6302 5.9974L14.6193 5.98646C14.7726 5.82235 15.0025 5.4613 15.0025 5.40659C14.9258 5.48318 14.8492 5.71294 14.7069 5.72388H14.6959C14.7069 5.69106 14.7726 5.62541 14.7835 5.54882C14.6521 5.63635 14.3565 5.89893 14.3565 6.04117L14.3675 6.07399L14.4113 6.03022C14.4003 6.1834 14.3128 6.07399 14.2799 6.19434C14.2799 6.21622 14.269 6.30375 14.269 6.30375H14.2361L14.2252 6.24904C14.1376 6.25998 14.0062 6.31469 14.0062 6.40222ZM15.101 15.1659C15.0682 15.1878 15.0682 15.2315 15.1229 15.2534L15.1667 15.2206L15.2652 15.3081L15.6046 15.6254C15.7579 15.7458 15.944 15.8989 15.9221 15.8989C15.9002 15.8989 15.8673 15.888 15.8345 15.8661L15.9111 15.9755C15.9221 15.9755 15.9221 15.9646 15.944 15.9646C15.9659 15.9646 15.9659 15.9974 15.944 15.9974H15.933V16.0083C15.8783 15.9536 15.8236 15.888 15.7579 15.8333C15.5827 15.7239 15.4404 15.5379 15.4294 15.5051C15.32 15.4066 15.2105 15.3191 15.09 15.2425C15.0791 15.2753 15.1338 15.2862 15.1229 15.3081C15.0244 15.2534 14.9149 15.1331 14.8383 15.1112C14.8711 15.144 14.9368 15.1768 14.9368 15.2315C14.8601 15.1659 14.7945 15.0893 14.7397 14.9799C14.7945 14.9908 14.8273 15.0346 14.882 15.0565C14.8273 14.9799 14.7507 14.9252 14.685 14.8814C14.685 14.9143 14.7178 14.958 14.685 14.9799C14.674 14.958 14.5974 14.9252 14.5974 14.8486C14.6193 14.8814 14.6412 14.9143 14.674 14.8924C14.6193 14.8377 14.5646 14.772 14.4989 14.7173C14.4989 14.6954 14.4989 14.6736 14.477 14.6517C14.7069 14.8267 14.9149 15.0127 15.101 15.1659ZM13.7106 10.2425C13.634 10.2315 13.5355 10.2972 13.5902 10.3847L13.426 10.5598C13.4369 10.516 13.4479 10.4722 13.4698 10.4504L13.5026 10.3957H13.5245C13.5355 10.3847 13.5245 10.3628 13.5245 10.3519C13.5683 10.2534 13.5902 10.144 13.6449 10.0346C13.7106 10.144 13.8639 9.9799 13.7325 9.90331L13.6668 9.92519C13.6668 9.91425 13.6668 9.90331 13.6778 9.89237C13.8311 9.76108 14.0062 9.69543 14.1595 9.5532C14.1485 9.57508 14.1376 9.58602 14.1376 9.59696C14.1814 9.57508 14.2471 9.48756 14.269 9.4985C14.2033 9.6079 14.1266 9.70637 14.05 9.81578C14.05 9.75014 13.9734 9.70637 13.9186 9.78296C13.9077 9.82672 13.9515 9.88143 14.0062 9.87049L13.9515 9.93613C13.9296 9.92519 13.8967 9.93613 13.853 9.95801C13.842 9.99084 13.853 10.0237 13.8639 10.0565C13.8092 10.1112 13.7654 10.1768 13.7106 10.2425ZM12.4407 13.3169C12.4297 13.295 12.4078 13.2622 12.4078 13.2403L12.4954 13.1965C12.5283 13.1965 12.5721 13.2075 12.6049 13.2294C12.5392 13.2403 12.4845 13.2512 12.4845 13.3059C12.5064 13.3935 12.6925 13.3388 12.6159 13.2403C12.6815 13.2731 12.7363 13.3278 12.791 13.3716C12.8348 13.4044 12.8786 13.4372 12.9224 13.4591C12.8458 13.5685 12.9881 13.7655 13.0757 13.6123C13.0866 13.6123 13.0866 13.5904 13.0866 13.5795L13.2508 13.6998C13.218 13.7436 13.1961 13.7983 13.1961 13.853L12.4407 13.3169ZM6.50699 16.4022H6.49604C6.52889 16.3475 6.47415 16.249 6.40846 16.3366C6.40846 16.3913 6.41941 16.4241 6.45225 16.4241L6.37562 16.4569C6.26614 16.5773 6.32088 16.7851 6.45225 16.7742C6.47415 16.7742 6.50699 16.7414 6.53983 16.7523C6.55078 16.6867 6.60552 16.621 6.60552 16.5444C6.60552 16.435 6.52889 16.4679 6.50699 16.4022ZM15.32 12.3322C15.2762 12.0258 14.8711 12.2337 15.0025 12.4416C15.0791 12.551 15.2871 12.4854 15.32 12.3322ZM6.2333 16.7633C6.22235 16.7195 6.1895 16.7086 6.17856 16.6867C6.22235 16.621 6.17856 16.5116 6.09097 16.5882C6.09097 16.621 6.08003 16.6429 6.09097 16.6757C6.05813 16.6976 6.04718 16.7414 6.03624 16.7851C5.99244 16.807 5.9815 16.8399 5.9596 16.8836C5.9596 17.0149 6.01434 17.0806 6.12382 17.0587C6.17856 17.0258 6.15666 16.9274 6.17856 16.8617C6.20045 16.818 6.2333 16.807 6.2333 16.7633ZM14.3675 11.4897C14.4441 11.3256 14.3456 11.1068 14.1266 11.1396C14.061 11.2819 14.1376 11.5335 14.3675 11.4897ZM16.9621 17.562C16.9293 17.5729 16.9074 17.5838 16.9293 17.6167C16.8855 17.6057 16.8636 17.562 16.8307 17.551C16.8307 17.5291 16.8636 17.5401 16.8636 17.5072C16.7213 17.3431 16.5461 17.2666 16.3928 17.1134C16.3709 17.0915 16.3819 17.1571 16.3381 17.1353C16.2505 17.0915 16.2067 16.9383 16.1301 16.8617C16.0863 16.8727 16.1629 16.9383 16.1082 16.9493C16.0644 16.9164 16.0863 16.8508 16.0863 16.818V16.807H16.141C16.2396 16.8836 16.3271 16.9711 16.4147 17.0477C16.6227 17.2228 16.8307 17.4197 17.0169 17.6167C16.984 17.6276 16.9731 17.5948 16.9621 17.562ZM6.86827 16.3803C6.83542 16.3694 6.83542 16.4132 6.80258 16.4132C6.76974 16.4241 6.76974 16.4022 6.74784 16.4132C6.72595 16.4241 6.70405 16.4569 6.68215 16.4569C6.66026 16.5116 6.67121 16.5663 6.6931 16.5992C6.715 16.6101 6.73689 16.6101 6.76974 16.5992C6.75879 16.632 6.75879 16.6648 6.76974 16.7086H6.85732C6.91206 16.6648 6.87921 16.5554 6.84637 16.5444H6.83542C6.83542 16.5335 6.84637 16.5226 6.84637 16.5116C6.87921 16.5007 6.89016 16.4788 6.90111 16.4569C6.90111 16.4132 6.90111 16.3803 6.86827 16.3803ZM7.86451 7.84642C7.84262 7.80265 7.82072 7.74795 7.77693 7.72607C7.72219 7.79171 7.57987 7.79171 7.59082 7.90112C7.61272 8.02147 7.85357 7.99959 7.86451 7.84642ZM12.6706 7.58383C12.7034 7.58383 12.7034 7.52913 12.6706 7.52913C12.7472 7.41972 12.8239 7.28843 12.8567 7.2009C12.7144 7.41972 12.4188 7.64948 12.4078 7.83548V7.8683C12.4297 7.84642 12.5502 7.70419 12.6596 7.54007C12.6596 7.55101 12.6596 7.58383 12.6706 7.58383ZM15.101 9.00616C15.0025 9.09368 14.9149 9.18121 14.8711 9.26874C14.8273 9.24685 14.7835 9.23591 14.7397 9.2578L15.0025 8.90769C15.0244 8.95145 15.0572 8.99521 15.101 9.00616ZM8.22579 16.1506C8.2039 16.1287 8.182 16.1178 8.1601 16.1287C8.36811 15.8442 8.75128 15.3081 8.76223 15.3081C8.76223 15.3409 8.4338 15.8223 8.22579 16.1506ZM14.1595 10.9974C14.2142 10.9646 14.2471 10.9208 14.2361 10.8333C14.2033 10.8005 14.1595 10.7676 14.0719 10.7786C13.9953 10.8442 14.0391 11.0302 14.1595 10.9974ZM16.3053 6.08493L16.2396 6.05211C16.2396 6.03022 16.2505 5.9974 16.2505 5.97552C16.2067 6.01928 16.152 5.98646 16.0972 6.06305H16.1301C16.141 6.06305 16.1629 6.04117 16.1739 6.03022C16.1629 6.10681 16.0972 6.13963 16.0972 6.20528H16.1301L16.1958 6.24904H16.2286C16.2834 6.21622 16.3053 6.16152 16.3053 6.10681V6.08493ZM13.7216 15.0674H13.7106V15.0455C13.7106 15.0565 13.7216 15.0565 13.7216 15.0674C13.7106 15.0237 13.6887 15.0018 13.6668 14.9799H13.6778C13.6887 14.9799 13.6997 14.969 13.6997 14.958C13.7106 14.9799 13.7325 15.0018 13.7544 15.0237C13.7544 15.0455 13.7654 15.0674 13.7763 15.0674C13.7873 15.0674 13.7873 15.0565 13.7982 15.0455C13.7982 15.0565 13.8092 15.0565 13.8201 15.0674L13.7982 15.0346C13.7982 15.0127 13.7873 14.9908 13.7654 14.9908C13.7325 14.9252 13.6887 14.8705 13.634 14.8486L13.6668 14.9143C13.6559 14.9252 13.6559 14.958 13.6668 14.9799C13.6121 14.9252 13.5464 14.9033 13.5136 14.8158C13.5136 14.8048 13.5245 14.8048 13.5464 14.8048C13.5245 14.7939 13.5136 14.783 13.5136 14.772C13.5136 14.783 13.5136 14.8048 13.4917 14.8048C13.4588 14.8158 13.4479 14.772 13.415 14.7611C13.4369 14.8048 13.4588 14.8377 13.4807 14.8595C13.4479 14.8595 13.4479 14.9252 13.4807 14.9252C13.4917 14.9252 13.5026 14.8814 13.4917 14.8705L13.5245 14.9033C13.5136 14.9143 13.5136 14.958 13.5355 14.958C13.5574 14.958 13.5683 14.9361 13.5574 14.9252C13.5683 14.9252 13.5683 14.9361 13.5793 14.9361C13.5574 14.958 13.5683 14.9908 13.5902 14.9908C13.6012 14.9908 13.6121 14.9799 13.6121 14.969L13.634 14.9908H13.623C13.6012 14.9908 13.6121 15.0455 13.634 15.0455C13.6559 15.0346 13.6559 15.0127 13.6449 15.0018L13.6887 15.0346C13.6668 15.0346 13.6668 15.0784 13.6887 15.0784C13.6997 15.0784 13.6997 15.0784 13.7106 15.0674C13.6887 15.0784 13.6887 15.1221 13.7216 15.1221C13.7544 15.1221 13.7544 15.0674 13.7216 15.0674ZM13.7216 14.0718C13.7106 14.0718 13.6997 14.0718 13.6887 14.0827L13.7216 14.0609C13.853 14.1484 13.9734 14.2469 14.1047 14.3453C14.061 14.3344 13.9953 14.3563 13.9953 14.4219L13.9734 14.4C13.9515 14.3672 13.9624 14.3453 13.9624 14.3234C13.9186 14.3016 13.8748 14.2687 13.8311 14.2359C13.842 14.2359 13.842 14.225 13.842 14.225C13.8201 14.1593 13.7763 14.1593 13.7435 14.1922C13.7216 14.1922 13.7106 14.1812 13.6997 14.1812C13.7325 14.1812 13.7654 14.1046 13.7216 14.0718ZM15.5389 8.7764C15.4951 8.74357 15.528 8.68887 15.517 8.6451C15.4404 8.62322 15.3747 8.61228 15.32 8.69981C15.3418 8.80922 15.4732 8.79828 15.5389 8.7764ZM16.7541 14.0937C16.7103 14.0609 16.6446 14.028 16.568 14.0827C16.568 14.1156 16.5461 14.1484 16.568 14.2031C16.6337 14.2469 16.776 14.1812 16.7541 14.0937ZM16.4366 16.3366C16.4038 16.3694 16.0097 16.063 16.0316 16.0412C16.0753 16.0302 16.4804 16.3256 16.4366 16.3366ZM14.2361 10.2097C14.1047 10.4175 13.9624 10.6254 13.7654 10.8333C13.8967 10.6254 14.05 10.4175 14.2361 10.2097ZM14.9368 5.68011V5.72388C15.0134 5.702 15.1338 5.53788 15.1338 5.47224C15.0463 5.516 14.9258 5.58165 14.9368 5.68011ZM16.3271 5.4613L15.9878 5.83329C16.0753 5.80046 16.3271 5.60353 16.3271 5.47224V5.4613ZM14.7397 12.2556C14.7507 12.2884 14.7726 12.3213 14.7945 12.3431C14.7616 12.3431 14.7726 12.4088 14.8054 12.4088C14.8273 12.4088 14.8273 12.3541 14.8054 12.3431C15.0134 12.2994 14.7945 12.0915 14.7397 12.2556ZM7.06533 16.4569C7.07627 16.4241 7.06533 16.3475 7.03248 16.3366C6.99964 16.3256 6.9668 16.3585 6.93395 16.3803C6.92301 16.4241 6.9449 16.4788 6.95585 16.5226C6.99964 16.5226 7.05438 16.4897 7.06533 16.4569ZM8.81697 7.34314L8.90455 7.3869C8.92645 7.36502 8.97024 7.35408 8.97024 7.29937C8.94834 7.26655 8.90455 7.25561 8.88266 7.24467C8.88266 7.17902 8.82792 7.18996 8.79508 7.22278C8.78413 7.28843 8.84981 7.27749 8.81697 7.34314ZM8.6856 7.66042C8.64181 7.6276 8.55422 7.63854 8.53233 7.6823C8.46664 7.81359 8.74034 7.82454 8.6856 7.66042ZM7.57987 16.7086C7.57987 16.6648 7.54703 16.6976 7.48134 16.6648C7.4485 16.6429 7.45945 16.5663 7.39376 16.621C7.37186 16.6648 7.40471 16.7195 7.4266 16.7414C7.45945 16.7304 7.48134 16.7086 7.49229 16.7414C7.49229 16.7742 7.48134 16.7851 7.50324 16.807C7.54703 16.7851 7.59082 16.7523 7.57987 16.7086ZM8.09442 16.435C8.08347 16.435 8.10537 16.3913 8.13821 16.3366C8.14916 16.3256 8.14916 16.3256 8.14916 16.3147C8.23674 16.1943 8.37906 16.0083 8.40096 16.0083C8.4338 16.0083 8.12726 16.4241 8.09442 16.435ZM15.8892 13.0652C15.8673 13.0652 15.8564 13.0652 15.8454 13.0434C15.7688 13.0652 15.725 13.0981 15.7579 13.1746C15.8017 13.2403 15.944 13.1637 15.8892 13.0652ZM15.8673 6.1834C15.8564 6.1834 15.8235 6.17246 15.8235 6.13963C15.8126 6.17246 15.7798 6.22716 15.7907 6.24904V6.27092H15.8345L15.8783 6.30375H15.9221C15.9549 6.30375 15.9659 6.24904 15.9549 6.21622L15.9221 6.24904L15.944 6.15057C15.933 6.17246 15.9002 6.1834 15.8673 6.1834ZM14.1266 14.4438C14.1376 14.4219 14.1485 14.4 14.1376 14.3891V14.3781L14.466 14.6407H14.4003C14.3128 14.5641 14.2142 14.4985 14.1266 14.4438ZM15.8126 15.6801C15.7907 15.6801 15.3528 15.2753 15.3747 15.2753C15.4075 15.2753 15.8454 15.6692 15.8126 15.6801ZM7.12007 16.4679C7.10912 16.5335 7.15291 16.5992 7.1748 16.6429C7.20765 16.6429 7.2186 16.621 7.24049 16.5992C7.22954 16.5226 7.20765 16.4022 7.12007 16.4679ZM15.4623 5.2753C15.5718 5.17683 15.6484 5.0346 15.7141 4.91425H15.7031L15.4404 5.24248L15.4623 5.2753ZM15.4294 5.77858H15.4623L15.4842 5.82235L15.2652 6.01928C15.2652 5.96458 15.3966 5.77858 15.4294 5.77858ZM13.5902 15.1331C13.5464 15.0893 13.4807 15.0455 13.426 14.9908C13.3931 14.969 13.2727 14.8377 13.3165 14.8924C13.4917 15.1112 13.7216 15.2425 13.9515 15.4832C13.853 15.3191 13.7106 15.2425 13.5902 15.1331ZM7.06533 16.0849C7.01059 16.063 6.9668 16.0521 6.89016 16.0849L6.97774 16.0083C6.9668 15.9318 6.92301 15.9318 6.91206 15.8771C6.93395 15.8989 6.9668 15.9099 6.99964 15.9208C7.03248 15.9208 7.01059 16.0412 7.01059 16.0412L7.05438 16.074V15.9536C7.06533 15.9536 7.06533 15.9427 7.07627 15.9427C7.07627 15.9208 7.07627 15.9099 7.06533 15.8989C7.06533 15.888 7.07627 15.8771 7.08722 15.8771C7.08722 15.8771 7.09817 15.9099 7.12007 15.9427C7.10912 15.9427 7.09817 15.9427 7.08722 15.9536C7.05438 15.9974 7.06533 16.0412 7.09817 16.063C7.08722 16.063 7.07627 16.074 7.06533 16.0849ZM13.3822 14.772L13.1742 14.6079H13.1413L13.1851 14.6626V14.6954L13.1413 14.6626C13.1632 14.7501 13.3165 14.7611 13.3822 14.7939V14.772ZM15.1338 11.993C15.1995 12.0587 15.2981 11.9821 15.2652 11.8946C15.1995 11.8727 15.101 11.9164 15.1338 11.993ZM6.85732 16.8508C6.72595 16.8508 6.75879 17.0259 6.83542 16.993C6.90111 16.9711 6.91206 16.8836 6.85732 16.8508ZM6.47415 17.5838C6.50699 17.551 6.49604 17.4963 6.48509 17.4525C6.35372 17.4088 6.35372 17.6823 6.47415 17.5838ZM7.9521 16.6101C7.90831 16.7195 7.99589 16.7742 8.07252 16.7195C8.06157 16.632 8.01778 16.5992 7.9521 16.6101ZM7.03248 16.621C6.99964 16.6648 7.02154 16.7414 7.05438 16.7523C7.14196 16.7414 7.14196 16.6429 7.10912 16.5992C7.07627 16.621 7.07627 16.6101 7.03248 16.621ZM8.13821 7.73701C8.09442 7.73701 8.05063 7.72607 8.01778 7.70419C8.00684 7.74795 7.99589 7.80265 8.02873 7.83548C8.10537 7.84642 8.14916 7.81359 8.13821 7.73701ZM15.4732 12.4416C15.4075 12.4635 15.3856 12.4963 15.3966 12.551C15.4732 12.6276 15.5827 12.4744 15.4732 12.4416ZM13.7106 6.83985L13.5574 7.08055C13.5574 7.11338 13.5574 7.15714 13.5464 7.15714L13.5136 7.08055C13.5355 7.01491 13.634 6.88362 13.7106 6.83985ZM8.21484 7.75889C8.26958 7.74795 8.31337 7.71513 8.30243 7.64948C8.24769 7.58383 8.14916 7.67136 8.19295 7.74795C8.2039 7.74795 8.21484 7.74795 8.21484 7.75889ZM17.3781 18.1965C17.2577 18.0981 17.1373 17.9996 17.0388 17.8683C17.1592 17.9558 17.2796 18.0652 17.3781 18.1965ZM16.0097 6.32563C16.0535 6.34751 16.0316 6.46786 16.1082 6.46786L16.0972 6.29281C16.0535 6.29281 16.0097 6.29281 16.0097 6.32563ZM14.9696 6.50068C14.9696 6.55539 14.9258 6.62103 14.882 6.62103H14.8383L14.893 6.55539H14.8273C14.8382 6.50068 14.9258 6.50068 14.9696 6.50068ZM13.9843 11.6867V11.6429C13.9734 11.6429 13.7435 11.446 13.7325 11.446C13.7325 11.4569 13.9405 11.6757 13.9405 11.6757L13.9843 11.6867ZM16.141 13.1856C16.1082 13.1746 16.0535 13.1965 16.0316 13.2184C16.0425 13.3497 16.2286 13.2622 16.141 13.1856ZM13.1523 7.50725C13.1523 7.54007 13.1632 7.59478 13.1632 7.59478L13.1304 7.6276C13.1085 7.6276 12.9443 7.82454 12.9114 7.8683L13.1523 7.50725ZM7.26239 16.6648C7.25144 16.7304 7.16386 16.8508 7.28428 16.818C7.29523 16.7633 7.33902 16.6976 7.29523 16.6539C7.28428 16.6539 7.27333 16.6648 7.26239 16.6648ZM16.6556 14.8705H16.6665C16.7213 14.8705 16.7979 14.958 16.8198 14.9908C16.7432 14.9908 16.6775 14.9252 16.6118 14.9143L16.6556 14.8705ZM15.944 5.13307C15.9878 5.12213 16.0425 5.12213 16.0753 5.0346H16.0425L15.9878 5.06742V5.0346C15.9768 5.01272 15.9768 4.99084 16.0097 4.9799C15.933 5.00178 15.944 5.11119 15.8892 5.13307H15.944ZM16.1629 17.1353C16.2834 17.0696 16.3928 17.2665 16.5023 17.365C16.36 17.3541 16.3053 17.0915 16.1629 17.1353ZM16.3271 14.5532L16.3819 14.6079V14.5532C16.4257 14.5423 16.4695 14.5423 16.4804 14.597C16.4695 14.597 16.4147 14.6188 16.3819 14.6298H16.3381C16.3271 14.6298 16.2943 14.6298 16.2943 14.6079L16.3271 14.5532ZM5.82823 16.9602C5.82823 17.0149 5.83918 17.0258 5.86107 17.0477C5.99244 16.993 5.89391 16.8289 5.82823 16.9602ZM13.4369 13.9405C13.415 13.9186 13.3712 13.9296 13.3384 13.9515L13.2946 13.9186C13.3384 13.8967 13.3822 13.8639 13.426 13.8311L13.4698 13.8639C13.4369 13.8858 13.4479 13.9186 13.4369 13.9405ZM15.9987 16.807C15.9768 16.807 15.9549 16.807 15.933 16.7961C15.9111 16.7742 15.9002 16.7523 15.8892 16.7304C15.9221 16.7523 15.9549 16.7633 15.9878 16.7633L15.9768 16.6976H16.0097L16.0863 16.7633C16.0535 16.7742 16.0206 16.7851 15.9987 16.807ZM16.5352 13.6342C16.5133 13.6013 16.4476 13.6123 16.4257 13.656C16.4257 13.6889 16.4476 13.6998 16.4585 13.7217C16.5133 13.7326 16.5571 13.6998 16.5352 13.6342ZM15.944 14.0827C15.944 14.1265 15.933 14.1703 15.9002 14.1703H15.8673L15.8892 14.1374C15.8345 14.1374 15.8017 14.0827 15.8017 14.0499H15.8564V14.0827H15.944ZM16.8964 15.3081C16.8307 15.3081 16.776 15.2862 16.7432 15.2315C16.7432 15.2206 16.776 15.2206 16.8088 15.2206C16.8636 15.2097 16.8964 15.2534 16.8964 15.3081ZM5.99244 17.3103L6.03624 17.2884C6.12382 17.1024 5.88297 17.2009 5.99244 17.3103ZM13.6121 6.74138C13.6012 6.85079 13.5574 6.93832 13.4588 6.93832L13.6121 6.74138ZM6.63836 16.0849C6.61647 16.0849 6.59457 16.063 6.57268 16.063C6.51794 16.1068 6.57268 16.1615 6.59457 16.1943C6.63836 16.1725 6.64931 16.1396 6.63836 16.0849ZM16.6665 14.5204C16.7103 14.5094 16.7322 14.4876 16.7103 14.4329H16.6994V14.411H16.6775L16.6884 14.4329C16.6556 14.4219 16.6227 14.4438 16.6227 14.4657L16.5899 14.4766L16.6446 14.5313L16.6665 14.5204ZM8.90455 7.97771C8.9374 7.99959 8.99214 7.97771 9.01403 7.95583C9.02498 7.84642 8.88266 7.89018 8.90455 7.97771ZM16.0753 14.2469C16.0753 14.2687 16.0753 14.2687 16.0972 14.3016C16.0972 14.3016 16.0425 14.3344 16.0097 14.3344L15.9549 14.3125C15.9659 14.2578 16.0316 14.2469 16.0753 14.2469ZM16.2396 12.8027C16.1848 12.8136 16.152 12.8355 16.152 12.8792C16.1629 12.8792 16.1739 12.8792 16.1739 12.9011C16.2396 12.9121 16.3053 12.8464 16.2396 12.8027ZM13.3822 11.0521C13.415 11.074 13.3603 11.1178 13.3056 11.1615C13.3275 11.1834 13.3494 11.1943 13.3931 11.1506C13.3822 11.1834 13.3494 11.2272 13.3275 11.26C13.3056 11.2381 13.2837 11.2162 13.2727 11.1943L13.3822 11.0521ZM7.90831 16.5116C7.88641 16.5444 7.86451 16.5663 7.86451 16.6101C7.88641 16.621 7.89736 16.632 7.91925 16.632L7.96304 16.5882C7.9521 16.5444 7.94115 16.5116 7.90831 16.5116ZM17.9912 17.4197C18.0459 17.4307 18.1116 17.4525 18.1007 17.5072L18.035 17.5401C18.035 17.4854 17.9912 17.4416 17.9584 17.4197H17.9912ZM12.8895 14.3344C12.8129 14.3453 12.7253 14.2578 12.7144 14.214L12.8895 14.3016V14.3344ZM15.5061 8.94051C15.4732 8.91863 15.4404 8.92957 15.4185 8.91863C15.3637 8.97333 15.4732 9.04992 15.5061 8.99521V8.94051ZM16.152 7.02585L16.1848 7.01491C16.1848 7.01491 16.1958 6.93832 16.1958 6.9055C16.152 6.92738 16.0753 7.02585 16.0972 7.03679C16.0972 7.04773 16.152 7.02585 16.152 7.02585ZM8.78413 7.49631C8.75128 7.46348 8.69655 7.47443 8.67465 7.51819C8.67465 7.54007 8.69655 7.55101 8.70749 7.57289C8.75128 7.57289 8.78413 7.54007 8.78413 7.49631ZM15.725 5.85517V5.89893L15.5061 6.12869C15.5608 6.04117 15.6374 5.9427 15.725 5.85517ZM14.6631 5.77858V5.78952C14.6302 5.86611 14.6193 5.90987 14.5646 5.92081H14.5317C14.5646 5.88799 14.6083 5.77858 14.6631 5.77858ZM15.5827 12.8464C15.5608 12.8464 15.5608 12.8355 15.5499 12.8355C15.4951 12.8464 15.4842 12.8683 15.4842 12.9121C15.5061 12.9121 15.5061 12.9339 15.517 12.9339C15.5718 12.923 15.5936 12.8902 15.5827 12.8464ZM17.5861 15.1002C17.5971 15.1331 17.5861 15.1768 17.5533 15.1878L17.5971 15.2425V15.1878C17.6518 15.1768 17.6518 15.2097 17.6847 15.2097C17.6847 15.1659 17.6409 15.1221 17.5861 15.1002ZM7.59082 16.807C7.61272 16.8508 7.56892 16.8508 7.55798 16.8617V16.9164C7.61272 16.9055 7.60177 16.8617 7.64556 16.8727C7.6784 16.818 7.63461 16.7633 7.59082 16.807ZM12.9005 14.3563H12.9443C12.9881 14.3563 13.0428 14.411 13.0538 14.4657C12.999 14.4766 12.9443 14.3891 12.9005 14.3563ZM6.59457 17.0259C6.56173 17.0696 6.58362 17.1462 6.64931 17.1134C6.68215 17.0696 6.64931 16.993 6.59457 17.0259ZM14.061 6.86173H14.0829L13.9405 7.04773V7.00397C13.9405 6.9602 14.0062 6.9055 14.061 6.86173ZM17.2139 15.4175C17.2468 15.4066 17.2796 15.4285 17.3015 15.4613L17.2249 15.5269L17.2139 15.4941L17.192 15.4175H17.2139ZM16.4804 14.7392C16.5242 14.7392 16.568 14.772 16.6118 14.772V14.8267C16.568 14.8267 16.4804 14.7939 16.4804 14.7392ZM15.725 15.9099C15.6812 15.9318 15.6484 15.8552 15.6593 15.8223C15.7141 15.8005 15.7798 15.8771 15.725 15.9099ZM12.3422 13.9186H12.3203L12.1451 13.7764C12.1779 13.7873 12.2984 13.853 12.3312 13.853C12.3422 13.8639 12.3312 13.9077 12.3422 13.9186ZM14.3347 14.7173C14.2909 14.6954 14.2361 14.6626 14.2252 14.6298C14.2799 14.6188 14.3128 14.6407 14.3565 14.6626C14.3456 14.6845 14.3347 14.6954 14.3347 14.7173ZM15.0353 5.9427C15.0353 5.84423 15.09 5.88799 15.1448 5.84423L15.1557 5.85517L15.0353 5.97552V5.9427ZM15.6046 8.4044C15.517 8.47005 15.4732 8.52475 15.4732 8.57946C15.528 8.55758 15.5718 8.45911 15.6046 8.4044ZM6.35372 17.179C6.37562 17.1462 6.37562 17.0696 6.32088 17.0915C6.27709 17.1243 6.28803 17.2118 6.35372 17.179ZM8.60896 7.35408C8.63086 7.34314 8.6637 7.33219 8.65275 7.28843C8.61991 7.25561 8.55422 7.28843 8.55422 7.32125C8.57612 7.33219 8.57612 7.36502 8.60896 7.35408ZM6.57268 16.2819C6.58362 16.26 6.57268 16.2162 6.57268 16.1943C6.55078 16.2053 6.55078 16.1834 6.51794 16.2053C6.49604 16.249 6.51794 16.3037 6.57268 16.2819ZM8.86076 8.20747L8.84981 8.14182L8.71844 8.09806C8.71844 8.109 8.83887 8.20747 8.86076 8.20747ZM15.4842 16.4132H15.5499C15.5718 16.4569 15.6046 16.5007 15.6484 16.5444C15.5827 16.5116 15.528 16.4679 15.4842 16.4132ZM17.4876 15.5051C17.5095 15.5051 17.5095 15.4613 17.4876 15.4504C17.5095 15.4394 17.4986 15.3957 17.4767 15.3957C17.4329 15.3957 17.4329 15.4394 17.4657 15.4504C17.4329 15.4613 17.4438 15.5051 17.4876 15.5051ZM16.6337 15.2644C16.6665 15.2644 16.6775 15.3081 16.6446 15.3191C16.6775 15.33 16.6775 15.3738 16.6446 15.3738C16.6118 15.3847 16.6008 15.33 16.6337 15.3191C16.6008 15.33 16.6008 15.2753 16.6337 15.2644ZM16.6227 5.66917C16.6008 5.66917 16.5352 5.69106 16.5352 5.76764L16.568 5.7567C16.6008 5.7567 16.6227 5.71294 16.6227 5.66917ZM16.152 17.0368C16.0535 17.0368 15.9987 16.9821 15.933 16.9164C15.9659 16.9383 16.0863 16.993 16.152 17.0368ZM13.01 7.01491C13.01 7.01491 13.0538 6.98208 13.0538 6.93832C13.0428 6.94926 12.9662 7.01491 12.9662 7.02585C12.9224 7.18996 12.9552 7.11338 13.01 7.01491ZM15.0353 5.43941L15.1229 5.38471C15.09 5.38471 15.09 5.35189 15.09 5.31906H15.0572L15.0353 5.43941ZM6.33183 16.2709C6.33183 16.2272 6.32088 16.2053 6.28803 16.2162C6.22235 16.249 6.28803 16.3475 6.33183 16.2709ZM14.05 15.3738L14.061 15.4066C14.061 15.4613 14.0938 15.4941 14.1485 15.516H14.1595C14.1485 15.4832 14.0938 15.4394 14.0938 15.4066L14.05 15.3738ZM6.80258 17.3869C6.79163 17.4307 6.82448 17.4635 6.85732 17.4525C6.85732 17.4307 6.89016 17.4307 6.87921 17.3978C6.86827 17.376 6.84637 17.365 6.80258 17.3869ZM15.1119 8.32782C15.1448 8.33876 15.1229 8.36064 15.1448 8.37158C15.1886 8.36064 15.1776 8.33876 15.1995 8.30594C15.1557 8.27311 15.1338 8.27311 15.1119 8.32782ZM12.6377 13.3606C12.6377 13.3935 12.594 13.4044 12.6159 13.4372C12.6487 13.4482 12.6706 13.4372 12.6925 13.4153C12.6815 13.3716 12.6596 13.3606 12.6377 13.3606ZM17.1701 15.9427L17.1592 15.8771H17.1811C17.1811 15.8771 17.2796 15.9208 17.3124 15.9208L17.1701 15.9427ZM16.0097 5.55976L16.0535 5.41753L16.0097 5.43941C16.0097 5.43941 15.9659 5.55976 16.0097 5.55976ZM6.61647 16.5773C6.56173 16.6648 6.6931 16.6757 6.67121 16.5773C6.64931 16.5773 6.63836 16.5663 6.61647 16.5773ZM7.29523 17.365C7.29523 17.376 7.28428 17.376 7.27333 17.3869C7.27333 17.4197 7.27333 17.4307 7.29523 17.4525C7.32807 17.4525 7.32807 17.4307 7.33902 17.4088C7.33902 17.3869 7.31713 17.365 7.29523 17.365ZM16.4804 6.30375V6.27092C16.4257 6.30375 16.4038 6.33657 16.4038 6.39127L16.4147 6.41316L16.4585 6.32563L16.4804 6.30375ZM13.415 7.02585H13.4479L13.3165 7.16808C13.3384 7.09149 13.3931 7.03679 13.415 7.02585ZM16.6994 5.58165C16.6994 5.55976 16.6884 5.53788 16.6665 5.53788C16.6446 5.53788 16.6556 5.61447 16.6775 5.61447C16.6884 5.61447 16.6884 5.62541 16.7103 5.62541C16.7432 5.62541 16.7322 5.58165 16.6994 5.58165ZM14.3565 9.65167L14.2142 9.7939L14.3347 9.61885L14.3565 9.65167ZM16.4914 5.95364H16.4585C16.4038 5.95364 16.3819 5.98646 16.3928 6.00834C16.4476 6.00834 16.4695 6.00834 16.4914 5.95364ZM15.4623 5.68011C15.4623 5.69106 15.3747 5.77858 15.3418 5.78952C15.309 5.78952 15.4623 5.64729 15.4623 5.68011ZM14.8273 5.54882C14.8382 5.53788 14.9039 5.45036 14.9039 5.41753C14.8273 5.45036 14.8273 5.50506 14.8273 5.54882ZM14.2909 15.6254H14.2799C14.269 15.6035 14.269 15.5926 14.258 15.5926C14.2471 15.6035 14.2471 15.6582 14.258 15.6473H14.269C14.258 15.6692 14.269 15.6801 14.2909 15.6801C14.3347 15.6801 14.3347 15.6254 14.2909 15.6254ZM17.1482 15.5269L17.1154 15.5598C17.0935 15.5598 17.0169 15.516 17.0169 15.4941L17.1482 15.5269ZM15.0025 5.26436L14.9477 5.33001V5.36283C14.9915 5.35189 15.0025 5.31906 15.0353 5.29718L15.0025 5.26436ZM15.1776 6.31469C15.1448 6.31469 15.1448 6.27092 15.1667 6.25998C15.1338 6.24904 15.1338 6.20528 15.1667 6.20528C15.1886 6.19434 15.1995 6.24904 15.1776 6.25998C15.1995 6.24904 15.1995 6.30375 15.1776 6.31469ZM16.4038 5.2206C16.3928 5.2206 16.3819 5.23154 16.3819 5.23154C16.3928 5.2206 16.3928 5.20966 16.3928 5.18777C16.3928 5.16589 16.3162 5.25342 16.349 5.25342C16.36 5.25342 16.3709 5.24248 16.3819 5.23154C16.3709 5.25342 16.3819 5.2753 16.4038 5.2753C16.4257 5.2753 16.4257 5.2206 16.4038 5.2206ZM16.5242 5.81141C16.4914 5.82235 16.4585 5.84423 16.4366 5.86611V5.89893C16.4585 5.89893 16.5242 5.86611 16.5242 5.81141ZM7.6784 16.4679C7.64556 16.5007 7.65651 16.5663 7.71125 16.5335C7.73314 16.5007 7.71125 16.4569 7.6784 16.4679ZM17.619 16.8946C17.619 16.9383 17.5424 16.9383 17.5424 16.8946C17.5424 16.8617 17.619 16.8617 17.619 16.8946ZM17.5971 16.0083C17.6299 16.0083 17.6299 16.0849 17.5971 16.0849C17.5533 16.0849 17.5533 16.0083 17.5971 16.0083ZM13.9296 6.69762C13.9186 6.68668 13.9186 6.64292 13.9296 6.64292C13.9624 6.64292 13.9734 6.69762 13.9405 6.69762H13.9296C13.9405 6.70856 13.9405 6.76327 13.9296 6.76327C13.8858 6.76327 13.8858 6.69762 13.9296 6.69762ZM15.7141 13.4153C15.736 13.4153 15.725 13.3606 15.7031 13.3606C15.7031 13.3497 15.6922 13.3278 15.6703 13.3278C15.6484 13.3278 15.6593 13.3825 15.6812 13.3825C15.6812 13.3935 15.6922 13.4153 15.7141 13.4153ZM17.7504 15.4394H17.7613C17.7613 15.4504 17.7723 15.4613 17.7832 15.4613C17.827 15.4504 17.827 15.3957 17.7832 15.4066H17.7723C17.7723 15.3957 17.7613 15.3847 17.7504 15.3847C17.7394 15.3847 17.7394 15.4394 17.7504 15.4394ZM8.81697 7.43066C8.81697 7.3869 8.78413 7.3869 8.75128 7.3869C8.75128 7.39784 8.74034 7.40878 8.72939 7.43066C8.75128 7.4416 8.79508 7.4416 8.81697 7.43066ZM15.7907 13.7873C15.8126 13.7873 15.8126 13.7983 15.8126 13.8202C15.8126 13.8202 15.8126 13.8092 15.8235 13.8092C15.8454 13.8092 15.8454 13.8639 15.8235 13.8639C15.8017 13.8749 15.7907 13.853 15.8017 13.8311H15.7907C15.7579 13.8311 15.7579 13.7873 15.7907 13.7873ZM16.2724 14.2031V14.1703C16.2615 14.1593 16.2396 14.1484 16.2286 14.1484H16.2177C16.2286 14.1703 16.2286 14.2359 16.2286 14.2578L16.2724 14.2031ZM13.8967 6.91644C13.9405 6.91644 13.9405 6.99303 13.8967 6.99303C13.8639 6.99303 13.8639 6.91644 13.8967 6.91644ZM15.0682 7.48537C15.0682 7.43066 15.101 7.37596 15.1667 7.37596L15.0682 7.48537ZM14.4332 5.73482C14.466 5.73482 14.4551 5.65823 14.4222 5.65823C14.3894 5.65823 14.4003 5.73482 14.4332 5.73482ZM15.0025 6.40222C15.0463 6.40222 15.0572 6.46786 15.0134 6.46786C14.9806 6.4788 14.9696 6.41316 15.0025 6.40222ZM12.5283 14.0827C12.4954 14.0827 12.4845 14.0062 12.5173 14.0062C12.5502 14.0062 12.5611 14.0827 12.5283 14.0827ZM16.7979 14.6954V14.6079L16.7432 14.6407C16.7432 14.6736 16.776 14.6954 16.7979 14.6954ZM7.07627 7.83548C7.08722 7.78077 7.03248 7.78077 7.01059 7.80265V7.83548C7.04343 7.83548 7.05438 7.85736 7.07627 7.83548ZM14.3784 15.7348C14.3456 15.7348 14.3565 15.8005 14.3894 15.8005C14.4332 15.8005 14.4222 15.7348 14.3784 15.7348ZM8.80602 7.80265C8.79508 7.79171 8.74034 7.79171 8.72939 7.81359V7.84642C8.77318 7.84642 8.80602 7.83548 8.80602 7.80265ZM13.3494 7.35408C13.3494 7.40878 13.2946 7.4416 13.2618 7.4416H13.2399C13.2618 7.40878 13.3275 7.3869 13.3494 7.35408ZM13.5683 14.1046C13.5793 14.1156 13.5902 14.1156 13.6121 14.1156C13.634 14.1156 13.6449 14.1046 13.6559 14.1046C13.6449 14.1156 13.6449 14.1374 13.6668 14.1593C13.6778 14.1812 13.6887 14.1812 13.6997 14.1812H13.6778L13.5683 14.1046ZM15.0244 7.34314C15.0463 7.34314 15.0572 7.3869 15.0353 7.39784C15.0572 7.40878 15.0572 7.45254 15.0353 7.45254C15.0244 7.46349 15.0134 7.40878 15.0244 7.39784C15.0134 7.40878 15.0134 7.35408 15.0244 7.34314ZM16.787 5.516C16.8198 5.516 16.8198 5.43941 16.787 5.43941C16.7541 5.45036 16.7541 5.516 16.787 5.516ZM15.4513 6.1834L15.4294 6.2381C15.4294 6.2381 15.3637 6.20528 15.3637 6.17246C15.3747 6.17246 15.4404 6.19434 15.4513 6.1834ZM14.4879 6.20528L14.5755 6.09587H14.5427C14.5427 6.09587 14.4879 6.15057 14.4879 6.1834V6.20528ZM8.35716 16.9711C8.31337 16.9821 8.31337 17.0477 8.35716 17.0368C8.39001 17.0368 8.39001 16.9711 8.35716 16.9711ZM15.944 13.5576C15.9549 13.5357 15.944 13.4919 15.9111 13.5029C15.9111 13.5248 15.8783 13.5357 15.8783 13.5576C15.9111 13.5466 15.9111 13.5795 15.944 13.5576ZM16.2286 5.31906V5.37377L16.2834 5.25342C16.2286 5.25342 16.2286 5.28624 16.2286 5.31906ZM12.5064 7.91206C12.5392 7.91206 12.5392 7.97771 12.5064 7.97771C12.4626 7.97771 12.4626 7.91206 12.5064 7.91206ZM15.517 4.77202C15.5499 4.76108 15.5499 4.68449 15.517 4.69543C15.4842 4.69543 15.4842 4.77202 15.517 4.77202ZM14.1157 14.5204C14.1376 14.4766 14.0938 14.5094 14.0719 14.4985V14.4657C14.0829 14.4657 14.0938 14.4657 14.1047 14.4547C14.1266 14.4766 14.1485 14.4985 14.1595 14.5313C14.1376 14.4985 14.1266 14.5204 14.1157 14.5204ZM14.5317 8.90769C14.5536 8.90769 14.5646 8.8858 14.5646 8.86392C14.5536 8.84204 14.5427 8.85298 14.5208 8.84204C14.4989 8.87486 14.4989 8.89675 14.5317 8.90769ZM17.0935 17.3541C17.0497 17.3103 17.0059 17.2884 16.9621 17.2337L17.0497 17.2775C17.0716 17.2994 17.0825 17.3213 17.0935 17.3541ZM17.8051 15.5379C17.8817 15.5598 17.8379 15.4832 17.7941 15.4941C17.7613 15.4941 17.7723 15.5379 17.8051 15.5379ZM15.5608 13.842C15.5936 13.842 15.5936 13.9077 15.5608 13.9186C15.528 13.9186 15.528 13.842 15.5608 13.842ZM17.2358 15.2534C17.2687 15.2534 17.2796 15.3191 17.2468 15.3191C17.2139 15.33 17.203 15.2644 17.2358 15.2534ZM7.22954 8.02147C7.22954 7.98865 7.22954 7.95583 7.18575 7.96677C7.18575 7.98865 7.1748 7.99959 7.1748 8.01053C7.18575 8.02147 7.1967 8.03241 7.22954 8.02147ZM15.8454 13.3606L15.8235 13.3169C15.7907 13.3169 15.7688 13.3278 15.7798 13.3606C15.8017 13.3716 15.8126 13.3716 15.8454 13.3606ZM17.4986 15.7895V15.8223L17.4438 15.8771L17.411 15.8661L17.4986 15.7895ZM12.6815 14.3016C12.6596 14.3016 12.6487 14.225 12.6706 14.225C12.7034 14.225 12.7144 14.3016 12.6815 14.3016ZM15.8783 16.0083C15.9111 16.0083 15.9111 16.0849 15.8783 16.0849C15.8564 16.0849 15.8564 16.0083 15.8783 16.0083ZM14.7945 6.45692C14.8273 6.44598 14.8273 6.50068 14.7945 6.51162C14.7507 6.51162 14.7507 6.45692 14.7945 6.45692ZM16.3709 4.62979C16.3928 4.62979 16.3819 4.5532 16.36 4.5532C16.3271 4.56414 16.3381 4.62979 16.3709 4.62979ZM16.6556 16.8399C16.6118 16.8399 16.6118 16.7851 16.6556 16.7851C16.6884 16.7742 16.6884 16.8289 16.6556 16.8399ZM15.8345 5.48318C15.8783 5.48318 15.8673 5.40659 15.8235 5.40659C15.8126 5.40659 15.8236 5.48318 15.8345 5.48318ZM16.8745 14.9033C16.8964 14.9033 16.9074 14.9799 16.8855 14.9799C16.8526 14.9799 16.8417 14.9033 16.8745 14.9033ZM16.776 4.6079C16.7979 4.6079 16.787 4.53132 16.7651 4.53132C16.7322 4.53132 16.7432 4.6079 16.776 4.6079ZM16.1958 5.78952H16.2177C16.2505 5.78952 16.2834 5.702 16.2834 5.69106C16.2177 5.702 16.2505 5.77858 16.1958 5.78952ZM16.0863 6.93832C16.1301 6.93832 16.1301 6.89456 16.0972 6.88362H16.0863C16.0535 6.88362 16.0535 6.93832 16.0863 6.93832ZM14.0719 11.7851C14.1157 11.7851 14.1157 11.7304 14.0719 11.7304C14.0391 11.7304 14.0391 11.7851 14.0719 11.7851ZM16.5571 15.4722C16.6008 15.4722 16.6008 15.5269 16.5571 15.5269C16.5242 15.5269 16.5242 15.4722 16.5571 15.4722ZM16.7979 15.6692C16.7651 15.6692 16.7651 15.6035 16.7979 15.6035C16.8307 15.6035 16.8307 15.6692 16.7979 15.6692ZM15.2762 15.2315C15.2433 15.2315 15.2433 15.1768 15.2762 15.1768C15.32 15.1768 15.32 15.2315 15.2762 15.2315ZM16.0425 6.09587C16.0097 6.09587 16.0097 6.15057 16.0425 6.15057C16.0863 6.15057 16.0863 6.09587 16.0425 6.09587ZM12.6377 14.4547C12.6049 14.4657 12.6049 14.5313 12.6377 14.5204C12.6706 14.5204 12.6706 14.4547 12.6377 14.4547ZM13.5245 7.31031C13.4807 7.31031 13.4698 7.25561 13.5136 7.25561C13.5464 7.25561 13.5574 7.31031 13.5245 7.31031ZM14.8054 6.67574C14.8383 6.67574 14.8383 6.73044 14.8054 6.73044C14.7616 6.74138 14.7616 6.68668 14.8054 6.67574ZM15.7688 5.16589C15.8017 5.16589 15.8017 5.11119 15.7688 5.11119C15.725 5.12213 15.725 5.17683 15.7688 5.16589ZM16.5352 14.969C16.5023 14.969 16.4914 14.9143 16.5242 14.9143C16.568 14.9143 16.5789 14.969 16.5352 14.969ZM16.5789 4.38909C16.6008 4.38909 16.6008 4.3125 16.5789 4.3125C16.5461 4.3125 16.5461 4.38909 16.5789 4.38909ZM14.9368 12.6495C14.9039 12.6495 14.9039 12.7261 14.9368 12.7261C14.9587 12.7261 14.9587 12.6495 14.9368 12.6495ZM15.6155 14.0827C15.5827 14.0937 15.5827 14.0171 15.6155 14.0062C15.6374 14.0062 15.6374 14.0827 15.6155 14.0827ZM12.9005 7.04773H12.8676C12.8676 7.04773 12.8239 7.11338 12.8239 7.12432L12.8567 7.11338C12.8786 7.08055 12.9005 7.05867 12.9005 7.04773ZM16.4366 5.4613C16.4257 5.45036 16.4147 5.42847 16.4147 5.41753L16.3819 5.45036V5.4613L16.4366 5.50506V5.4613ZM17.4876 16.7961C17.4876 16.7633 17.5424 16.7742 17.5424 16.807C17.5314 16.8399 17.4767 16.8399 17.4876 16.7961ZM14.9696 10.0346C14.9587 10.0674 15.0025 10.1112 15.0244 10.0784C15.0353 10.0455 14.9915 10.0237 14.9696 10.0346ZM15.7469 5.58165C15.7907 5.57071 15.7907 5.49412 15.7469 5.50506C15.736 5.50506 15.736 5.58165 15.7469 5.58165ZM16.568 16.3256C16.5242 16.3256 16.5133 16.2928 16.5571 16.2928C16.568 16.2928 16.568 16.3256 16.568 16.3256C16.6008 16.3256 16.6118 16.3803 16.5789 16.3803C16.568 16.3803 16.568 16.3256 16.568 16.3256ZM15.5608 13.1965C15.5718 13.2403 15.5936 13.2294 15.6265 13.2184C15.6265 13.1746 15.5718 13.1746 15.5608 13.1965ZM9.15635 7.24467C9.14541 7.23373 9.12351 7.23373 9.10161 7.24467V7.28843C9.13446 7.28843 9.1673 7.27749 9.15635 7.24467ZM13.9843 15.1987C13.9734 15.1878 13.9515 15.1768 13.9405 15.1768C13.9405 15.1987 13.9515 15.2097 13.9624 15.2206C13.9734 15.2315 13.9734 15.2425 13.9953 15.2425C13.9953 15.2425 14.0062 15.2534 14.0172 15.2534L13.9953 15.2206C13.9953 15.2097 13.9953 15.1987 13.9843 15.1987ZM16.1082 16.3585C16.1082 16.3366 16.1191 16.3147 16.1301 16.3147C16.152 16.3147 16.1629 16.3694 16.141 16.3913L16.1082 16.3585ZM6.82448 16.249C6.80258 16.249 6.81353 16.1943 6.78068 16.2053C6.73689 16.2381 6.80258 16.2928 6.82448 16.249ZM16.6665 16.5773C16.6227 16.5882 16.6118 16.5226 16.6556 16.5116C16.6665 16.5116 16.6775 16.5773 16.6665 16.5773ZM12.6268 14.028C12.6596 14.028 12.6706 14.0827 12.6377 14.0827C12.6049 14.0937 12.594 14.039 12.6268 14.028ZM15.2762 6.45692C15.2433 6.45692 15.2324 6.39127 15.2652 6.39127C15.2871 6.39127 15.2981 6.45692 15.2762 6.45692ZM13.2946 14.7939C13.2727 14.7939 13.2837 14.8595 13.3056 14.8595C13.3384 14.8595 13.3275 14.7939 13.2946 14.7939ZM16.1739 6.78515H16.1629L16.141 6.87267C16.1739 6.83985 16.2067 6.78515 16.2067 6.77421C16.1958 6.77421 16.1848 6.78515 16.1739 6.78515ZM16.5461 6.21622C16.568 6.21622 16.5571 6.15057 16.5352 6.15057C16.5023 6.15057 16.5133 6.21622 16.5461 6.21622ZM15.0353 6.22716C15.0463 6.22716 15.0572 6.29281 15.0463 6.29281C15.0025 6.29281 14.9915 6.22716 15.0353 6.22716ZM14.8164 6.2381C14.8601 6.2381 14.8711 6.30375 14.8273 6.30375C14.8164 6.30375 14.8054 6.2381 14.8164 6.2381ZM16.2177 5.05648C16.2505 5.05648 16.2396 5.00178 16.2067 5.00178C16.1739 5.00178 16.1848 5.05648 16.2177 5.05648ZM16.1301 14.3016C16.1629 14.3016 16.1739 14.3563 16.141 14.3563C16.1082 14.3563 16.0972 14.3016 16.1301 14.3016ZM15.1557 6.57727C15.1229 6.57727 15.1229 6.52257 15.1557 6.52257C15.1886 6.52257 15.1886 6.57727 15.1557 6.57727ZM15.7579 7.45254C15.7907 7.45254 15.7798 7.39784 15.7469 7.39784C15.7141 7.39784 15.725 7.45254 15.7579 7.45254ZM15.7031 6.54445C15.6703 6.54445 15.6703 6.48974 15.7031 6.48974C15.736 6.48974 15.736 6.54445 15.7031 6.54445ZM15.6922 6.22716C15.725 6.22716 15.725 6.28187 15.6922 6.28187C15.6593 6.28187 15.6593 6.22716 15.6922 6.22716ZM15.5389 13.5138C15.5718 13.5138 15.5718 13.4591 15.5389 13.4591C15.5061 13.4591 15.5061 13.5138 15.5389 13.5138ZM15.2324 6.24904C15.1995 6.24904 15.1886 6.19434 15.2214 6.19434C15.2543 6.19434 15.2652 6.24904 15.2324 6.24904ZM18.0241 17.3978C18.0241 17.365 18.0788 17.365 18.0788 17.3978C18.0788 17.4307 18.0241 17.4307 18.0241 17.3978ZM13.3822 7.32125C13.3494 7.32125 13.3384 7.26655 13.3712 7.26655C13.4041 7.26655 13.415 7.32125 13.3822 7.32125ZM16.3162 5.37377C16.349 5.37377 16.349 5.31906 16.3162 5.31906C16.2834 5.31906 16.2834 5.37377 16.3162 5.37377ZM13.1523 7.31031C13.1851 7.31031 13.1851 7.36502 13.1523 7.36502C13.1194 7.36502 13.1194 7.31031 13.1523 7.31031ZM13.7654 15.2097C13.7982 15.2097 13.7982 15.155 13.7654 15.155C13.7325 15.155 13.7325 15.2097 13.7654 15.2097ZM16.0535 14.4438C16.0863 14.4438 16.0863 14.4985 16.0535 14.4985C16.0206 14.4985 16.0206 14.4438 16.0535 14.4438ZM15.2981 5.02366C15.3309 5.02366 15.3309 4.96896 15.2981 4.96896C15.2652 4.96896 15.2652 5.02366 15.2981 5.02366ZM16.141 14.5313C16.1739 14.5313 16.1848 14.586 16.152 14.586C16.1191 14.586 16.1082 14.5313 16.141 14.5313ZM15.9221 15.7676C15.8892 15.7676 15.8783 15.7129 15.9111 15.7129C15.944 15.7129 15.9549 15.7676 15.9221 15.7676ZM16.8198 6.01928C16.8526 6.01928 16.8417 5.96458 16.8088 5.96458C16.776 5.96458 16.787 6.01928 16.8198 6.01928ZM15.2762 6.59915C15.2433 6.59915 15.2433 6.53351 15.2762 6.53351C15.2981 6.53351 15.2981 6.59915 15.2762 6.59915ZM15.6484 6.57727C15.6155 6.57727 15.6155 6.51162 15.6484 6.51162C15.6703 6.51162 15.6703 6.57727 15.6484 6.57727ZM16.6337 4.92519C16.6665 4.92519 16.6665 4.85955 16.6337 4.85955C16.6118 4.85955 16.6118 4.92519 16.6337 4.92519ZM15.0463 5.24248C15.0791 5.24248 15.0791 5.17683 15.0463 5.17683C15.0244 5.17683 15.0244 5.24248 15.0463 5.24248ZM15.8673 14.2797C15.9002 14.2797 15.9002 14.3453 15.8673 14.3453C15.8454 14.3453 15.8454 14.2797 15.8673 14.2797ZM17.1482 15.6473C17.1154 15.6473 17.1154 15.5816 17.1482 15.5816C17.1701 15.5816 17.1701 15.6473 17.1482 15.6473ZM15.1776 15.0784C15.1995 15.0784 15.1995 15.144 15.1776 15.144C15.1448 15.144 15.1448 15.0784 15.1776 15.0784ZM16.9293 15.888C16.8964 15.888 16.8964 15.8223 16.9293 15.8223C16.9512 15.8223 16.9512 15.888 16.9293 15.888ZM15.1776 5.30812C15.2105 5.30812 15.2105 5.25342 15.1776 5.25342C15.1448 5.26436 15.1448 5.31906 15.1776 5.30812ZM15.2324 7.89018C15.1995 7.89018 15.1995 7.83548 15.2324 7.83548C15.2652 7.82454 15.2652 7.87924 15.2324 7.89018ZM15.1886 7.16808C15.1557 7.16808 15.1557 7.11338 15.1886 7.11338C15.2214 7.10243 15.2214 7.15714 15.1886 7.16808ZM15.6046 6.22716C15.6374 6.22716 15.6374 6.28187 15.6046 6.28187C15.5718 6.29281 15.5718 6.2381 15.6046 6.22716ZM16.5789 5.85517C16.6118 5.85517 16.6118 5.80046 16.5789 5.80046C16.5461 5.81141 16.5461 5.86611 16.5789 5.85517ZM15.7688 13.47C15.8017 13.4591 15.8017 13.4044 15.7688 13.4153C15.736 13.4153 15.736 13.47 15.7688 13.47ZM16.5461 5.33001C16.5789 5.31906 16.5789 5.26436 16.5461 5.2753C16.5133 5.2753 16.5133 5.33001 16.5461 5.33001ZM14.5755 12.562C14.5427 12.5729 14.5427 12.5182 14.5755 12.5072C14.6083 12.5072 14.6083 12.562 14.5755 12.562ZM16.8526 16.6867C16.8198 16.6867 16.8198 16.632 16.8526 16.632C16.8855 16.621 16.8855 16.6757 16.8526 16.6867ZM15.9768 12.5072C15.9659 12.4963 15.9659 12.4854 15.9659 12.4744C15.933 12.4854 15.9002 12.4854 15.9221 12.5182C15.933 12.5291 15.9659 12.5291 15.9768 12.5072ZM16.5352 16.6648C16.5789 16.6648 16.5789 16.7195 16.5461 16.7304H16.5352C16.5242 16.7086 16.5242 16.6648 16.5352 16.6648ZM6.22235 16.3256C6.20045 16.3366 6.20045 16.3475 6.20045 16.3694C6.20045 16.3803 6.2114 16.3913 6.2333 16.3803C6.24424 16.3694 6.24424 16.3475 6.24424 16.3256C6.2333 16.3256 6.22235 16.3366 6.22235 16.3256ZM15.1338 13.0215C15.1338 13.0324 15.1338 13.0324 15.1229 13.0434C15.1229 13.0324 15.1119 13.0324 15.101 13.0324V13.0105C15.0791 12.9887 15.0682 12.9777 15.0572 12.9777L15.0791 12.9558L15.1338 13.0215ZM15.3856 6.59915L15.4185 6.55539H15.4404L15.4732 6.58821L15.3856 6.59915ZM16.0425 6.03022C16.0863 6.03022 16.0863 6.00834 16.0863 5.97552C16.0425 5.97552 16.0316 5.9974 16.0425 6.03022ZM17.5533 15.1331C17.5861 15.1331 17.5752 15.0893 17.5424 15.0893C17.4986 15.0893 17.5095 15.1331 17.5533 15.1331ZM17.6409 15.2315C17.5971 15.2425 17.5971 15.3081 17.6409 15.2972C17.6518 15.2972 17.6518 15.2315 17.6409 15.2315ZM14.893 5.25342C14.9039 5.25342 14.9039 5.18777 14.893 5.18777C14.8492 5.18777 14.8492 5.25342 14.893 5.25342ZM16.1191 5.92081C16.1629 5.92081 16.1629 5.87705 16.1191 5.87705C16.0863 5.87705 16.0863 5.92081 16.1191 5.92081ZM7.60177 16.9493C7.54703 16.9602 7.59082 17.0259 7.61272 17.0259C7.62366 17.004 7.60177 16.9821 7.60177 16.9493ZM16.4914 14.8377C16.5242 14.8377 16.5242 14.9143 16.4914 14.9143C16.4804 14.9143 16.4804 14.8377 16.4914 14.8377ZM14.8601 6.16152C14.8711 6.16152 14.8711 6.21622 14.8601 6.21622C14.8164 6.21622 14.8164 6.16152 14.8601 6.16152ZM12.583 7.82454C12.594 7.82454 12.594 7.76983 12.583 7.76983C12.5392 7.76983 12.5392 7.82454 12.583 7.82454ZM13.7435 6.65386C13.7544 6.65386 13.7544 6.59915 13.7435 6.59915C13.6997 6.59915 13.6997 6.65386 13.7435 6.65386ZM16.1082 5.01272C16.1191 5.01272 16.1191 4.95801 16.1082 4.95801C16.0644 4.95801 16.0644 5.01272 16.1082 5.01272ZM9.21109 8.18559C9.24394 8.18559 9.27678 8.18559 9.26583 8.15276C9.25488 8.14182 9.22204 8.14182 9.21109 8.15276V8.18559ZM17.5205 15.6254L17.5314 15.6801H17.4876C17.4876 15.6473 17.4876 15.6254 17.5205 15.6254ZM16.4257 5.2753C16.4038 5.2753 16.4038 5.33001 16.4257 5.33001C16.4585 5.33001 16.4585 5.2753 16.4257 5.2753ZM17.2906 15.2315C17.3234 15.2315 17.3234 15.2862 17.2906 15.2862C17.2687 15.2862 17.2687 15.2315 17.2906 15.2315ZM16.9183 14.2578C16.8964 14.2578 16.8964 14.3125 16.9183 14.3125C16.9512 14.3125 16.9512 14.2578 16.9183 14.2578ZM15.7141 14.1484C15.6922 14.1484 15.6922 14.0937 15.7141 14.0937C15.7469 14.0937 15.7469 14.1484 15.7141 14.1484ZM15.9549 14.225C15.933 14.225 15.933 14.1703 15.9549 14.1703C15.9878 14.1703 15.9878 14.225 15.9549 14.225ZM15.2543 7.33219C15.2871 7.33219 15.2871 7.3869 15.2543 7.3869C15.2324 7.3869 15.2324 7.33219 15.2543 7.33219ZM15.1119 6.25998C15.1448 6.25998 15.1448 6.31469 15.1119 6.31469C15.09 6.31469 15.09 6.25998 15.1119 6.25998ZM15.2324 5.34095C15.2652 5.34095 15.2652 5.28624 15.2324 5.28624C15.2105 5.28624 15.2105 5.34095 15.2324 5.34095ZM15.736 6.08493C15.7141 6.08493 15.7141 6.03022 15.736 6.03022C15.7688 6.03022 15.7688 6.08493 15.736 6.08493ZM15.8235 13.5466C15.8564 13.5466 15.8564 13.4919 15.8235 13.4919C15.8017 13.4919 15.8017 13.5466 15.8235 13.5466ZM16.8745 14.4329C16.8526 14.4329 16.8526 14.4876 16.8745 14.4876C16.9074 14.4876 16.9074 14.4329 16.8745 14.4329ZM16.2286 5.90987C16.2067 5.90987 16.2067 5.96458 16.2286 5.96458C16.2615 5.96458 16.2615 5.90987 16.2286 5.90987ZM12.3312 8.01053C12.3641 8.01053 12.3641 7.95583 12.3312 7.95583C12.3093 7.95583 12.3093 8.01053 12.3312 8.01053ZM13.6778 7.05867L13.6887 7.10243H13.6449L13.634 7.05867H13.6778ZM16.0425 6.83985C16.0535 6.83985 16.0425 6.78515 16.0316 6.78515C15.9878 6.79609 15.9987 6.85079 16.0425 6.83985ZM12.583 14.1374C12.5611 14.1374 12.5611 14.0827 12.583 14.0827C12.6159 14.0827 12.6159 14.1374 12.583 14.1374ZM16.4147 5.13307C16.4476 5.13307 16.4476 5.07836 16.4147 5.07836C16.3928 5.07836 16.3928 5.13307 16.4147 5.13307ZM17.1701 15.5269C17.203 15.5269 17.203 15.5816 17.1701 15.5816C17.1482 15.5816 17.1482 15.5269 17.1701 15.5269ZM15.2762 5.19871C15.309 5.19871 15.309 5.14401 15.2762 5.14401C15.2543 5.14401 15.2543 5.19871 15.2762 5.19871ZM16.2396 6.16152C16.2177 6.16152 16.2177 6.10681 16.2396 6.10681C16.2724 6.10681 16.2724 6.16152 16.2396 6.16152ZM16.2177 16.3475C16.2505 16.3475 16.2505 16.4022 16.2177 16.4022C16.1958 16.4022 16.1958 16.3475 16.2177 16.3475ZM16.2505 6.28187C16.2286 6.28187 16.2286 6.33657 16.2505 6.33657C16.2834 6.33657 16.2834 6.28187 16.2505 6.28187ZM16.7651 15.6035C16.7432 15.6035 16.7432 15.5488 16.7651 15.5488C16.7979 15.5488 16.7979 15.6035 16.7651 15.6035ZM14.4222 6.09587C14.4551 6.09587 14.4551 6.15057 14.4222 6.15057C14.4003 6.15057 14.4003 6.09587 14.4222 6.09587ZM15.9549 5.30812C15.9659 5.29718 15.9659 5.24248 15.9549 5.25342C15.9111 5.25342 15.9111 5.30812 15.9549 5.30812ZM17.192 16.074C17.1701 16.074 17.1701 16.0193 17.192 16.0193C17.2249 16.0193 17.2249 16.074 17.192 16.074ZM17.1811 15.7567C17.2139 15.7567 17.2139 15.8114 17.1811 15.8114C17.1592 15.8114 17.1592 15.7567 17.1811 15.7567ZM17.1592 15.4394C17.192 15.4394 17.192 15.4941 17.1592 15.4941C17.1373 15.4941 17.1373 15.4394 17.1592 15.4394ZM15.0244 6.09587C15.0134 6.09587 15.0025 6.03022 15.0134 6.03022C15.0463 6.03022 15.0572 6.09587 15.0244 6.09587ZM17.1811 14.7611C17.2139 14.7501 17.203 14.6954 17.1701 14.7064C17.1482 14.7064 17.1592 14.7611 17.1811 14.7611ZM15.5936 13.5576C15.6265 13.5576 15.6265 13.5029 15.5936 13.5029C15.5718 13.5138 15.5718 13.5685 15.5936 13.5576ZM13.01 6.92738C13.0428 6.91644 13.0319 6.86173 12.999 6.87267C12.9771 6.87267 12.9881 6.92738 13.01 6.92738ZM16.36 5.18777C16.3928 5.18777 16.3928 5.13307 16.36 5.13307C16.3381 5.14401 16.3381 5.19871 16.36 5.18777ZM16.8526 15.5379C16.8855 15.5379 16.8855 15.5926 16.8526 15.5926C16.8307 15.6035 16.8307 15.5488 16.8526 15.5379ZM16.4585 16.6757C16.4476 16.6757 16.4476 16.621 16.4585 16.621C16.5023 16.6101 16.5133 16.6648 16.4585 16.6757ZM16.1958 14.5313C16.1739 14.5313 16.1739 14.4766 16.1958 14.4766C16.2286 14.4657 16.2286 14.5204 16.1958 14.5313ZM15.5718 7.37596C15.6046 7.37596 15.6155 7.43066 15.5827 7.43066C15.5608 7.43066 15.5499 7.3869 15.5718 7.37596ZM15.7688 14.0609C15.7469 14.0609 15.7469 14.0062 15.7688 14.0062C15.8017 13.9952 15.8017 14.0499 15.7688 14.0609ZM14.4222 6.64292C14.4441 6.64292 14.4551 6.69762 14.4332 6.69762C14.4003 6.70856 14.3894 6.65386 14.4222 6.64292ZM7.25144 15.8552H7.28428C7.28428 15.8552 7.29523 15.8552 7.29523 15.8442C7.27333 15.8661 7.25144 15.888 7.24049 15.9099C7.22954 15.9099 7.2186 15.9099 7.2186 15.8989L7.25144 15.8552ZM17.411 15.7786C17.4438 15.7676 17.4438 15.8223 17.411 15.8333C17.3891 15.8333 17.3891 15.7786 17.411 15.7786ZM16.3819 5.41753C16.4147 5.41753 16.4038 5.36283 16.3709 5.36283C16.349 5.37377 16.36 5.41753 16.3819 5.41753ZM13.853 15.2097C13.8748 15.2097 13.8639 15.155 13.842 15.155C13.8092 15.1659 13.8201 15.2206 13.853 15.2097ZM17.0497 15.0674C17.0825 15.0674 17.0935 15.1221 17.0606 15.1221C17.0388 15.1221 17.0278 15.0674 17.0497 15.0674ZM15.2871 5.28624C15.32 5.28624 15.309 5.23154 15.2762 5.23154C15.2543 5.23154 15.2652 5.28624 15.2871 5.28624ZM13.1851 6.91644C13.218 6.91644 13.207 6.86173 13.1742 6.86173C13.1523 6.86173 13.1632 6.91644 13.1851 6.91644ZM15.7141 5.63635C15.7469 5.63635 15.736 5.58165 15.7031 5.58165C15.6812 5.58165 15.6922 5.63635 15.7141 5.63635ZM16.1629 4.65167C16.1958 4.65167 16.1848 4.59696 16.152 4.59696C16.1301 4.59696 16.141 4.65167 16.1629 4.65167ZM16.7103 15.8989C16.7213 15.8989 16.7322 15.9536 16.7213 15.9536C16.6775 15.9536 16.6665 15.8989 16.7103 15.8989ZM16.2177 6.7195C16.2177 6.70856 16.2067 6.68668 16.2067 6.68668C16.1629 6.69762 16.1629 6.74138 16.1958 6.74138H16.2067C16.2177 6.74138 16.2177 6.73044 16.2177 6.7195ZM17.2468 14.4985C17.2249 14.4985 17.2358 14.5532 17.2577 14.5532C17.2906 14.5532 17.2796 14.4985 17.2468 14.4985ZM16.6337 16.7523C16.5899 16.7523 16.5789 16.6976 16.6227 16.6976C16.6337 16.6976 16.6446 16.7523 16.6337 16.7523ZM16.0753 12.8792L16.0535 12.8464C16.0206 12.8574 16.0206 12.8792 16.0316 12.9011C16.0535 12.9011 16.0644 12.8902 16.0753 12.8792ZM16.0753 15.9318C16.0972 15.9318 16.1082 15.9865 16.0863 15.9865C16.0535 15.9865 16.0425 15.9427 16.0753 15.9318ZM12.7363 7.29937C12.7472 7.29937 12.7363 7.24467 12.7253 7.24467C12.6815 7.24467 12.6925 7.29937 12.7363 7.29937ZM15.9221 14.0499C15.8892 14.0499 15.8892 13.9952 15.9221 13.9952C15.944 13.9952 15.944 14.0499 15.9221 14.0499ZM15.0791 6.11775C15.101 6.11775 15.101 6.17246 15.0791 6.17246C15.0463 6.17246 15.0463 6.11775 15.0791 6.11775ZM15.725 6.36939C15.6922 6.36939 15.6922 6.31469 15.725 6.31469C15.7469 6.31469 15.7469 6.36939 15.725 6.36939ZM17.2577 14.958C17.2249 14.958 17.2249 15.0127 17.2577 15.0127C17.2796 15.0127 17.2796 14.958 17.2577 14.958ZM15.6922 5.76764C15.7141 5.76764 15.7141 5.82235 15.6922 5.82235C15.6593 5.82235 15.6593 5.76764 15.6922 5.76764ZM15.5061 6.46786C15.528 6.46786 15.528 6.52257 15.5061 6.52257C15.4732 6.52257 15.4732 6.46786 15.5061 6.46786ZM16.1739 14.411C16.141 14.411 16.141 14.3563 16.1739 14.3563C16.1958 14.3563 16.1958 14.411 16.1739 14.411ZM16.7651 14.3781C16.787 14.3781 16.776 14.3234 16.7541 14.3234C16.7213 14.3234 16.7322 14.3781 16.7651 14.3781ZM7.40471 10.7348C7.37186 10.7348 7.37186 10.6801 7.40471 10.6801C7.4266 10.6801 7.4266 10.7348 7.40471 10.7348ZM16.2943 5.87705C16.2615 5.87705 16.2615 5.93176 16.2943 5.93176C16.3162 5.93176 16.3162 5.87705 16.2943 5.87705ZM13.0647 6.86173C13.0866 6.86173 13.0866 6.80703 13.0647 6.80703C13.0319 6.80703 13.0319 6.86173 13.0647 6.86173ZM17.4 16.0083C17.4219 16.0083 17.4219 16.063 17.4 16.063C17.3672 16.063 17.3672 16.0083 17.4 16.0083ZM16.9183 14.6845C16.9402 14.6845 16.9402 14.6298 16.9183 14.6298C16.8855 14.6298 16.8855 14.6845 16.9183 14.6845ZM14.8054 16.063C14.7726 16.063 14.7726 16.1178 14.8054 16.1178C14.8273 16.1178 14.8273 16.063 14.8054 16.063ZM16.2505 6.77421C16.2177 6.77421 16.2286 6.82891 16.2615 6.82891C16.2834 6.82891 16.2724 6.77421 16.2505 6.77421ZM16.2396 6.54445C16.2067 6.54445 16.2067 6.59915 16.2396 6.59915C16.2615 6.59915 16.2615 6.54445 16.2396 6.54445ZM15.7907 15.9208C15.8126 15.9208 15.8236 15.9755 15.8017 15.9755C15.7688 15.9755 15.7579 15.9208 15.7907 15.9208ZM16.4804 5.10025C16.5023 5.10025 16.5023 5.04554 16.4804 5.04554C16.4476 5.04554 16.4476 5.10025 16.4804 5.10025ZM14.3456 6.19434C14.3675 6.19434 14.3675 6.24904 14.3456 6.24904C14.3128 6.24904 14.3128 6.19434 14.3456 6.19434ZM16.984 15.9099C16.9512 15.9099 16.9512 15.8552 16.984 15.8552C17.0059 15.8552 17.0059 15.9099 16.984 15.9099ZM16.9731 15.7129C16.9402 15.7129 16.9402 15.6582 16.9731 15.6582C16.995 15.6582 16.995 15.7129 16.9731 15.7129ZM17.0825 15.9318C17.0497 15.9318 17.0388 15.8771 17.0716 15.8771C17.0935 15.8771 17.1044 15.9318 17.0825 15.9318ZM16.0097 14.597C16.0316 14.586 16.0316 14.6407 16.0097 14.6517C15.9768 14.6517 15.9768 14.597 16.0097 14.597ZM15.5827 13.656C15.6046 13.6451 15.6046 13.6998 15.5827 13.7108C15.5499 13.7108 15.5499 13.656 15.5827 13.656ZM14.8273 6.39127C14.8711 6.39127 14.882 6.44598 14.8383 6.44598C14.8273 6.44598 14.8164 6.39127 14.8273 6.39127ZM16.0316 15.7458C16.0316 15.7676 16.0316 15.7895 16.0206 15.7895C15.9878 15.7895 15.9768 15.7348 16.0097 15.7348C16.0206 15.7348 16.0206 15.7458 16.0316 15.7458ZM15.0463 13.0324L14.9915 12.9996C15.0134 12.9996 15.0244 12.9886 15.0353 12.9777L15.0463 12.9996L15.0791 13.0324H15.0463ZM13.8311 11.6867C13.8748 11.6867 13.8748 11.7414 13.8311 11.7414C13.8201 11.7414 13.8201 11.6867 13.8311 11.6867ZM15.8673 6.10681C15.8564 6.10681 15.8564 6.16152 15.8673 6.16152C15.9111 6.16152 15.9111 6.10681 15.8673 6.10681ZM16.349 14.8924C16.3381 14.8924 16.3381 14.8377 16.349 14.8377C16.3928 14.8377 16.3928 14.8924 16.349 14.8924ZM17.4548 15.9974C17.4438 15.9974 17.4438 15.9427 17.4548 15.9427C17.4986 15.9427 17.4986 15.9974 17.4548 15.9974ZM13.5245 6.75233C13.5245 6.78515 13.4917 6.80703 13.4479 6.83985C13.4479 6.80703 13.4917 6.78515 13.5245 6.75233ZM13.9186 15.2425C13.9077 15.2425 13.9077 15.2972 13.9186 15.2972C13.9624 15.2972 13.9624 15.2425 13.9186 15.2425ZM16.4366 14.8814C16.4257 14.8814 16.4257 14.8267 16.4366 14.8267C16.4804 14.8267 16.4804 14.8814 16.4366 14.8814ZM13.2508 7.55101C13.218 7.56195 13.218 7.50725 13.2508 7.49631C13.2727 7.49631 13.2727 7.55101 13.2508 7.55101ZM17.411 15.0127C17.4548 15.0018 17.4548 14.9471 17.411 14.958C17.4 14.958 17.4 15.0127 17.411 15.0127ZM15.0025 12.6057C14.9806 12.6057 14.9806 12.6495 15.0025 12.6495C15.0572 12.6495 15.0353 12.6057 15.0025 12.6057ZM15.9878 6.62103C16.0316 6.61009 16.0316 6.6648 15.9878 6.67574C15.9768 6.67574 15.9768 6.62103 15.9878 6.62103ZM16.6884 15.1331C16.6775 15.0893 16.7322 15.0893 16.7432 15.1331C16.7432 15.144 16.6884 15.144 16.6884 15.1331ZM17.3234 15.1878C17.3562 15.1878 17.3562 15.144 17.3234 15.144C17.2906 15.144 17.2906 15.1878 17.3234 15.1878ZM17.1373 16.0302C17.1044 16.0302 17.1044 15.9865 17.1373 15.9865C17.1701 15.9865 17.1701 16.0302 17.1373 16.0302ZM16.0863 5.33001C16.1301 5.33001 16.1301 5.33001 16.1301 5.29718C16.1301 5.26436 16.0535 5.33001 16.0863 5.33001ZM17.5861 16.8508C17.5861 16.8617 17.5314 16.8508 17.5314 16.8399C17.5424 16.807 17.5971 16.807 17.5861 16.8508ZM12.9114 7.1462C12.9443 7.1462 12.9443 7.10243 12.9114 7.10243C12.8786 7.10243 12.8786 7.1462 12.9114 7.1462ZM16.9183 15.1331L16.9621 15.0784V15.1221L16.9183 15.1659V15.1331ZM16.5899 14.4219C16.5899 14.3891 16.5461 14.3891 16.5461 14.4219C16.5461 14.4547 16.5899 14.4547 16.5899 14.4219ZM16.5023 4.4985C16.5352 4.48755 16.5352 4.44379 16.5023 4.45473C16.4695 4.45473 16.4695 4.4985 16.5023 4.4985ZM16.3928 14.3234C16.4038 14.3125 16.4038 14.2469 16.3928 14.2578C16.36 14.2578 16.36 14.3234 16.3928 14.3234ZM17.0278 14.586V14.6188L17.0606 14.6517H17.0935L17.0278 14.586ZM16.2177 14.7611V14.7939H16.1629C16.1629 14.7611 16.1958 14.7611 16.2177 14.7611ZM14.8711 12.737L14.9039 12.7808H14.9368C14.9368 12.7698 14.9149 12.7479 14.9039 12.737H14.8711ZM15.0791 15.0127C15.0463 15.0127 15.0353 14.958 15.0682 14.958C15.0791 14.958 15.09 15.0127 15.0791 15.0127ZM16.4695 15.6801C16.4804 15.6801 16.4914 15.7348 16.4804 15.7348C16.4476 15.7348 16.4366 15.6801 16.4695 15.6801ZM16.0316 16.1396C16.0535 16.1287 16.0644 16.1725 16.0425 16.1834C16.0097 16.1834 15.9987 16.1396 16.0316 16.1396ZM17.4986 15.2753C17.4657 15.2753 17.4767 15.33 17.5095 15.33C17.5205 15.33 17.5095 15.2753 17.4986 15.2753ZM15.933 6.01928C15.9002 6.01928 15.9111 6.07399 15.944 6.07399C15.9549 6.07399 15.944 6.01928 15.933 6.01928ZM15.8892 5.04554C15.9002 5.04554 15.8892 4.99084 15.8783 4.99084C15.8454 4.99084 15.8564 5.04554 15.8892 5.04554ZM13.9515 6.87267C13.9405 6.87267 13.9296 6.81797 13.9405 6.81797C13.9734 6.81797 13.9843 6.87267 13.9515 6.87267ZM15.7141 5.20965C15.6812 5.20965 15.6922 5.26436 15.725 5.26436C15.736 5.26436 15.725 5.20965 15.7141 5.20965ZM15.944 6.67574C15.9768 6.67574 15.9768 6.70856 15.944 6.70856C15.9002 6.70856 15.9002 6.67574 15.944 6.67574ZM15.8345 5.65823C15.8454 5.65823 15.8454 5.71294 15.8345 5.71294C15.8017 5.71294 15.8017 5.65823 15.8345 5.65823ZM7.30618 15.7895C7.30618 15.7786 7.31713 15.7786 7.32807 15.7676C7.33902 15.7676 7.33902 15.7786 7.34997 15.7786L7.29523 15.8442C7.30618 15.8333 7.30618 15.8005 7.30618 15.7895ZM12.6706 14.1703C12.6706 14.1374 12.7034 14.1374 12.7034 14.1703C12.7034 14.214 12.6706 14.214 12.6706 14.1703ZM15.736 13.9624C15.7579 13.9624 15.7688 14.0062 15.7469 14.0062C15.7141 14.0062 15.7031 13.9624 15.736 13.9624ZM16.3162 14.4657C16.3271 14.4657 16.3271 14.5204 16.3162 14.5204C16.2834 14.5204 16.2834 14.4657 16.3162 14.4657ZM7.47039 17.2228C7.43755 17.2228 7.4485 17.2666 7.45945 17.2775C7.49229 17.2775 7.48134 17.2228 7.47039 17.2228ZM15.8017 5.81141C15.8345 5.81141 15.8454 5.84423 15.8126 5.84423C15.7688 5.85517 15.7579 5.82235 15.8017 5.81141ZM16.7651 16.5992C16.7541 16.5992 16.7541 16.5444 16.7651 16.5444C16.7979 16.5444 16.7979 16.5992 16.7651 16.5992ZM14.8492 5.76764C14.882 5.76764 14.882 5.71294 14.8492 5.71294C14.8383 5.71294 14.8383 5.76764 14.8492 5.76764ZM16.2286 6.91644C16.2615 6.91644 16.2615 6.86173 16.2286 6.86173C16.2177 6.86173 16.2177 6.91644 16.2286 6.91644ZM13.7106 7.33219C13.6997 7.33219 13.6997 7.27749 13.7106 7.27749C13.7435 7.27749 13.7435 7.33219 13.7106 7.33219ZM16.1848 6.13963C16.1739 6.15057 16.1739 6.09587 16.1848 6.08493C16.2177 6.08493 16.2177 6.13963 16.1848 6.13963ZM13.9186 15.3738C13.9077 15.3738 13.9186 15.4175 13.9296 15.4175C13.9734 15.4175 13.9624 15.3738 13.9186 15.3738ZM6.10192 17.0806C6.09097 17.0915 6.10192 17.1243 6.11287 17.1353L6.13477 17.1134C6.13477 17.0915 6.12382 17.0806 6.10192 17.0806ZM17.0059 16.7304C16.984 16.7304 16.9731 16.6976 16.984 16.6757L17.0278 16.7086C17.0169 16.7195 17.0169 16.7304 17.0059 16.7304ZM16.9074 16.0849V16.1068C16.8964 16.1068 16.8855 16.0959 16.8745 16.0959V16.0849C16.8745 16.0412 16.9074 16.0412 16.9074 16.0849ZM13.9405 6.87267C13.9515 6.87267 13.9515 6.91644 13.9405 6.91644C13.8967 6.91644 13.8967 6.87267 13.9405 6.87267ZM13.842 6.78515C13.853 6.78515 13.853 6.82891 13.842 6.82891C13.7982 6.83985 13.7982 6.79609 13.842 6.78515ZM16.1191 4.92519C16.152 4.91425 16.152 4.85955 16.1191 4.87049C16.1082 4.87049 16.1082 4.92519 16.1191 4.92519ZM17.5971 15.4175L17.608 15.4504L17.6518 15.4394L17.5971 15.3957V15.4175ZM16.152 15.2097C16.1301 15.2097 16.1301 15.1659 16.152 15.1659C16.1848 15.1659 16.1848 15.2097 16.152 15.2097ZM15.0572 7.31031C15.0572 7.28843 15.101 7.28843 15.101 7.31031C15.101 7.34314 15.0572 7.34314 15.0572 7.31031ZM13.6121 15.0893C13.5793 15.0893 13.5793 15.1331 13.6121 15.1331C13.634 15.1331 13.634 15.0893 13.6121 15.0893ZM6.72595 17.365V17.4088C6.73689 17.4088 6.74784 17.3978 6.75879 17.3978V17.3541C6.74784 17.365 6.73689 17.365 6.72595 17.365ZM14.8492 12.6932C14.8711 12.6932 14.8711 12.6495 14.8492 12.6495C14.8164 12.6495 14.8164 12.6932 14.8492 12.6932ZM17.0497 14.9361C17.0497 14.969 17.0825 14.969 17.0825 14.9361C17.0716 14.8924 17.0388 14.8924 17.0497 14.9361ZM14.1376 11.8289C14.1485 11.818 14.1485 11.7742 14.1376 11.7851C14.0938 11.7851 14.0938 11.8289 14.1376 11.8289ZM16.141 6.29281C16.1082 6.29281 16.1082 6.32563 16.141 6.32563C16.1848 6.31469 16.1848 6.28187 16.141 6.29281ZM15.2214 6.10681L15.1667 6.17246V6.15057C15.1667 6.13963 15.1776 6.12869 15.1886 6.10681H15.2214ZM16.5789 15.0565C16.5789 15.0674 16.5352 15.0674 16.5352 15.0565C16.5352 15.0127 16.5789 15.0127 16.5789 15.0565ZM15.0244 5.84423C15.0353 5.84423 15.0353 5.88799 15.0244 5.88799C14.9806 5.88799 14.9806 5.85517 15.0244 5.84423ZM6.22235 17.1243V17.0696C6.17856 17.0806 6.17856 17.1353 6.22235 17.1243ZM17.4986 15.0018C17.4876 15.0018 17.4876 15.0455 17.4986 15.0455C17.5424 15.0455 17.5424 15.0018 17.4986 15.0018ZM12.6487 14.1265C12.6706 14.1265 12.6706 14.1703 12.6487 14.1703C12.6159 14.1812 12.6159 14.1374 12.6487 14.1265ZM17.7504 15.5269C17.7394 15.4941 17.6956 15.4941 17.7066 15.5269C17.7066 15.5488 17.7504 15.5488 17.7504 15.5269ZM16.6118 15.4722L16.5571 15.4175H16.6008C16.6008 15.4285 16.6118 15.4394 16.6118 15.4504V15.4722ZM13.9624 15.33L13.9953 15.3738V15.33L13.9624 15.2972V15.33ZM6.34277 17.8027C6.35372 17.8136 6.38656 17.7917 6.38656 17.7698C6.36467 17.7589 6.34277 17.7698 6.34277 17.8027ZM14.0719 6.48974C14.0719 6.52257 14.1047 6.52257 14.1047 6.48974C14.0938 6.45692 14.061 6.45692 14.0719 6.48974ZM15.4185 4.87049C15.4075 4.83766 15.3747 4.83766 15.3856 4.87049C15.3856 4.90331 15.4185 4.90331 15.4185 4.87049ZM15.4075 6.87267C15.4404 6.87267 15.4404 6.9055 15.4075 6.9055C15.3747 6.91644 15.3747 6.88362 15.4075 6.87267ZM16.2724 5.14401L16.1739 5.25342H16.1958L16.2724 5.14401ZM13.7654 7.00397V6.97114C13.7654 6.9602 13.7982 6.92738 13.8092 6.91644V6.92738L13.7654 7.00397ZM12.8676 7.32125C12.8895 7.32125 12.8786 7.28843 12.8567 7.28843C12.8239 7.29937 12.8348 7.33219 12.8676 7.32125ZM13.7873 7.18996C13.7873 7.23373 13.7873 7.23373 13.7763 7.23373C13.7325 7.23373 13.7873 7.15714 13.7873 7.18996ZM16.6665 15.0565C16.6665 15.0893 16.6227 15.0893 16.6227 15.0565C16.6227 15.0455 16.6665 15.0455 16.6665 15.0565ZM15.7579 5.89893C15.7688 5.89893 15.7688 5.9427 15.7579 5.9427C15.725 5.9427 15.725 5.89893 15.7579 5.89893ZM16.5023 16.2381C16.4695 16.2381 16.4695 16.2053 16.4914 16.1943L16.5133 16.2162C16.5133 16.2272 16.5133 16.2381 16.5023 16.2381ZM16.3928 14.783C16.3928 14.7501 16.4257 14.7392 16.4257 14.772C16.4257 14.7939 16.3928 14.8048 16.3928 14.783ZM6.24424 17.3103V17.3431C6.26614 17.3431 6.27709 17.3213 6.27709 17.2994C6.26614 17.2884 6.26614 17.2994 6.24424 17.3103ZM16.2943 6.56633C16.3271 6.56633 16.3271 6.56633 16.3271 6.54445C16.3271 6.51162 16.2615 6.56633 16.2943 6.56633ZM16.1958 4.7939C16.2286 4.7939 16.2286 4.7939 16.2286 4.77202C16.2286 4.7392 16.1629 4.7939 16.1958 4.7939ZM7.86451 15.9536C7.88641 15.9536 7.89736 15.9865 7.87546 15.9865C7.84262 15.9865 7.83167 15.9536 7.86451 15.9536ZM16.6337 16.3256C16.6337 16.3366 16.6446 16.3475 16.6556 16.3585V16.3803C16.6227 16.3803 16.6118 16.3475 16.6337 16.3256ZM17.608 15.6254L17.6628 15.6145C17.6628 15.6364 17.619 15.6473 17.608 15.6473V15.6254ZM14.7397 16.0302C14.7178 16.0302 14.7178 16.063 14.7397 16.063C14.7726 16.063 14.7726 16.0302 14.7397 16.0302ZM15.6046 5.35189C15.6046 5.37377 15.6374 5.37377 15.6374 5.35189C15.6374 5.31906 15.6046 5.31906 15.6046 5.35189ZM16.7979 15.0893C16.7979 15.0565 16.8198 15.0455 16.8198 15.0784C16.8307 15.1221 16.8089 15.1331 16.7979 15.0893ZM16.6665 16.0083C16.6556 15.9974 16.6446 15.9865 16.6337 15.9865C16.6337 15.9755 16.6337 15.9646 16.6446 15.9646C16.6665 15.9536 16.6775 15.9865 16.6665 16.0083ZM13.9296 6.53351C13.9624 6.53351 13.9624 6.53351 13.9624 6.50068C13.9515 6.46786 13.9186 6.53351 13.9296 6.53351ZM16.787 14.4985C16.7651 14.4985 16.7651 14.5313 16.787 14.5313C16.8198 14.5204 16.8198 14.4876 16.787 14.4985ZM15.8126 14.2797C15.8126 14.2578 15.8454 14.2578 15.8454 14.2797C15.8454 14.3125 15.8126 14.3125 15.8126 14.2797ZM15.09 6.40222C15.09 6.43504 15.0572 6.43504 15.0572 6.40222C15.0572 6.38033 15.09 6.38033 15.09 6.40222ZM16.0316 13.4482C15.9987 13.4482 15.9987 13.481 16.0316 13.481C16.0535 13.481 16.0535 13.4482 16.0316 13.4482ZM16.6994 6.43504C16.7213 6.43504 16.7213 6.40222 16.6994 6.40222C16.6665 6.40222 16.6665 6.43504 16.6994 6.43504ZM15.6484 13.8749L15.6812 13.9077H15.6484L15.6155 13.8749H15.6484ZM16.9402 15.5926H16.8855C16.8855 15.5707 16.9183 15.5707 16.9402 15.5707V15.5926ZM17.6299 15.9646C17.6409 15.9536 17.6409 15.9974 17.6299 16.0083C17.5971 16.0083 17.5971 15.9646 17.6299 15.9646ZM8.69655 16.9383C8.67465 16.9602 8.69655 16.9821 8.70749 16.9821C8.70749 16.9711 8.71844 16.9602 8.72939 16.9493C8.70749 16.9493 8.70749 16.9274 8.69655 16.9383ZM16.0644 7.10243C16.0644 7.11338 16.0972 7.11338 16.0972 7.10243C16.0972 7.05867 16.0644 7.05867 16.0644 7.10243ZM17.0716 14.8048C17.0716 14.8486 17.1044 14.8486 17.1044 14.8048C17.1044 14.7939 17.0716 14.7939 17.0716 14.8048ZM16.5571 4.89237C16.5789 4.89237 16.5789 4.85955 16.5571 4.85955C16.5242 4.87049 16.5242 4.90331 16.5571 4.89237ZM13.7654 6.83985C13.7544 6.83985 13.7544 6.79609 13.7654 6.79609C13.7982 6.79609 13.7982 6.83985 13.7654 6.83985ZM13.5574 7.2009C13.5464 7.2009 13.5464 7.16808 13.5574 7.16808C13.6012 7.16808 13.6012 7.2009 13.5574 7.2009ZM15.0463 12.7151C15.0463 12.6823 15.0025 12.6823 15.0025 12.7151C15.0025 12.7261 15.0463 12.7261 15.0463 12.7151ZM16.5133 15.144C16.5461 15.144 16.5461 15.1878 16.5133 15.1878C16.5023 15.1878 16.5023 15.144 16.5133 15.144ZM16.4476 14.969C16.4585 14.969 16.4804 14.9908 16.4914 15.0018H16.4476L16.4366 14.969H16.4476ZM16.5133 5.68011C16.5352 5.68011 16.5352 5.68011 16.5352 5.63635C16.5352 5.62541 16.4804 5.68011 16.5133 5.68011ZM6.38656 17.0368C6.35372 17.0368 6.36467 17.0696 6.37562 17.0806C6.39751 17.0806 6.39751 17.0477 6.38656 17.0368ZM16.2286 5.47224C16.2286 5.4613 16.1848 5.516 16.1958 5.516C16.2286 5.516 16.2286 5.516 16.2286 5.47224ZM16.3381 5.08931C16.36 5.07836 16.36 5.04554 16.3381 5.05648C16.3053 5.05648 16.3053 5.08931 16.3381 5.08931ZM16.3053 14.9361L16.3162 14.9799H16.2724L16.3053 14.9361ZM16.7103 4.66261C16.7103 4.62979 16.6884 4.62979 16.6884 4.66261C16.6884 4.70637 16.7103 4.70637 16.7103 4.66261ZM7.38281 17.4963C7.39376 17.4963 7.39376 17.4963 7.39376 17.5072C7.39376 17.5072 7.40471 17.5072 7.41566 17.4963C7.4266 17.4635 7.38281 17.4525 7.38281 17.4963ZM16.5461 15.2753C16.5899 15.2753 16.5899 15.2972 16.5461 15.2972C16.5133 15.2972 16.5133 15.2753 16.5461 15.2753ZM14.1923 15.4066C14.1595 15.4066 14.1595 15.4285 14.1923 15.4285C14.2361 15.4285 14.2361 15.4066 14.1923 15.4066ZM16.6884 14.3016C16.6884 14.2906 16.6775 14.2797 16.6665 14.2687H16.6337L16.6665 14.3016H16.6884ZM16.9731 15.3081C16.984 15.3409 16.984 15.3409 16.9621 15.3409C16.9293 15.3409 16.9731 15.2753 16.9731 15.3081ZM6.4413 16.9493C6.45225 16.9821 6.4413 16.9711 6.4413 17.004C6.47415 16.993 6.47415 16.9383 6.4413 16.9493ZM8.59802 16.7742C8.57612 16.7851 8.57612 16.7961 8.57612 16.818C8.60896 16.818 8.60896 16.7851 8.59802 16.7742ZM15.2433 7.05867C15.2324 7.01491 15.2652 7.01491 15.2762 7.05867C15.2762 7.06961 15.2433 7.06961 15.2433 7.05867ZM12.6159 14.2359C12.6159 14.225 12.6487 14.214 12.6487 14.225C12.6596 14.2578 12.6268 14.2687 12.6159 14.2359ZM15.7031 6.45692L15.6922 6.40222H15.725L15.7031 6.45692ZM17.0169 15.4285H16.9621L16.984 15.3957L17.0169 15.4285ZM16.6227 4.75014C16.6556 4.75014 16.6556 4.75014 16.6556 4.71731C16.6556 4.70637 16.6008 4.75014 16.6227 4.75014ZM15.3309 6.07399L15.309 6.10681L15.2762 6.07399H15.3309ZM8.44475 17.0587H8.48854V17.0368C8.45569 17.0368 8.44475 17.0368 8.44475 17.0587ZM17.7723 15.2972L17.7394 15.2644V15.2972L17.7832 15.3191L17.7723 15.2972ZM16.349 5.93176L16.3162 5.9974L16.3819 5.92081L16.349 5.93176ZM16.4257 14.9143C16.4257 14.9252 16.3928 14.9361 16.3928 14.9252C16.3928 14.8924 16.4257 14.8814 16.4257 14.9143ZM14.3565 10.0893C14.3347 10.1112 14.3128 10.1112 14.3018 10.1112L14.3237 10.0784C14.3347 10.0893 14.3456 10.0893 14.3565 10.0893ZM14.5974 6.13963C14.6302 6.13963 14.6302 6.13963 14.6302 6.10681C14.6302 6.08493 14.5755 6.15057 14.5974 6.13963ZM16.5789 5.23154C16.6008 5.23154 16.6008 5.23154 16.6008 5.20965C16.5899 5.17683 16.5461 5.24248 16.5789 5.23154ZM13.6559 7.36502L13.6449 7.41972L13.6121 7.43066L13.6559 7.36502ZM15.4404 5.41753C15.4513 5.45036 15.4732 5.45036 15.4623 5.41753C15.4623 5.38471 15.4404 5.38471 15.4404 5.41753ZM13.4479 14.8486C13.4369 14.8158 13.415 14.8267 13.426 14.8595C13.426 14.8814 13.4479 14.8705 13.4479 14.8486ZM14.4989 5.97552C14.4989 6.00834 14.4989 6.00834 14.477 6.00834C14.4441 6.00834 14.4989 5.96458 14.4989 5.97552ZM16.787 14.8158C16.787 14.8267 16.7541 14.8267 16.7541 14.8158C16.7541 14.783 16.787 14.783 16.787 14.8158ZM13.1304 6.94926C13.1304 6.91644 13.0976 6.91644 13.0976 6.94926C13.0976 6.9602 13.1304 6.9602 13.1304 6.94926ZM16.1958 14.8486C16.1958 14.8595 16.1629 14.8595 16.1629 14.8486C16.1629 14.8158 16.1958 14.8158 16.1958 14.8486ZM15.3856 5.50506C15.3856 5.516 15.4185 5.516 15.4185 5.50506C15.4185 5.47224 15.3856 5.47224 15.3856 5.50506ZM13.4588 7.24467C13.4588 7.25561 13.4588 7.25561 13.426 7.25561C13.4041 7.26655 13.4588 7.2009 13.4588 7.24467ZM6.47415 16.26C6.45225 16.26 6.4413 16.2709 6.45225 16.2928C6.48509 16.2928 6.47415 16.2709 6.47415 16.26ZM17.1592 15.33C17.192 15.33 17.192 15.3519 17.1592 15.3519C17.1373 15.3519 17.1373 15.33 17.1592 15.33ZM16.3053 16.446C16.2834 16.446 16.2834 16.4241 16.3053 16.4241C16.3381 16.4241 16.3381 16.446 16.3053 16.446ZM14.4879 14.7939C14.4879 14.8158 14.4879 14.8267 14.5208 14.8377C14.4879 14.8486 14.477 14.8158 14.4551 14.8048C14.4551 14.8048 14.466 14.8048 14.4879 14.7939ZM15.4842 15.8771C15.4732 15.8771 15.4623 15.8661 15.4513 15.8552C15.4623 15.8552 15.4732 15.8442 15.4842 15.8442C15.4951 15.8442 15.4951 15.8771 15.4842 15.8771ZM17.0716 15.7895C17.0716 15.7567 17.0935 15.7567 17.0935 15.7895C17.0935 15.8114 17.0716 15.8114 17.0716 15.7895ZM15.309 5.84423C15.309 5.87705 15.2762 5.87705 15.2762 5.84423C15.2652 5.83329 15.2981 5.83329 15.309 5.84423ZM15.5389 6.69762C15.5389 6.73044 15.517 6.73044 15.517 6.69762C15.517 6.67574 15.5389 6.67574 15.5389 6.69762ZM16.3381 16.4788C16.349 16.4788 16.349 16.5116 16.3381 16.5116C16.3053 16.5116 16.3053 16.4788 16.3381 16.4788ZM16.8964 16.7304C16.8855 16.7086 16.9074 16.7086 16.9183 16.7304C16.9183 16.7633 16.8964 16.7633 16.8964 16.7304ZM14.6083 12.5729V12.562L14.6302 12.5729V12.6167C14.6193 12.6057 14.6083 12.5838 14.6083 12.5729ZM16.4366 16.5663C16.4476 16.5663 16.4476 16.5992 16.4366 16.5992C16.4038 16.5992 16.4038 16.5663 16.4366 16.5663ZM16.4585 14.3672H16.5023L16.4476 14.3344L16.4585 14.3672ZM15.933 13.9515C15.933 13.9624 15.933 13.9733 15.944 13.9843L15.8892 13.9624L15.933 13.9515ZM15.528 15.8989H15.5718V15.9318L15.528 15.8989ZM12.375 13.9733V13.9296L12.4078 13.9733H12.375ZM15.32 6.92738C15.3309 6.92738 15.3418 6.91644 15.3528 6.91644L15.32 6.97114V6.92738ZM17.0716 15.33H17.1044V15.3519H17.0716V15.33ZM17.3672 16.0083C17.3672 16.0193 17.3672 16.0193 17.3343 16.0193C17.3124 16.0193 17.3672 15.9755 17.3672 16.0083ZM13.7544 6.77421C13.7654 6.77421 13.7654 6.79609 13.7544 6.79609C13.7106 6.79609 13.7106 6.77421 13.7544 6.77421ZM16.9512 15.2097C16.9512 15.1659 16.9731 15.1659 16.9731 15.2097C16.9731 15.2206 16.9512 15.2206 16.9512 15.2097ZM17.3453 15.0127C17.3453 15.0237 17.3672 15.0237 17.3672 15.0127C17.3672 14.969 17.3453 14.969 17.3453 15.0127ZM7.89736 16.0083H7.90831C7.89736 16.0193 7.88641 16.0412 7.88641 16.063C7.87546 16.0412 7.87546 16.0083 7.89736 16.0083ZM16.6118 16.5007H16.5789V16.4679L16.6118 16.5007ZM13.8748 6.58821V6.55539L13.842 6.61009L13.8748 6.58821ZM7.97399 16.4022L8.00684 16.435V16.4022H7.97399ZM13.2508 7.17902L13.2837 7.21184H13.2508V7.17902ZM13.8748 15.2425H13.9077L13.8748 15.2097V15.2425ZM15.6593 5.63635L15.6265 5.66917H15.6593V5.63635ZM15.8235 16.0083V15.9755L15.8564 15.9974L15.8235 16.0083ZM7.1967 16.0193C7.18575 16.0193 7.18575 15.9865 7.1967 15.9865H7.2186L7.1967 16.0193ZM15.1557 5.61447C15.1557 5.58165 15.1338 5.58165 15.1338 5.61447C15.1338 5.62541 15.1557 5.62541 15.1557 5.61447ZM15.944 16.1396V16.0959L15.9659 16.1396H15.944ZM12.583 14.225L12.5611 14.1812H12.583V14.225ZM15.4732 7.04773L15.4404 7.00397L15.4513 7.04773H15.4732ZM16.3381 14.7501C16.3271 14.7173 16.3381 14.7173 16.349 14.7501C16.349 14.783 16.3381 14.783 16.3381 14.7501ZM14.8054 9.52038C14.7835 9.52038 14.7726 9.50944 14.7726 9.4985C14.7835 9.50944 14.8054 9.50944 14.8164 9.50944C14.8164 9.50944 14.8164 9.52038 14.8054 9.52038ZM15.7907 6.35845C15.7907 6.39127 15.7798 6.40222 15.7798 6.36939C15.7798 6.34751 15.7907 6.33657 15.7907 6.35845ZM16.4147 14.6845C16.4147 14.6517 16.4257 14.6517 16.4257 14.6845C16.4257 14.7064 16.4147 14.7064 16.4147 14.6845ZM16.3053 14.2359C16.3053 14.2578 16.3162 14.2578 16.3162 14.2359C16.3162 14.2031 16.3053 14.2031 16.3053 14.2359ZM16.3819 5.54882C16.4147 5.54882 16.4147 5.53788 16.3819 5.53788C16.36 5.53788 16.36 5.54882 16.3819 5.54882ZM15.3637 7.67136V7.70419H15.3418L15.3637 7.67136ZM16.0097 13.656V13.6779H16.0425L16.0097 13.656ZM13.9734 15.4394H14.0062L13.9734 15.4175V15.4394ZM7.88641 16.3256V16.3585H7.90831L7.88641 16.3256ZM15.1338 5.20965L15.1119 5.24248H15.1338V5.20965ZM17.0388 15.7348L16.995 15.7129H17.0278L17.0388 15.7348ZM16.1848 14.6188V14.586L16.2067 14.6188H16.1848ZM15.3418 6.30375V6.28187H15.3747L15.3418 6.30375ZM13.1961 7.26655C13.2289 7.25561 13.2289 7.26655 13.1961 7.27749C13.1742 7.27749 13.1742 7.26655 13.1961 7.26655ZM16.1739 4.85955V4.88143L16.2067 4.85955H16.1739ZM16.3053 14.3453C16.3162 14.3781 16.3271 14.3781 16.3162 14.3453C16.3162 14.3234 16.3053 14.3234 16.3053 14.3453ZM5.74065 16.3475V16.3147H5.71875L5.74065 16.3475ZM19.0094 19.2797C19.0203 19.2906 19.0312 19.3016 19.0312 19.3125V19.2797H19.0094ZM15.736 5.31906H15.725L15.6922 5.37377L15.736 5.31906ZM13.7873 14.2687C13.7873 14.2687 13.7982 14.2687 13.8092 14.2578V14.2687C13.8092 14.2906 13.7982 14.2797 13.7873 14.2687ZM17.3672 15.4066H17.3891L17.3672 15.4285V15.4066ZM13.8639 14.9361C13.8639 14.958 13.8748 14.969 13.8858 14.969L13.8639 14.9361ZM14.4989 6.32563C14.4879 6.32563 14.477 6.33657 14.477 6.34751L14.5098 6.32563H14.4989ZM12.4626 14.0062L12.4297 13.9952H12.4626V14.0062ZM15.0463 8.22935V8.21841C15.0353 8.21841 15.0244 8.22935 15.0134 8.22935H15.0463ZM7.2186 15.9318C7.20765 15.9318 7.20765 15.9427 7.1967 15.9427C7.1967 15.9427 7.1967 15.9318 7.20765 15.9208C7.20765 15.9208 7.20765 15.9318 7.2186 15.9318ZM15.8126 5.16589L15.8017 5.19871H15.8126V5.16589ZM17.1592 14.8814H17.1263L17.1592 14.8924V14.8814ZM16.7651 16.0521C16.776 16.0521 16.776 16.0521 16.787 16.063C16.776 16.063 16.7651 16.0521 16.7541 16.0521H16.7651ZM18.9984 19.2578V19.2469H18.9875L18.9984 19.2578ZM15.6812 16.0193L15.6922 16.0302H15.6812V16.0193ZM7.1967 16.0302L7.18575 16.0412V16.0302H7.1967ZM15.944 6.15057C15.9549 6.13963 15.9549 6.12869 15.9549 6.12869L15.944 6.15057ZM10.8642 14.0609C10.8642 14.0609 10.8642 14.0499 10.8752 14.0499L10.8642 14.0609ZM15.5827 15.9536L15.5936 15.9646C15.5827 15.9646 15.5827 15.9536 15.5827 15.9536ZM16.6556 16.8946V16.9055V16.8946ZM13.5026 14.7501C13.5026 14.7611 13.5136 14.7611 13.5136 14.772C13.5026 14.7611 13.5026 14.7611 13.5026 14.7501ZM16.2615 5.96458C16.2615 5.97552 16.2615 5.97552 16.2505 5.97552L16.2615 5.96458Z" fill="#060606"/>
</svg>
