<svg width="141" height="32" viewBox="0 0 141 32" fill="none" xmlns="http://www.w3.org/2000/svg">
<path d="M129.065 20.6223C128.99 20.6412 129.009 20.7169 129.084 20.698C129.009 20.7169 129.009 20.8115 129.084 20.7926H129.103C129.084 20.8115 129.103 20.8493 129.141 20.8493C129.141 20.8872 129.16 20.925 129.16 20.925C129.198 20.925 129.217 20.9061 129.217 20.8872C129.236 20.8682 129.274 20.8682 129.292 20.8872C129.33 20.8872 129.368 20.8872 129.368 20.9439C129.425 20.9439 129.444 20.9818 129.463 21.0007C129.557 21.0764 129.576 21.1899 129.614 21.3035L129.595 21.3224C129.595 21.3224 129.633 21.3981 129.709 21.4548C129.766 21.6441 129.879 21.7387 130.03 21.8333C130.068 21.89 130.163 21.9657 130.239 22.0414L130.22 21.9847V21.9279C130.276 21.9657 130.333 22.0036 130.39 22.0603C130.409 22.0603 130.428 22.0414 130.428 22.0414C130.466 22.0793 130.485 22.136 130.522 22.155C130.541 22.155 130.56 22.155 130.579 22.136C130.712 22.2874 130.75 22.4956 130.863 22.628C130.958 22.7226 131.185 22.8551 131.279 23.0065C131.393 23.1578 131.601 23.2146 131.715 23.366C131.752 23.3092 131.771 23.3849 131.809 23.366C131.809 23.3849 131.809 23.4227 131.828 23.4227L131.979 23.4795C131.942 23.4606 131.923 23.4227 131.904 23.4038C132.188 23.593 132.453 23.8201 132.736 24.0283C133.474 24.6527 134.193 25.3717 134.931 26.0151C134.912 25.9583 134.912 25.9205 134.95 25.9016C135.064 25.9962 135.234 26.2043 135.348 26.2232C135.045 25.9016 134.704 25.5988 134.591 25.2204C134.704 25.2393 134.761 25.2393 134.856 25.315C134.818 25.3339 134.799 25.3528 134.799 25.3907C134.875 25.3339 134.893 25.3907 134.912 25.4096C135.423 25.9772 135.953 26.5071 136.502 27.018C136.199 26.5449 135.726 26.2611 135.48 25.8069C135.934 26.2043 136.388 26.6017 136.805 27.0747L137.297 27.5856C137.297 27.5289 137.316 27.491 137.316 27.4532L136.805 26.9044C136.634 26.7341 136.426 26.5449 136.313 26.3746C136.161 26.1286 136.086 25.8826 135.84 25.7313C135.84 25.788 135.915 25.8637 135.877 25.9016C135.537 25.5799 135.121 25.2204 134.893 24.823C134.931 24.7851 134.988 24.9176 134.988 24.8419C134.875 24.7662 134.78 24.6148 134.704 24.4445C134.647 24.4445 134.704 24.5202 134.629 24.4824C134.42 24.1986 134.042 24.0472 133.891 23.6877C133.947 23.7066 134.004 23.7255 134.08 23.7255C134.174 23.7444 133.531 23.4984 133.626 23.2146C133.72 22.9875 133.758 23.3849 134.099 23.4606C134.231 23.4795 134.212 23.366 134.269 23.3092C134.799 23.8201 135.234 24.2364 135.423 24.3878V24.331C135.367 24.2364 135.291 24.2175 135.291 24.1229L135.31 24.0661C135.65 24.4635 136.313 25.4096 136.861 25.4663C136.805 25.4096 136.767 25.3717 136.767 25.296C136.786 25.2014 136.842 25.2204 136.937 25.2204C136.842 25.1636 136.786 25.1447 136.691 25.1447V25.2204C136.578 25.2014 136.445 25.1825 136.388 25.0501C136.445 25.0501 136.54 25.0501 136.559 24.9744C136.407 24.9744 136.313 24.9554 136.218 24.8041C136.275 24.7662 136.332 24.7662 136.369 24.7662C136.369 24.7095 136.369 24.7095 136.332 24.6527C136.275 24.6148 136.142 24.4445 136.104 24.4445C136.048 24.3878 135.972 24.3499 135.972 24.3499L135.896 24.3689L135.859 24.1796C135.764 24.2175 135.821 24.331 135.726 24.3689L135.385 23.9904V23.839C135.385 23.7444 135.48 23.7823 135.499 23.7823C135.48 23.9336 135.329 23.8958 135.613 24.0661L135.631 23.9526C135.631 23.7633 135.404 23.7444 135.404 23.593H135.385C135.385 23.5741 135.404 23.5363 135.404 23.5174C135.367 23.5363 135.348 23.4984 135.31 23.4795C135.291 23.4795 135.291 23.4795 135.272 23.4606H135.253V23.3849C135.083 23.3849 135.026 23.2146 134.95 23.12C134.78 22.8551 134.572 22.5902 134.326 22.382C134.307 22.3063 134.212 22.1928 134.023 21.9657C133.928 21.8711 134.685 22.4388 134.647 22.3631C134.496 22.1171 135.707 22.382 135.707 22.382L135.367 22.1171C135.442 22.0982 135.348 21.7954 135.348 21.7576V21.7008L135.253 21.7765V21.7197L135.121 21.8144H135.102C135.102 21.7008 135.139 21.6251 135.215 21.5684H135.196C135.121 21.5684 135.102 21.4738 135.177 21.4738C135.215 21.4738 135.234 21.5305 135.215 21.5494L135.329 21.4927L135.348 21.6062H135.423C135.423 21.6819 135.461 21.7387 135.518 21.8522H135.442L135.499 22.0793C135.594 22.0793 135.594 21.8522 135.575 21.7576C135.575 21.6062 135.518 21.5494 135.499 21.3981H135.556V21.3602H135.48L135.253 21.2656L135.177 21.3224C135.177 21.2278 135.102 21.2278 135.083 21.2278C134.95 21.2278 134.931 21.2278 134.931 21.3224L134.95 21.3791L134.931 21.417C134.931 21.417 134.837 21.3981 134.78 21.3413L134.723 21.2845L134.78 21.1899C134.78 21.2467 134.837 21.2467 134.875 21.2467L134.856 21.1332H134.912C134.931 21.1142 134.931 20.9818 134.931 20.925C134.931 20.925 134.912 20.8493 134.856 20.8493H134.818L134.799 20.698C134.799 20.698 134.893 20.7926 134.912 20.7736L135.045 20.7169C134.912 20.6033 134.799 20.6412 134.647 20.6412C134.647 20.5466 134.685 20.5466 134.666 20.4709C134.61 20.3763 134.553 20.3384 134.477 20.3384C134.477 20.3573 134.515 20.4898 134.591 20.4898C134.496 20.5655 134.439 20.6412 134.401 20.7169L134.345 20.6601L134.25 20.7169L134.193 20.7358H134.137C134.345 20.6412 134.439 20.5655 134.42 20.3384C134.326 20.3384 134.118 20.2817 134.08 20.2627L134.061 20.1114L133.853 20.1303V19.9978L133.966 19.9789V19.96C133.91 19.9032 133.815 19.8843 133.815 19.8843L133.607 19.9789C133.607 19.9789 133.588 19.9789 133.55 19.9978C133.645 19.96 133.588 19.8275 133.682 19.8275V19.7708C133.682 19.714 133.664 19.6572 133.645 19.6194C133.682 19.6005 133.664 19.5248 133.645 19.5248C133.607 19.5248 133.607 19.5437 133.607 19.5626C133.474 19.468 133.266 19.5248 133.247 19.2977L133.153 19.3734C133.001 19.3734 132.869 19.1653 132.85 19.0706L132.774 19.0896C132.774 18.995 132.831 18.8625 132.68 18.8814C132.68 18.8436 132.661 18.7868 132.755 18.7868C132.755 18.7679 132.717 18.6922 132.661 18.6922L132.566 18.7868C132.604 18.6922 132.509 18.6922 132.509 18.6165H132.604V18.5408H132.585C132.585 18.4651 132.642 18.4273 132.585 18.3138C132.453 18.257 132.377 18.3138 132.339 18.3894L132.301 18.4084L132.188 18.3327H132.301V18.257C132.244 18.2381 132.131 18.1056 132.131 18.1056L132.036 18.2002L131.923 18.1056L132.017 18.0488L131.979 17.9353C132.036 17.8975 132.074 17.8596 132.055 17.8029C132.036 17.6893 131.771 17.7082 131.809 17.8975C131.715 17.8596 131.355 17.5379 131.317 17.5001C131.26 17.4433 131.128 17.292 131.147 17.2352C131.166 17.2352 131.185 17.2541 131.204 17.2541H131.223C131.223 17.273 131.26 17.292 131.279 17.3298L131.298 17.3487L131.374 17.4433C131.355 17.4623 131.355 17.5001 131.374 17.5379C131.393 17.5569 131.45 17.5569 131.487 17.5379C131.544 17.5947 131.582 17.6136 131.582 17.5947C131.582 17.5758 131.563 17.5569 131.525 17.519C131.544 17.519 131.563 17.5001 131.582 17.4812C131.563 17.3676 131.469 17.3487 131.412 17.4055L131.374 17.3676C131.431 17.3487 131.469 17.2352 131.412 17.1973C131.355 17.1784 131.298 17.2163 131.279 17.273C131.26 17.2541 131.241 17.2541 131.241 17.2352C131.336 17.2163 131.336 17.1784 131.45 17.1406C131.487 17.1027 131.506 17.0649 131.525 17.027C131.525 17.0838 131.563 17.0838 131.563 17.027C131.563 17.0081 131.544 16.9892 131.544 16.9892V16.9514V16.9135C131.544 16.7054 131.298 16.5729 131.052 16.5918C131.033 16.6486 131.052 16.7054 131.052 16.7811H131.033C131.014 16.7432 130.977 16.7243 130.958 16.7054L131.052 16.5729C131.128 16.5729 131.147 16.5729 131.204 16.4972H131.128L131.071 16.5351C131.109 16.4594 131.128 16.3837 131.109 16.2891C130.939 16.2512 130.636 16.4215 130.56 16.6297L130.258 16.3648C130.295 16.3648 130.333 16.3458 130.352 16.308C130.39 16.308 130.39 16.2891 130.39 16.2702C130.409 16.2323 130.409 16.1945 130.409 16.1566H130.655C130.636 16.0052 130.39 16.0052 130.447 15.9106L130.144 15.6646C130.182 15.6079 130.163 15.5322 130.087 15.4565C130.03 15.4565 129.993 15.4754 129.955 15.4943C129.633 15.2105 129.255 14.9078 129.217 14.9456L128.744 14.4915L128.649 14.5104C128.517 14.5104 128.403 13.9616 128.157 14.1319L128.044 14.0184C128.592 13.2804 129.141 12.5425 129.652 11.8045C129.69 11.8045 129.747 11.7856 129.803 11.7288C129.784 11.6342 129.822 11.5585 129.803 11.4639C129.898 11.3315 129.974 11.2179 129.993 11.1422L129.728 11.4828C129.652 11.4828 129.595 11.4072 129.501 11.4828C129.444 11.5396 129.444 11.6721 129.52 11.7478C129.198 12.1073 128.895 12.4668 128.536 12.7317C128.555 12.5992 128.536 12.5425 128.668 12.3722C128.687 12.3911 128.725 12.3911 128.763 12.3722C128.687 12.3343 128.763 12.2776 128.801 12.2397L129.709 11.1044C129.784 11.1422 129.86 11.1422 129.898 11.1422C129.955 11.0476 129.936 10.953 129.898 10.8584L130.163 10.5367C130.163 10.6313 130.239 10.726 130.314 10.7827C130.258 10.8395 130.182 10.8963 130.163 10.953C130.239 10.8773 130.314 10.8206 130.352 10.8773C130.371 10.953 130.258 11.0476 130.22 11.1233C130.352 11.0098 130.466 10.8773 130.56 10.7638C130.598 10.726 130.636 10.6881 130.655 10.6313C130.844 10.3854 130.995 10.1583 131.166 9.9123C130.882 10.1394 130.806 10.3286 130.655 10.5367C130.636 10.48 130.598 10.4232 130.541 10.4043C130.806 10.1772 131.052 9.9123 131.166 9.66631L131.052 9.77984C131.052 9.68523 130.958 9.59062 130.863 9.60954L131.09 9.28787C130.579 9.77984 130.239 10.3286 129.822 10.8016C129.803 10.7827 129.766 10.7638 129.747 10.7638C129.974 10.4232 130.239 10.0826 130.485 9.742C130.522 9.742 130.541 9.72308 130.56 9.68523V9.66631L131.185 8.87158L131.639 8.28499C131.677 8.36068 131.79 8.39852 131.828 8.26607C131.828 8.24714 131.771 8.2093 131.733 8.19038L131.771 8.13361V8.2093C131.866 8.09577 132.074 7.94439 132.112 7.79301L131.79 8.11469C131.923 7.94439 132.055 7.77409 132.207 7.62271C132.207 7.64163 132.207 7.67948 132.225 7.67948C132.282 7.67948 132.301 7.60379 132.244 7.58487C132.32 7.49026 132.396 7.41457 132.471 7.3578C132.774 6.77121 133.323 6.22247 133.853 5.59804C134.307 5.08714 134.723 4.46271 135.177 3.89504L136.199 2.60833C136.294 2.4948 136.596 2.13528 136.464 2.28665C134.572 4.50055 132.698 6.79014 130.939 8.98511C130.939 8.98511 130.92 9.00403 130.92 9.02295C130.825 8.96619 130.768 8.96619 130.712 9.04188C130.712 9.11757 130.75 9.15541 130.806 9.15541L130.636 9.38248C130.617 9.36355 130.579 9.36355 130.56 9.38248C130.579 9.4014 130.579 9.42032 130.579 9.43924L130.504 9.55278C130.466 9.53385 130.428 9.53385 130.39 9.53385C130.333 9.59062 130.352 9.66631 130.39 9.70415L130.163 9.95014C129.955 10.1583 129.747 10.3286 129.576 10.4989C129.633 10.4043 129.671 10.2907 129.69 10.1583C129.766 9.62847 130.125 9.26894 130.504 8.92834C130.598 8.85265 130.731 8.75804 130.731 8.58774C130.693 8.56882 130.693 8.49313 130.75 8.49313C130.787 8.49313 130.806 8.49313 130.806 8.53098C130.825 8.49313 130.844 8.47421 130.825 8.43637H130.901V8.41744H130.882C130.882 8.41744 130.901 8.39852 130.92 8.39852C130.977 8.36068 130.995 8.28499 130.995 8.22822C131.014 8.2093 130.995 8.17146 130.977 8.15253C131.014 8.15253 131.09 8.09577 131.166 8.039C131.185 8.02008 131.204 8.02008 131.204 8.00116C131.26 8.09577 131.374 8.13361 131.469 8.039C131.469 7.98223 131.431 7.92547 131.355 7.8687C131.469 7.75517 131.563 7.66056 131.563 7.60379C131.544 7.50918 131.658 7.56595 131.733 7.41457H131.544L131.639 7.31996C131.79 7.26319 131.771 7.16858 131.866 7.09289L131.809 7.05505V6.99828L131.866 6.94151C131.961 6.90367 132.055 6.69552 132.055 6.69552L132.15 6.73337C132.15 6.6766 132.169 6.65768 132.244 6.58199C132.169 6.5063 132.169 6.52522 132.15 6.52522C132.131 6.37385 132.282 6.35493 132.434 6.35493L132.282 6.27924C132.301 6.10894 132.434 5.9954 132.528 5.88187C132.528 5.93864 132.585 5.93864 132.585 5.88187C132.585 5.86295 132.566 5.84403 132.547 5.86295C132.604 5.76834 132.661 5.69265 132.661 5.57912L132.415 5.80618C132.415 5.6548 132.49 5.4845 132.471 5.33313C132.32 5.35205 131.639 6.24139 131.582 6.41169H131.677C131.601 6.54415 131.26 6.73337 131.279 6.88475H131.412C131.317 6.94151 131.166 6.97936 131.071 6.99828V6.96043C131.052 6.80906 131.147 6.73337 131.26 6.73337C131.26 6.71445 131.204 6.63876 131.204 6.63876C131.26 6.63876 131.298 6.60091 131.355 6.52522C131.374 6.54415 131.374 6.56307 131.393 6.56307C131.431 6.56307 131.431 6.48738 131.412 6.44954C131.506 6.336 131.582 6.20355 131.658 6.14678L131.374 6.1657C131.658 6.12786 132.244 5.6548 132.225 5.35205C132.225 5.25744 132.017 5.27636 132.017 5.12498L131.998 5.06822C131.998 5.03037 132.282 4.65193 132.282 4.61408L132.188 4.65193V4.61408C132.169 4.38702 132.812 3.97073 132.793 3.70582L132.339 4.23564H132.32C132.32 4.25456 132.32 4.38702 132.263 4.38702H132.188L132.169 4.31133C132.32 4.23564 132.301 4.08426 132.301 3.93288V3.74366C132.244 3.83827 132.036 4.15995 131.961 4.15995L131.393 4.74654L131.336 4.76546C131.393 4.68977 131.658 4.42486 131.658 4.34917C131.658 4.29241 131.62 4.27348 131.563 4.27348C131.658 4.17887 132.074 3.6869 132.15 3.59228L132.282 3.44091C131.998 3.49767 131.752 3.8572 131.601 4.04642H131.544L131.582 3.97073L131.771 3.70582H131.733C131.733 3.70582 131.639 3.87612 131.601 3.81935L131.128 4.31133L131.014 4.33025C131.071 4.29241 131.298 4.06534 131.298 3.98965C131.298 3.91396 131.241 3.89504 131.204 3.89504C131.298 3.80043 131.374 3.66797 131.431 3.57336C131.279 3.6869 131.109 3.89504 131.071 4.14103L131.014 4.15995C130.977 4.15995 130.863 4.23564 130.825 4.31133V4.23564C130.674 4.25456 130.636 4.34917 130.636 4.48163C130.693 4.48163 130.693 4.53839 130.636 4.55732V4.48163C130.617 4.48163 130.617 4.55732 130.636 4.55732V4.63301C130.485 4.63301 130.541 4.65193 130.466 4.55732L130.522 4.40594V4.34917H130.447C130.466 4.55732 130.182 5.12498 129.879 5.1439C129.898 5.18175 129.955 5.18175 129.993 5.18175C129.974 5.25744 129.917 5.27636 129.879 5.29528C129.898 5.3142 129.898 5.38989 129.86 5.38989C129.822 5.38989 129.803 5.35205 129.822 5.33313C129.766 5.35205 129.728 5.38989 129.766 5.54127L129.709 5.4845L129.633 5.56019L129.671 5.61696V5.6548C129.576 5.74942 129.463 5.8251 129.387 5.90079L129.444 5.95756C129.387 6.10894 129.292 6.03325 129.198 6.03325V5.91972C129.103 5.91972 129.103 6.03325 128.99 6.05217H128.895L129.103 5.91972L128.971 5.84403L129.236 5.76834L129.274 5.8251H129.33L129.368 5.71157V5.6548L129.028 5.67373C129.028 5.67373 128.933 5.84403 128.876 5.78726L128.649 6.07109L128.63 5.86295L128.327 6.1657C128.346 6.10894 128.441 6.01433 128.441 5.95756V5.91972H128.422C128.422 5.76834 128.857 5.59804 128.706 5.44666L129.274 4.68977C129.198 4.72762 129.122 4.76546 129.084 4.82223C129.009 4.87899 128.952 4.95468 128.895 5.03037V5.04929L128.819 5.12498C128.763 5.21959 128.687 5.29528 128.611 5.37097V5.40882L128.555 5.46558L128.573 5.40882C128.536 5.46558 128.498 5.4845 128.46 5.52235C128.536 5.52235 128.555 5.61696 128.479 5.61696C128.441 5.61696 128.422 5.57912 128.422 5.56019L128.176 5.73049C128.138 5.78726 128.081 5.84403 128.025 5.88187C128.025 5.93864 127.93 5.9954 127.93 6.10894V6.14678L128.025 6.03325H128.044C128.025 6.09002 127.987 6.18463 127.93 6.20355H127.873L127.817 6.14678C127.817 6.10894 127.835 6.07109 127.835 6.03325C127.817 6.10894 127.779 6.18463 127.741 6.24139C127.76 6.27924 127.798 6.29816 127.835 6.29816L127.741 6.44954C127.646 6.52522 127.306 6.94151 127.23 7.0172L127.211 6.96043C127.381 6.71445 127.571 6.54415 127.741 6.35493C127.041 6.48738 127.116 7.43349 126.624 7.75517L126.719 7.73625L126.473 8.00116C126.397 7.94439 125.943 8.45529 125.83 8.60667V8.58774C125.868 8.43637 125.811 8.49313 125.924 8.45529C125.962 8.36068 126.019 8.36068 126.019 8.26607L125.962 8.28499C125.338 8.51206 125.603 9.13649 125.13 9.62847C124.903 9.83661 124.259 11.0287 124.07 11.0287C123.256 10.5935 122.367 9.83661 121.97 9.51493C121.799 9.38248 120.872 8.66343 120.342 8.7202V8.58774L120.248 8.62559L120.286 8.49313L120.172 8.43637V8.56882L120.115 8.58774C120.077 8.58774 119.85 8.45529 119.794 8.45529C119.85 8.36068 119.812 8.30391 119.756 8.26607C119.794 8.11469 119.831 8.00116 119.699 7.92547C119.472 7.88762 119.453 8.039 119.264 8.039C119.245 8.07684 119.245 8.09577 119.226 8.09577L118.847 8.2093C118.885 8.17146 118.904 8.13361 118.904 8.05792C118.791 7.94439 118.639 8.15253 118.753 8.24714C118.677 8.26607 118.583 8.28499 118.469 8.28499C118.242 8.30391 118.072 8.43637 117.958 8.58774C117.901 8.60667 117.882 8.64451 117.845 8.66343C117.826 8.60667 117.826 8.56882 117.769 8.5499C117.788 8.41744 117.882 8.36068 117.901 8.22822C117.75 8.24714 117.693 8.24715 117.523 8.2093C117.542 8.15253 117.504 8.11469 117.466 8.09577C117.447 8.28499 117.201 8.41744 117.031 8.26607C116.88 8.30391 116.747 8.36068 116.747 8.49313C116.747 8.75804 117.163 8.68236 117.239 8.49313C117.334 8.66343 117.58 8.83373 117.807 8.7202C117.826 8.7202 117.826 8.73912 117.845 8.75804L117.693 9.0608V9.00403C117.561 8.8905 117.39 9.00403 117.334 9.11757C117.39 9.2311 117.523 9.25002 117.636 9.21218C117.561 9.36355 117.504 9.45817 117.409 9.47709C117.258 9.47709 118.374 9.98799 118.223 9.98799C118.223 10.1015 117.353 9.47709 117.353 9.62847C117.39 10.0826 116.217 10.1961 116.652 11.6721L116.766 11.9748C116.917 12.0505 117.523 12.4668 117.523 12.6182C117.542 12.9209 116.463 12.0884 116.463 12.2965L117.504 12.9966L117.447 13.0155C117.542 12.9966 117.788 12.9966 117.863 13.1291C117.845 12.9966 117.901 12.9588 117.996 12.9588C117.939 13.0534 118.034 13.0534 118.053 13.1291C118.109 13.1291 118.204 13.1291 118.204 13.1101C119.302 13.6589 120.38 14.3401 121.402 15.0024C120.664 16.8 116.198 20.9061 116.709 21.7576C116.652 21.7765 116.615 21.8333 116.539 21.8144C116.52 21.89 116.482 21.9468 116.425 21.9847C116.369 22.155 116.482 22.2874 116.634 22.2685C116.634 22.3253 116.671 22.382 116.671 22.4577C116.539 22.4577 116.539 22.7037 116.69 22.628C116.709 22.4199 117.031 22.4577 117.144 22.2874C117.163 22.2496 117.163 22.1928 117.126 22.1739C117.163 22.1739 117.182 22.155 117.22 22.155C117.201 22.2306 117.258 22.2874 117.258 22.382C117.277 22.4009 117.296 22.4199 117.315 22.4199C117.296 22.4199 117.277 22.4199 117.239 22.4388C117.163 22.5902 117.315 22.7037 117.39 22.5712C117.39 22.5145 117.39 22.4766 117.353 22.4388C117.428 22.4766 117.485 22.4388 117.58 22.4388V22.4577C117.599 22.4577 117.618 22.4388 117.636 22.4388H117.674C117.712 22.4388 117.731 22.4766 117.769 22.4766C117.807 22.4766 117.845 22.4577 117.882 22.4577C117.882 22.5902 117.901 22.7983 118.034 22.7605C118.072 22.7226 118.091 22.6848 118.109 22.628C118.109 22.7037 118.166 22.6848 118.223 22.6659C118.242 22.628 118.242 22.5712 118.223 22.5145C118.166 22.5523 118.147 22.5712 118.109 22.5523V22.4577C118.053 22.4577 118.034 22.4388 117.996 22.4199C118.034 22.4009 118.072 22.3631 118.109 22.3253L118.128 22.4577C118.166 22.4388 118.28 22.4388 118.28 22.3442H118.223L118.204 22.3063L118.261 22.2496V22.1928L118.223 22.155C118.242 22.136 118.242 22.136 118.242 22.1171H118.261C118.28 22.0793 118.28 22.0603 118.261 22.0414C118.337 22.0414 118.355 22.0982 118.355 22.155C118.355 22.3063 118.318 22.4388 118.318 22.5523C118.374 22.5523 118.431 22.4956 118.469 22.4388C118.526 22.4766 118.62 22.4766 118.62 22.5334L118.564 22.628H118.62L118.677 22.5712C118.677 22.5712 118.753 22.4766 118.847 22.3253C118.866 22.382 118.885 22.4199 118.923 22.4199L118.866 22.5145H118.847C118.829 22.5145 118.829 22.5334 118.829 22.5523C118.753 22.6848 118.696 22.7794 118.696 22.7983L118.734 22.9308C118.734 22.9875 118.715 23.0254 118.715 23.0821C118.715 23.1011 118.81 23.1957 118.866 23.1768L118.961 23.1578V23.3092L118.942 23.2903C118.923 23.3281 118.942 23.366 118.961 23.366C118.98 23.3471 118.98 23.3281 118.98 23.3281C118.98 23.2903 118.999 23.1768 119.112 23.1768C119.131 23.1768 119.207 23.1578 119.207 23.2146L119.131 23.3281L119.207 23.3092C119.283 23.3092 119.321 23.2903 119.377 23.2903L119.358 23.2146V23.1578C119.453 23.1768 119.529 23.2146 119.585 23.2714L119.718 23.1957C119.794 23.12 119.794 23.0632 119.869 23.0065C119.964 22.9308 120.058 22.8172 120.134 22.7037H120.21V22.628C120.248 22.628 120.286 22.6091 120.323 22.5902C120.513 22.3442 120.702 22.155 120.967 22.0225C120.986 22.0036 120.986 21.9468 121.005 21.909C121.288 21.6441 121.478 21.3413 121.724 21.0385C121.78 20.9629 121.837 20.9061 121.932 20.8682C121.951 20.8493 121.951 20.7736 121.97 20.7547L122.216 20.5466C122.045 21.0385 121.137 21.9847 120.948 22.382C120.721 22.4199 120.267 23.1578 120.304 23.1768C120.645 23.366 120.986 22.5712 121.099 22.5523C121.175 22.4577 121.667 21.7576 121.818 21.6441C121.818 21.7765 121.648 21.9279 121.629 22.0603C121.478 22.136 121.194 22.6848 121.307 22.6848C121.326 22.7605 121.799 22.0036 121.799 22.0793C121.97 21.9468 121.761 22.5523 122.159 22.1739C122.197 22.136 122.235 22.0793 122.291 22.0414C122.272 22.0225 122.253 21.9847 122.272 21.9657C122.272 21.909 122.272 21.8522 122.367 21.8144C122.348 21.7576 122.424 21.7008 122.443 21.663C122.575 21.4738 122.802 21.3602 122.991 21.1899C123.029 21.1521 123.029 21.0953 123.086 21.0764C123.597 20.7169 123.673 20.2627 123.975 19.8275L123.956 19.8086L124.127 19.6005C124.127 19.6005 124.108 19.5815 124.108 19.5626C124.297 19.2977 124.638 19.1085 124.827 18.8625C124.959 18.6922 125.149 18.3516 125.376 18.1245L125.47 18.011L125.565 18.0867C125.565 18.0488 125.565 17.9921 125.622 17.9921C125.659 17.9921 125.678 18.0867 125.622 18.0867H125.603C125.943 18.3327 126.341 18.7111 126.454 18.8247H126.397L126.303 18.8057C126.322 18.976 126.511 19.1274 126.681 19.1085L126.776 19.0896L126.87 19.1653L126.795 19.2599L126.927 19.2031H126.946C127.098 19.1842 127.268 19.5437 127.495 19.5626V19.5248C127.495 19.5059 127.438 19.4491 127.419 19.4302H127.495C127.722 19.4112 127.93 19.6572 128.214 19.6383C128.233 19.8843 128.29 19.8843 128.573 19.9032L128.479 19.96C128.536 19.96 128.555 20.0168 128.555 20.0546C128.706 20.0735 128.725 20.1303 128.763 20.187C128.763 20.1681 128.782 20.1492 128.801 20.1492C128.819 20.1492 128.819 20.2438 128.801 20.2438C128.857 20.2817 128.933 20.2817 129.103 20.2438L129.065 20.3384L128.99 20.4141C128.99 20.4898 129.122 20.5466 129.122 20.5466C129.141 20.5466 129.217 20.5466 129.217 20.5277V20.6412C129.236 20.6412 129.368 20.5277 129.368 20.5277L129.387 20.5466V20.6223L129.368 20.6412L129.33 20.7169C129.293 20.7547 129.236 20.7926 129.179 20.7926H129.16L129.141 20.7736H129.122C129.122 20.7358 129.122 20.698 129.103 20.698C129.141 20.679 129.103 20.6223 129.065 20.6223ZM129.009 5.42774V5.4845C129.065 5.42774 129.16 5.33313 129.217 5.33313C129.255 5.33313 129.349 5.35205 129.406 5.35205C129.349 5.40882 129.255 5.42774 129.255 5.52235L129.274 5.57912C129.311 5.52235 129.501 5.35205 129.557 5.20067V5.3142C129.557 5.46558 129.501 5.46558 129.482 5.56019L129.747 5.23852V5.18175L129.69 5.1439L129.879 4.84115C129.898 4.86007 129.974 4.82223 130.049 4.74654C130.03 4.76546 130.03 4.76546 130.068 4.76546C130.087 4.76546 130.087 4.76546 130.087 4.72762L130.068 4.70869C130.333 4.42486 130.731 3.80043 130.731 3.70582C130.598 3.83827 130.466 4.23564 130.22 4.25456H130.201C130.22 4.19779 130.333 4.08426 130.352 3.95181C130.125 4.10318 129.614 4.55732 129.614 4.80331L129.633 4.86007L129.709 4.78438C129.69 5.04929 129.538 4.86007 129.482 5.06822C129.482 5.10606 129.463 5.25744 129.463 5.25744H129.406L129.387 5.16283C129.236 5.18175 129.009 5.27636 129.009 5.42774ZM130.901 20.5844C130.844 20.6223 130.844 20.698 130.939 20.7358L131.014 20.679L131.185 20.8304L131.771 21.3791C132.036 21.5873 132.358 21.8522 132.32 21.8522C132.282 21.8522 132.225 21.8333 132.169 21.7954L132.301 21.9847C132.32 21.9847 132.32 21.9657 132.358 21.9657C132.396 21.9657 132.396 22.0225 132.358 22.0225H132.339V22.0414C132.244 21.9468 132.15 21.8333 132.036 21.7387C131.733 21.5494 131.487 21.2278 131.469 21.171C131.279 21.0007 131.09 20.8493 130.882 20.7169C130.863 20.7736 130.958 20.7926 130.939 20.8304C130.768 20.7358 130.579 20.5277 130.447 20.4898C130.504 20.5466 130.617 20.6033 130.617 20.698C130.485 20.5844 130.371 20.452 130.276 20.2627C130.371 20.2817 130.428 20.3574 130.522 20.3952C130.428 20.2627 130.295 20.1681 130.182 20.0924C130.182 20.1492 130.239 20.2249 130.182 20.2627C130.163 20.2249 130.03 20.1681 130.03 20.0357C130.068 20.0924 130.106 20.1492 130.163 20.1114C130.068 20.0168 129.974 19.9032 129.86 19.8086C129.86 19.7708 129.86 19.7329 129.822 19.6951C130.22 19.9978 130.579 20.3195 130.901 20.5844ZM128.498 12.0694C128.365 12.0505 128.195 12.164 128.29 12.3154L128.006 12.6182C128.025 12.5425 128.044 12.4668 128.081 12.429L128.138 12.3343H128.176C128.195 12.3154 128.176 12.2776 128.176 12.2587C128.252 12.0884 128.29 11.8991 128.384 11.7099C128.498 11.8991 128.763 11.6153 128.536 11.4828L128.422 11.5207C128.422 11.5018 128.422 11.4828 128.441 11.4639C128.706 11.2369 129.009 11.1233 129.274 10.8773C129.255 10.9152 129.236 10.9341 129.236 10.953C129.311 10.9152 129.425 10.7638 129.463 10.7827C129.349 10.9719 129.217 11.1422 129.084 11.3315C129.084 11.2179 128.952 11.1422 128.857 11.2747C128.838 11.3504 128.914 11.445 129.009 11.4261L128.914 11.5396C128.876 11.5207 128.819 11.5396 128.744 11.5775C128.725 11.6342 128.744 11.691 128.763 11.7478C128.668 11.8424 128.592 11.9559 128.498 12.0694ZM126.303 17.3866C126.284 17.3487 126.246 17.292 126.246 17.2541L126.397 17.1784C126.454 17.1784 126.53 17.1973 126.587 17.2352C126.473 17.2541 126.378 17.273 126.378 17.3676C126.416 17.519 126.738 17.4244 126.606 17.2541C126.719 17.3109 126.814 17.4055 126.908 17.4812C126.984 17.5379 127.06 17.5947 127.135 17.6326C127.003 17.8218 127.249 18.1624 127.4 17.8975C127.419 17.8975 127.419 17.8596 127.419 17.8407L127.703 18.0488C127.646 18.1245 127.608 18.2191 127.608 18.3138L126.303 17.3866ZM116.047 22.7226H116.028C116.085 22.628 115.99 22.4577 115.877 22.6091C115.877 22.7037 115.896 22.7605 115.952 22.7605L115.82 22.8172C115.631 23.0254 115.725 23.3849 115.952 23.366C115.99 23.366 116.047 23.3092 116.104 23.3281C116.123 23.2146 116.217 23.1011 116.217 22.9686C116.217 22.7794 116.085 22.8362 116.047 22.7226ZM131.279 15.6836C131.204 15.1537 130.504 15.5133 130.731 15.8728C130.863 16.062 131.223 15.9485 131.279 15.6836ZM115.574 23.3471C115.555 23.2714 115.498 23.2524 115.479 23.2146C115.555 23.1011 115.479 22.9118 115.328 23.0443C115.328 23.1011 115.309 23.1389 115.328 23.1957C115.271 23.2335 115.252 23.3092 115.233 23.3849C115.158 23.4227 115.139 23.4795 115.101 23.5552C115.101 23.7823 115.195 23.8958 115.385 23.858C115.479 23.8012 115.441 23.6309 115.479 23.5174C115.517 23.4417 115.574 23.4227 115.574 23.3471ZM129.633 14.2266C129.766 13.9427 129.595 13.5643 129.217 13.621C129.103 13.867 129.236 14.3022 129.633 14.2266ZM134.118 24.7284C134.061 24.7473 134.023 24.7662 134.061 24.823C133.985 24.8041 133.947 24.7284 133.891 24.7095C133.891 24.6716 133.947 24.6905 133.947 24.6338C133.701 24.3499 133.399 24.2175 133.134 23.9526C133.096 23.9147 133.115 24.0283 133.039 23.9904C132.888 23.9147 132.812 23.6498 132.68 23.5174C132.604 23.5363 132.736 23.6498 132.642 23.6687C132.566 23.612 132.604 23.4984 132.604 23.4417V23.4227H132.698C132.869 23.5552 133.02 23.7066 133.172 23.839C133.531 24.1418 133.891 24.4824 134.212 24.823C134.156 24.8419 134.137 24.7851 134.118 24.7284ZM116.671 22.6848C116.615 22.6659 116.615 22.7415 116.558 22.7415C116.501 22.7605 116.501 22.7226 116.463 22.7415C116.425 22.7605 116.388 22.8172 116.35 22.8172C116.312 22.9118 116.331 23.0065 116.369 23.0632C116.406 23.0821 116.444 23.0821 116.501 23.0632C116.482 23.12 116.482 23.1768 116.501 23.2524H116.652C116.747 23.1768 116.69 22.9875 116.634 22.9686H116.615C116.615 22.9497 116.634 22.9308 116.634 22.9118C116.69 22.8929 116.709 22.8551 116.728 22.8172C116.728 22.7415 116.728 22.6848 116.671 22.6848ZM118.393 7.92547C118.355 7.84978 118.318 7.75517 118.242 7.71732C118.147 7.83086 117.901 7.83086 117.92 8.02008C117.958 8.22822 118.374 8.19038 118.393 7.92547ZM126.7 7.47133C126.757 7.47133 126.757 7.37672 126.7 7.37672C126.833 7.1875 126.965 6.96044 127.022 6.80906C126.776 7.1875 126.265 7.58487 126.246 7.90655V7.96331C126.284 7.92547 126.492 7.67948 126.681 7.39565C126.681 7.41457 126.681 7.47133 126.7 7.47133ZM130.901 9.93122C130.731 10.0826 130.579 10.234 130.504 10.3854C130.428 10.3475 130.352 10.3286 130.276 10.3664L130.731 9.76092C130.768 9.83661 130.825 9.9123 130.901 9.93122ZM119.018 22.2874C118.98 22.2496 118.942 22.2306 118.904 22.2496C119.264 21.7576 119.926 20.8304 119.945 20.8304C119.945 20.8872 119.377 21.7197 119.018 22.2874ZM129.274 13.3751C129.368 13.3183 129.425 13.2426 129.406 13.0912C129.349 13.0345 129.274 12.9777 129.122 12.9966C128.99 13.1101 129.065 13.4318 129.274 13.3751ZM132.982 4.87899L132.869 4.82223C132.869 4.78438 132.888 4.72762 132.888 4.68977C132.812 4.76546 132.717 4.70869 132.623 4.84115H132.68C132.698 4.84115 132.736 4.80331 132.755 4.78438C132.736 4.91684 132.623 4.97361 132.623 5.08714H132.68L132.793 5.16283H132.85C132.944 5.10606 132.982 5.01145 132.982 4.91684V4.87899ZM128.517 20.4141H128.498V20.3763C128.498 20.3952 128.517 20.3952 128.517 20.4141C128.498 20.3384 128.46 20.3006 128.422 20.2627H128.441C128.46 20.2627 128.479 20.2438 128.479 20.2249C128.498 20.2627 128.536 20.3006 128.573 20.3384C128.573 20.3763 128.592 20.4141 128.611 20.4141C128.63 20.4141 128.63 20.3952 128.649 20.3763C128.649 20.3952 128.668 20.3952 128.687 20.4141L128.649 20.3574C128.649 20.3195 128.63 20.2817 128.592 20.2817C128.536 20.1681 128.46 20.0735 128.365 20.0357L128.422 20.1492C128.403 20.1681 128.403 20.2249 128.422 20.2627C128.327 20.1681 128.214 20.1303 128.157 19.9789C128.157 19.96 128.176 19.96 128.214 19.96C128.176 19.9411 128.157 19.9221 128.157 19.9032C128.157 19.9221 128.157 19.96 128.119 19.96C128.063 19.9789 128.044 19.9032 127.987 19.8843C128.025 19.96 128.063 20.0168 128.1 20.0546C128.044 20.0546 128.044 20.1681 128.1 20.1681C128.119 20.1681 128.138 20.0924 128.119 20.0735L128.176 20.1303C128.157 20.1492 128.157 20.2249 128.195 20.2249C128.233 20.2249 128.252 20.1871 128.233 20.1681C128.252 20.1681 128.252 20.187 128.271 20.187C128.233 20.2249 128.252 20.2817 128.29 20.2817C128.309 20.2817 128.327 20.2627 128.327 20.2438L128.365 20.2817H128.346C128.309 20.2817 128.327 20.3763 128.365 20.3763C128.403 20.3574 128.403 20.3195 128.384 20.3006L128.46 20.3574C128.422 20.3574 128.422 20.433 128.46 20.433C128.479 20.433 128.479 20.433 128.498 20.4141C128.46 20.433 128.46 20.5087 128.517 20.5087C128.573 20.5087 128.573 20.4141 128.517 20.4141ZM128.517 18.6922C128.498 18.6922 128.479 18.6922 128.46 18.7111L128.517 18.6733C128.744 18.8247 128.952 18.995 129.179 19.1653C129.103 19.1463 128.99 19.1842 128.99 19.2977L128.952 19.2599C128.914 19.2031 128.933 19.1653 128.933 19.1274C128.857 19.0896 128.782 19.0328 128.706 18.976C128.725 18.976 128.725 18.9571 128.725 18.9571C128.687 18.8436 128.611 18.8436 128.555 18.9003C128.517 18.9003 128.498 18.8814 128.479 18.8814C128.536 18.8814 128.592 18.749 128.517 18.6922ZM131.658 9.53385C131.582 9.47709 131.639 9.38248 131.62 9.30679C131.487 9.26894 131.374 9.25002 131.279 9.4014C131.317 9.59062 131.544 9.5717 131.658 9.53385ZM133.758 18.73C133.682 18.6733 133.569 18.6165 133.436 18.7111C133.436 18.7679 133.399 18.8247 133.436 18.9193C133.55 18.995 133.796 18.8814 133.758 18.73ZM133.209 22.6091C133.153 22.6659 132.471 22.136 132.509 22.0982C132.585 22.0793 133.285 22.5902 133.209 22.6091ZM129.406 12.0127C129.179 12.3722 128.933 12.7317 128.592 13.0912C128.819 12.7317 129.084 12.3722 129.406 12.0127ZM130.617 4.17887V4.25456C130.75 4.21672 130.958 3.93288 130.958 3.81935C130.806 3.89504 130.598 4.00857 130.617 4.17887ZM133.02 3.80043L132.434 4.44378C132.585 4.38702 133.02 4.04642 133.02 3.81935V3.80043ZM130.276 15.5511C130.295 15.6079 130.333 15.6646 130.371 15.7025C130.314 15.7025 130.333 15.816 130.39 15.816C130.428 15.816 130.428 15.7214 130.39 15.7025C130.75 15.6268 130.371 15.2673 130.276 15.5511ZM117.012 22.8172C117.031 22.7605 117.012 22.628 116.955 22.6091C116.898 22.5902 116.842 22.6469 116.785 22.6848C116.766 22.7605 116.804 22.8551 116.823 22.9308C116.898 22.9308 116.993 22.874 117.012 22.8172ZM120.04 7.05505L120.191 7.13073C120.229 7.09289 120.304 7.07397 120.304 6.97936C120.267 6.92259 120.191 6.90367 120.153 6.88475C120.153 6.77121 120.058 6.79014 120.002 6.8469C119.983 6.96043 120.096 6.94151 120.04 7.05505ZM119.812 7.60379C119.737 7.54702 119.585 7.56595 119.548 7.64163C119.434 7.8687 119.907 7.88762 119.812 7.60379ZM117.901 23.2524C117.901 23.1768 117.845 23.2335 117.731 23.1768C117.674 23.1389 117.693 23.0065 117.58 23.1011C117.542 23.1768 117.599 23.2714 117.636 23.3092C117.693 23.2903 117.731 23.2524 117.75 23.3092C117.75 23.366 117.731 23.3849 117.769 23.4227C117.845 23.3849 117.92 23.3281 117.901 23.2524ZM118.791 22.7794C118.772 22.7794 118.81 22.7037 118.866 22.6091C118.885 22.5902 118.885 22.5902 118.885 22.5712C119.037 22.3631 119.283 22.0414 119.321 22.0414C119.377 22.0414 118.847 22.7605 118.791 22.7794ZM132.263 16.9514C132.225 16.9514 132.207 16.9514 132.188 16.9135C132.055 16.9514 131.979 17.0081 132.036 17.1406C132.112 17.2541 132.358 17.1217 132.263 16.9514ZM132.225 5.04929C132.207 5.04929 132.15 5.03037 132.15 4.97361C132.131 5.03037 132.074 5.12498 132.093 5.16283V5.20067H132.169L132.244 5.25744H132.32C132.377 5.25744 132.396 5.16283 132.377 5.10606L132.32 5.16283L132.358 4.99253C132.339 5.03037 132.282 5.04929 132.225 5.04929ZM129.217 19.3356C129.236 19.2977 129.255 19.2599 129.236 19.2409V19.222L129.803 19.6762H129.69C129.538 19.5437 129.368 19.4302 129.217 19.3356ZM132.131 21.4738C132.093 21.4738 131.336 20.7736 131.374 20.7736C131.431 20.7736 132.188 21.4548 132.131 21.4738ZM117.107 22.8362C117.088 22.9497 117.163 23.0632 117.201 23.1389C117.258 23.1389 117.277 23.1011 117.315 23.0632C117.296 22.9308 117.258 22.7226 117.107 22.8362ZM131.525 3.47875C131.715 3.30845 131.847 3.06246 131.961 2.85432H131.942L131.487 3.42198L131.525 3.47875ZM131.469 4.34917H131.525L131.563 4.42486L131.185 4.76546C131.185 4.67085 131.412 4.34917 131.469 4.34917ZM128.29 20.5277C128.214 20.452 128.1 20.3763 128.006 20.2817C127.949 20.2438 127.741 20.0168 127.817 20.1114C128.119 20.4898 128.517 20.7169 128.914 21.1332C128.744 20.8493 128.498 20.7169 128.29 20.5277ZM117.012 22.1739C116.917 22.136 116.842 22.1171 116.709 22.1739L116.861 22.0414C116.842 21.909 116.766 21.909 116.747 21.8144C116.785 21.8522 116.842 21.8711 116.898 21.89C116.955 21.89 116.917 22.0982 116.917 22.0982L116.993 22.155V21.9468C117.012 21.9468 117.012 21.9279 117.031 21.9279C117.031 21.89 117.031 21.8711 117.012 21.8522C117.012 21.8333 117.031 21.8144 117.05 21.8144C117.05 21.8144 117.069 21.8711 117.107 21.9279C117.088 21.9279 117.069 21.9279 117.05 21.9468C116.993 22.0225 117.012 22.0982 117.069 22.136C117.05 22.136 117.031 22.155 117.012 22.1739ZM127.93 19.9032L127.571 19.6194H127.514L127.59 19.714V19.7708L127.514 19.714C127.552 19.8654 127.817 19.8843 127.93 19.9411V19.9032ZM130.958 15.097C131.071 15.2105 131.241 15.0781 131.185 14.9267C131.071 14.8888 130.901 14.9645 130.958 15.097ZM116.652 23.4984C116.425 23.4984 116.482 23.8012 116.615 23.7444C116.728 23.7066 116.747 23.5552 116.652 23.4984ZM115.99 24.7662C116.047 24.7095 116.028 24.6148 116.009 24.5392C115.782 24.4635 115.782 24.9365 115.99 24.7662ZM118.545 23.0821C118.469 23.2714 118.62 23.366 118.753 23.2714C118.734 23.12 118.658 23.0632 118.545 23.0821ZM116.955 23.1011C116.898 23.1768 116.936 23.3092 116.993 23.3281C117.144 23.3092 117.144 23.1389 117.088 23.0632C117.031 23.1011 117.031 23.0821 116.955 23.1011ZM118.866 7.73625C118.791 7.73625 118.715 7.71732 118.658 7.67948C118.639 7.75517 118.62 7.84978 118.677 7.90655C118.81 7.92547 118.885 7.8687 118.866 7.73625ZM131.544 15.8728C131.431 15.9106 131.393 15.9674 131.412 16.062C131.544 16.1945 131.733 15.9296 131.544 15.8728ZM128.498 6.18463L128.233 6.60091C128.233 6.65768 128.233 6.73337 128.214 6.73337L128.157 6.60091C128.195 6.48738 128.365 6.26031 128.498 6.18463ZM118.999 7.77409C119.093 7.75517 119.169 7.6984 119.15 7.58487C119.056 7.47133 118.885 7.62271 118.961 7.75517C118.98 7.75517 118.999 7.75517 118.999 7.77409ZM134.837 25.8259C134.629 25.6556 134.42 25.4853 134.25 25.2582C134.458 25.4096 134.666 25.5988 134.837 25.8259ZM132.471 5.29528C132.547 5.33313 132.509 5.54127 132.642 5.54127L132.623 5.23852C132.547 5.23852 132.471 5.23852 132.471 5.29528ZM130.674 5.59804C130.674 5.69265 130.598 5.80618 130.522 5.80618H130.447L130.541 5.69265H130.428C130.447 5.59804 130.598 5.59804 130.674 5.59804ZM128.971 14.5672V14.4915C128.952 14.4915 128.555 14.1509 128.536 14.1509C128.536 14.1698 128.895 14.5482 128.895 14.5482L128.971 14.5672ZM132.698 17.1595C132.642 17.1406 132.547 17.1784 132.509 17.2163C132.528 17.4433 132.85 17.292 132.698 17.1595ZM127.533 7.33888C127.533 7.39565 127.552 7.49026 127.552 7.49026L127.495 7.54702C127.457 7.54702 127.173 7.88762 127.116 7.96331L127.533 7.33888ZM117.353 23.1768C117.334 23.2903 117.182 23.4984 117.39 23.4417C117.409 23.3471 117.485 23.2335 117.409 23.1578C117.39 23.1578 117.372 23.1768 117.353 23.1768ZM133.588 20.0735H133.607C133.701 20.0735 133.834 20.2249 133.872 20.2817C133.739 20.2817 133.626 20.1681 133.512 20.1492L133.588 20.0735ZM132.358 3.23276C132.434 3.21384 132.528 3.21384 132.585 3.06246H132.528L132.434 3.11923V3.06246C132.415 3.02462 132.415 2.98677 132.471 2.96785C132.339 3.0057 132.358 3.19492 132.263 3.23276H132.358ZM132.736 23.9904C132.944 23.8769 133.134 24.2175 133.323 24.3878C133.077 24.3689 132.982 23.9147 132.736 23.9904ZM133.02 19.5248L133.115 19.6194V19.5248C133.19 19.5059 133.266 19.5059 133.285 19.6005C133.266 19.6005 133.172 19.6383 133.115 19.6572H133.039C133.02 19.6572 132.963 19.6572 132.963 19.6194L133.02 19.5248ZM114.874 23.6877C114.874 23.7823 114.893 23.8012 114.931 23.839C115.158 23.7444 114.987 23.4606 114.874 23.6877ZM128.025 18.4651C127.987 18.4273 127.911 18.4462 127.854 18.4841L127.779 18.4273C127.854 18.3894 127.93 18.3327 128.006 18.2759L128.081 18.3327C128.025 18.3705 128.044 18.4273 128.025 18.4651ZM132.453 23.4227C132.415 23.4227 132.377 23.4227 132.339 23.4038C132.301 23.366 132.282 23.3281 132.263 23.2903C132.32 23.3281 132.377 23.3471 132.434 23.3471L132.415 23.2335H132.471L132.604 23.3471C132.547 23.366 132.49 23.3849 132.453 23.4227ZM133.38 17.9353C133.342 17.8785 133.228 17.8975 133.19 17.9732C133.19 18.0299 133.228 18.0488 133.247 18.0867C133.342 18.1056 133.418 18.0488 133.38 17.9353ZM132.358 18.7111C132.358 18.7868 132.339 18.8625 132.282 18.8625H132.225L132.263 18.8057C132.169 18.8057 132.112 18.7111 132.112 18.6544H132.207V18.7111H132.358ZM134.004 20.8304C133.891 20.8304 133.796 20.7926 133.739 20.698C133.739 20.679 133.796 20.679 133.853 20.679C133.947 20.6601 134.004 20.7358 134.004 20.8304ZM115.158 24.2932L115.233 24.2553C115.385 23.9336 114.968 24.1039 115.158 24.2932ZM128.327 6.01433C128.309 6.20355 128.233 6.35493 128.063 6.35493L128.327 6.01433ZM116.274 22.1739C116.236 22.1739 116.198 22.136 116.161 22.136C116.066 22.2117 116.161 22.3063 116.198 22.3631C116.274 22.3253 116.293 22.2685 116.274 22.1739ZM133.607 19.468C133.682 19.4491 133.72 19.4112 133.682 19.3166H133.664V19.2788H133.626L133.645 19.3166C133.588 19.2977 133.531 19.3356 133.531 19.3734L133.474 19.3923L133.569 19.4869L133.607 19.468ZM120.191 8.15253C120.248 8.19038 120.342 8.15253 120.38 8.11469C120.399 7.92547 120.153 8.00116 120.191 8.15253ZM132.585 18.995C132.585 19.0328 132.585 19.0328 132.623 19.0896C132.623 19.0896 132.528 19.1463 132.471 19.1463L132.377 19.1085C132.396 19.0139 132.509 18.995 132.585 18.995ZM132.869 16.4972C132.774 16.5161 132.717 16.554 132.717 16.6297C132.736 16.6297 132.755 16.6297 132.755 16.6675C132.869 16.6864 132.982 16.5729 132.869 16.4972ZM127.93 13.4697C127.987 13.5075 127.892 13.5832 127.798 13.6589C127.835 13.6967 127.873 13.7157 127.949 13.64C127.93 13.6967 127.873 13.7724 127.835 13.8292C127.798 13.7913 127.76 13.7535 127.741 13.7157L127.93 13.4697ZM118.469 22.9118C118.431 22.9686 118.393 23.0065 118.393 23.0821C118.431 23.1011 118.45 23.12 118.488 23.12L118.564 23.0443C118.545 22.9686 118.526 22.9118 118.469 22.9118ZM135.896 24.4824C135.991 24.5013 136.104 24.5392 136.086 24.6338L135.972 24.6905C135.972 24.5959 135.896 24.5202 135.84 24.4824H135.896ZM127.079 19.1463C126.946 19.1653 126.795 19.0139 126.776 18.9382L127.079 19.0896V19.1463ZM131.601 9.81769C131.544 9.77984 131.487 9.79877 131.45 9.77984C131.355 9.87445 131.544 10.0069 131.601 9.9123V9.81769ZM132.717 6.5063L132.774 6.48738C132.774 6.48738 132.793 6.35493 132.793 6.29816C132.717 6.336 132.585 6.5063 132.623 6.52522C132.623 6.54415 132.717 6.5063 132.717 6.5063ZM119.983 7.31996C119.926 7.26319 119.831 7.28211 119.794 7.3578C119.794 7.39565 119.831 7.41457 119.85 7.45241C119.926 7.45241 119.983 7.39565 119.983 7.31996ZM131.979 4.48163V4.55732L131.601 4.95468C131.696 4.80331 131.828 4.63301 131.979 4.48163ZM130.144 4.34917V4.36809C130.087 4.50055 130.068 4.57624 129.974 4.59516H129.917C129.974 4.53839 130.049 4.34917 130.144 4.34917ZM131.733 16.5729C131.696 16.5729 131.696 16.554 131.677 16.554C131.582 16.5729 131.563 16.6108 131.563 16.6864C131.601 16.6864 131.601 16.7243 131.62 16.7243C131.715 16.7054 131.752 16.6486 131.733 16.5729ZM135.196 20.4709C135.215 20.5277 135.196 20.6033 135.139 20.6223L135.215 20.7169V20.6223C135.31 20.6033 135.31 20.6601 135.367 20.6601C135.367 20.5844 135.291 20.5087 135.196 20.4709ZM117.92 23.4227C117.958 23.4984 117.882 23.4984 117.863 23.5174V23.612C117.958 23.593 117.939 23.5174 118.015 23.5363C118.072 23.4417 117.996 23.3471 117.92 23.4227ZM127.098 19.1842H127.173C127.249 19.1842 127.344 19.2788 127.362 19.3734C127.268 19.3923 127.173 19.2409 127.098 19.1842ZM116.198 23.8012C116.142 23.8769 116.179 24.0093 116.293 23.9526C116.35 23.8769 116.293 23.7444 116.198 23.8012ZM129.103 6.22247H129.141L128.895 6.54415V6.46846C128.895 6.39277 129.009 6.29816 129.103 6.22247ZM134.553 21.0196C134.61 21.0007 134.666 21.0385 134.704 21.0953L134.572 21.2088L134.553 21.1521L134.515 21.0196H134.553ZM133.285 19.8465C133.361 19.8465 133.436 19.9032 133.512 19.9032V19.9978C133.436 19.9978 133.285 19.9411 133.285 19.8465ZM131.979 21.8711C131.904 21.909 131.847 21.7765 131.866 21.7197C131.961 21.6819 132.074 21.8144 131.979 21.8711ZM126.132 18.4273H126.095L125.792 18.1813C125.849 18.2002 126.057 18.3138 126.114 18.3138C126.132 18.3327 126.114 18.4084 126.132 18.4273ZM129.576 19.8086C129.501 19.7708 129.406 19.714 129.387 19.6572C129.482 19.6383 129.538 19.6762 129.614 19.714C129.595 19.7518 129.576 19.7708 129.576 19.8086ZM130.787 4.63301C130.787 4.46271 130.882 4.53839 130.977 4.46271L130.995 4.48163L130.787 4.68977V4.63301ZM131.771 8.8905C131.62 9.00403 131.544 9.09864 131.544 9.19325C131.639 9.15541 131.715 8.98511 131.771 8.8905ZM115.782 24.0661C115.82 24.0093 115.82 23.8769 115.725 23.9147C115.65 23.9715 115.669 24.1229 115.782 24.0661ZM119.68 7.07397C119.718 7.05505 119.775 7.03612 119.756 6.96043C119.699 6.90367 119.585 6.96043 119.585 7.0172C119.623 7.03612 119.623 7.09289 119.68 7.07397ZM116.161 22.5145C116.179 22.4766 116.161 22.4009 116.161 22.3631C116.123 22.382 116.123 22.3442 116.066 22.382C116.028 22.4577 116.066 22.5523 116.161 22.5145ZM120.115 8.5499L120.096 8.43637L119.869 8.36068C119.869 8.3796 120.077 8.5499 120.115 8.5499ZM131.563 22.7415H131.677C131.715 22.8172 131.771 22.8929 131.847 22.9686C131.733 22.9118 131.639 22.8362 131.563 22.7415ZM135.026 21.171C135.064 21.171 135.064 21.0953 135.026 21.0764C135.064 21.0575 135.045 20.9818 135.007 20.9818C134.931 20.9818 134.931 21.0575 134.988 21.0764C134.931 21.0953 134.95 21.171 135.026 21.171ZM133.55 20.7547C133.607 20.7547 133.626 20.8304 133.569 20.8493C133.626 20.8682 133.626 20.9439 133.569 20.9439C133.512 20.9629 133.493 20.8682 133.55 20.8493C133.493 20.8682 133.493 20.7736 133.55 20.7547ZM133.531 4.15995C133.493 4.15995 133.38 4.19779 133.38 4.33025L133.436 4.31133C133.493 4.31133 133.531 4.23564 133.531 4.15995ZM132.717 23.8201C132.547 23.8201 132.453 23.7255 132.339 23.612C132.396 23.6498 132.604 23.7444 132.717 23.8201ZM127.287 6.48738C127.287 6.48738 127.362 6.43061 127.362 6.35493C127.344 6.37385 127.211 6.48738 127.211 6.5063C127.135 6.79014 127.192 6.65768 127.287 6.48738ZM130.787 3.76258L130.939 3.66797C130.882 3.66797 130.882 3.61121 130.882 3.55444H130.825L130.787 3.76258ZM115.744 22.4956C115.744 22.4199 115.725 22.382 115.669 22.4009C115.555 22.4577 115.669 22.628 115.744 22.4956ZM129.084 20.9439L129.103 21.0007C129.103 21.0953 129.16 21.1521 129.255 21.1899H129.274C129.255 21.1332 129.16 21.0575 129.16 21.0007L129.084 20.9439ZM116.558 24.4256C116.539 24.5013 116.596 24.5581 116.652 24.5392C116.652 24.5013 116.709 24.5013 116.69 24.4445C116.671 24.4067 116.634 24.3878 116.558 24.4256ZM130.92 8.75804C130.977 8.77697 130.939 8.81481 130.977 8.83373C131.052 8.81481 131.033 8.77697 131.071 8.7202C130.995 8.66343 130.958 8.66343 130.92 8.75804ZM126.643 17.4623C126.643 17.519 126.568 17.5379 126.606 17.5947C126.662 17.6136 126.7 17.5947 126.738 17.5569C126.719 17.4812 126.681 17.4623 126.643 17.4623ZM134.477 21.9279L134.458 21.8144H134.496C134.496 21.8144 134.666 21.89 134.723 21.89L134.477 21.9279ZM132.471 3.97073L132.547 3.72474L132.471 3.76258C132.471 3.76258 132.396 3.97073 132.471 3.97073ZM116.236 23.0254C116.142 23.1768 116.369 23.1957 116.331 23.0254C116.293 23.0254 116.274 23.0065 116.236 23.0254ZM117.409 24.3878C117.409 24.4067 117.39 24.4067 117.372 24.4256C117.372 24.4824 117.372 24.5013 117.409 24.5392C117.466 24.5392 117.466 24.5013 117.485 24.4635C117.485 24.4256 117.447 24.3878 117.409 24.3878ZM133.285 5.25744V5.20067C133.19 5.25744 133.153 5.3142 133.153 5.40882L133.172 5.44666L133.247 5.29528L133.285 5.25744ZM127.987 6.5063H128.044L127.817 6.75229C127.854 6.61984 127.949 6.52522 127.987 6.5063ZM133.664 4.00857C133.664 3.97073 133.645 3.93288 133.607 3.93288C133.569 3.93288 133.588 4.06534 133.626 4.06534C133.645 4.06534 133.645 4.08426 133.682 4.08426C133.739 4.08426 133.72 4.00857 133.664 4.00857ZM129.614 11.0476L129.368 11.2936L129.576 10.9909L129.614 11.0476ZM133.304 4.65193H133.247C133.153 4.65193 133.115 4.70869 133.134 4.74654C133.228 4.74654 133.266 4.74654 133.304 4.65193ZM131.525 4.17887C131.525 4.1978 131.374 4.34917 131.317 4.36809C131.26 4.36809 131.525 4.12211 131.525 4.17887ZM130.428 3.95181C130.447 3.93288 130.56 3.78151 130.56 3.72474C130.428 3.78151 130.428 3.87612 130.428 3.95181ZM129.501 21.3791H129.482C129.463 21.3413 129.463 21.3224 129.444 21.3224C129.425 21.3413 129.425 21.4359 129.444 21.417H129.463C129.444 21.4548 129.463 21.4738 129.501 21.4738C129.576 21.4738 129.576 21.3791 129.501 21.3791ZM134.439 21.2088L134.383 21.2656C134.345 21.2656 134.212 21.1899 134.212 21.1521L134.439 21.2088ZM130.731 3.45983L130.636 3.57336V3.63013C130.712 3.61121 130.731 3.55444 130.787 3.5166L130.731 3.45983ZM131.033 5.27636C130.977 5.27636 130.977 5.20067 131.014 5.18175C130.958 5.16283 130.958 5.08714 131.014 5.08714C131.052 5.06822 131.071 5.16283 131.033 5.18175C131.071 5.16283 131.071 5.25744 131.033 5.27636ZM133.153 3.38414C133.134 3.38414 133.115 3.40306 133.115 3.40306C133.134 3.38414 133.134 3.36522 133.134 3.32737C133.134 3.28953 133.001 3.44091 133.058 3.44091C133.077 3.44091 133.096 3.42198 133.115 3.40306C133.096 3.44091 133.115 3.47875 133.153 3.47875C133.19 3.47875 133.19 3.38414 133.153 3.38414ZM133.361 4.40594C133.304 4.42486 133.247 4.46271 133.209 4.50055V4.55732C133.247 4.55732 133.361 4.50055 133.361 4.40594ZM118.072 22.8362C118.015 22.8929 118.034 23.0065 118.128 22.9497C118.166 22.8929 118.128 22.8172 118.072 22.8362ZM135.253 23.5741C135.253 23.6498 135.121 23.6498 135.121 23.5741C135.121 23.5174 135.253 23.5174 135.253 23.5741ZM135.215 22.0414C135.272 22.0414 135.272 22.1739 135.215 22.1739C135.139 22.1739 135.139 22.0414 135.215 22.0414ZM128.876 5.93864C128.857 5.91972 128.857 5.84403 128.876 5.84403C128.933 5.84403 128.952 5.93864 128.895 5.93864H128.876C128.895 5.95756 128.895 6.05217 128.876 6.05217C128.801 6.05217 128.801 5.93864 128.876 5.93864ZM131.961 17.5569C131.998 17.5569 131.979 17.4623 131.942 17.4623C131.942 17.4433 131.923 17.4055 131.885 17.4055C131.847 17.4055 131.866 17.5001 131.904 17.5001C131.904 17.519 131.923 17.5569 131.961 17.5569ZM135.48 21.0575H135.499C135.499 21.0764 135.518 21.0953 135.537 21.0953C135.613 21.0764 135.613 20.9818 135.537 21.0007H135.518C135.518 20.9818 135.499 20.9629 135.48 20.9629C135.461 20.9629 135.461 21.0575 135.48 21.0575ZM120.04 7.20642C120.04 7.13073 119.983 7.13073 119.926 7.13073C119.926 7.14966 119.907 7.16858 119.888 7.20642C119.926 7.22535 120.002 7.22535 120.04 7.20642ZM132.093 18.2002C132.131 18.2002 132.131 18.2191 132.131 18.257C132.131 18.257 132.131 18.2381 132.15 18.2381C132.188 18.2381 132.188 18.3327 132.15 18.3327C132.112 18.3516 132.093 18.3138 132.112 18.2759H132.093C132.036 18.2759 132.036 18.2002 132.093 18.2002ZM132.926 18.9193V18.8625C132.907 18.8436 132.869 18.8247 132.85 18.8247H132.831C132.85 18.8625 132.85 18.976 132.85 19.0139L132.926 18.9193ZM128.819 6.31708C128.895 6.31708 128.895 6.44954 128.819 6.44954C128.763 6.44954 128.763 6.31708 128.819 6.31708ZM130.844 7.30103C130.844 7.20642 130.901 7.11181 131.014 7.11181L130.844 7.30103ZM129.747 4.27348C129.803 4.27348 129.784 4.14103 129.728 4.14103C129.671 4.14103 129.69 4.27348 129.747 4.27348ZM130.731 5.42774C130.806 5.42774 130.825 5.54127 130.75 5.54127C130.693 5.56019 130.674 5.44666 130.731 5.42774ZM126.454 18.7111C126.397 18.7111 126.378 18.5787 126.435 18.5787C126.492 18.5787 126.511 18.7111 126.454 18.7111ZM133.834 19.7708V19.6194L133.739 19.6762C133.739 19.7329 133.796 19.7708 133.834 19.7708ZM117.031 7.90655C117.05 7.81193 116.955 7.81193 116.917 7.84978V7.90655C116.974 7.90655 116.993 7.94439 117.031 7.90655ZM129.652 21.5684C129.595 21.5684 129.614 21.6819 129.671 21.6819C129.747 21.6819 129.728 21.5684 129.652 21.5684ZM120.021 7.84978C120.002 7.83086 119.907 7.83086 119.888 7.8687V7.92547C119.964 7.92547 120.021 7.90654 120.021 7.84978ZM127.873 7.07397C127.873 7.16858 127.779 7.22535 127.722 7.22535H127.684C127.722 7.16858 127.835 7.13073 127.873 7.07397ZM128.252 18.749C128.271 18.7679 128.29 18.7679 128.327 18.7679C128.365 18.7679 128.384 18.749 128.403 18.749C128.384 18.7679 128.384 18.8057 128.422 18.8436C128.441 18.8814 128.46 18.8814 128.479 18.8814H128.441L128.252 18.749ZM130.768 7.05505C130.806 7.05505 130.825 7.13073 130.787 7.14966C130.825 7.16858 130.825 7.24427 130.787 7.24427C130.768 7.26319 130.75 7.16858 130.768 7.14966C130.75 7.16858 130.75 7.07397 130.768 7.05505ZM133.815 3.89504C133.872 3.89504 133.872 3.76258 133.815 3.76258C133.758 3.78151 133.758 3.89504 133.815 3.89504ZM131.506 5.04929L131.469 5.1439C131.469 5.1439 131.355 5.08714 131.355 5.03037C131.374 5.03037 131.487 5.06822 131.506 5.04929ZM129.841 5.08714L129.993 4.89792H129.936C129.936 4.89792 129.841 4.99253 129.841 5.04929V5.08714ZM119.245 23.7066C119.169 23.7255 119.169 23.839 119.245 23.8201C119.302 23.8201 119.302 23.7066 119.245 23.7066ZM132.358 17.8029C132.377 17.765 132.358 17.6893 132.301 17.7082C132.301 17.7461 132.244 17.765 132.244 17.8029C132.301 17.7839 132.301 17.8407 132.358 17.8029ZM132.85 3.55444V3.64905L132.944 3.44091C132.85 3.44091 132.85 3.49767 132.85 3.55444ZM126.416 8.039C126.473 8.039 126.473 8.15253 126.416 8.15253C126.341 8.15253 126.341 8.039 126.416 8.039ZM131.62 2.60833C131.677 2.58941 131.677 2.45695 131.62 2.47587C131.563 2.47587 131.563 2.60833 131.62 2.60833ZM129.198 19.468C129.236 19.3923 129.16 19.4491 129.122 19.4302V19.3734C129.141 19.3734 129.16 19.3734 129.179 19.3545C129.217 19.3923 129.255 19.4302 129.274 19.4869C129.236 19.4302 129.217 19.468 129.198 19.468ZM129.917 9.76092C129.955 9.76092 129.974 9.72308 129.974 9.68523C129.955 9.64739 129.936 9.66631 129.898 9.64739C129.86 9.70415 129.86 9.742 129.917 9.76092ZM134.345 24.3689C134.269 24.2932 134.193 24.2553 134.118 24.1607L134.269 24.2364C134.307 24.2742 134.326 24.3121 134.345 24.3689ZM135.575 21.2278C135.707 21.2656 135.631 21.1332 135.556 21.1521C135.499 21.1521 135.518 21.2278 135.575 21.2278ZM131.696 18.2948C131.752 18.2948 131.752 18.4084 131.696 18.4273C131.639 18.4273 131.639 18.2948 131.696 18.2948ZM134.591 20.7358C134.647 20.7358 134.666 20.8493 134.61 20.8493C134.553 20.8682 134.534 20.7547 134.591 20.7358ZM117.296 8.22822C117.296 8.17146 117.296 8.11469 117.22 8.13361C117.22 8.17146 117.201 8.19038 117.201 8.2093C117.22 8.22822 117.239 8.24714 117.296 8.22822ZM132.188 17.4623L132.15 17.3866C132.093 17.3866 132.055 17.4055 132.074 17.4623C132.112 17.4812 132.131 17.4812 132.188 17.4623ZM135.045 21.663V21.7197L134.95 21.8144L134.893 21.7954L135.045 21.663ZM126.719 19.0896C126.681 19.0896 126.662 18.9571 126.7 18.9571C126.757 18.9571 126.776 19.0896 126.719 19.0896ZM132.244 22.0414C132.301 22.0414 132.301 22.1739 132.244 22.1739C132.207 22.1739 132.207 22.0414 132.244 22.0414ZM130.371 5.52235C130.428 5.50343 130.428 5.59804 130.371 5.61696C130.295 5.61696 130.295 5.52235 130.371 5.52235ZM133.096 2.36234C133.134 2.36234 133.115 2.22989 133.077 2.22989C133.02 2.24881 133.039 2.36234 133.096 2.36234ZM133.588 23.4795C133.512 23.4795 133.512 23.3849 133.588 23.3849C133.645 23.366 133.645 23.4606 133.588 23.4795ZM132.169 3.83827C132.244 3.83827 132.225 3.70582 132.15 3.70582C132.131 3.70582 132.15 3.83827 132.169 3.83827ZM133.966 20.1303C134.004 20.1303 134.023 20.2627 133.985 20.2627C133.928 20.2627 133.91 20.1303 133.966 20.1303ZM133.796 2.3245C133.834 2.3245 133.815 2.19204 133.777 2.19204C133.72 2.19204 133.739 2.3245 133.796 2.3245ZM132.793 4.36809H132.831C132.888 4.36809 132.944 4.21672 132.944 4.1978C132.831 4.21672 132.888 4.34917 132.793 4.36809ZM132.604 6.35493C132.68 6.35493 132.68 6.27924 132.623 6.26031H132.604C132.547 6.26031 132.547 6.35493 132.604 6.35493ZM129.122 14.7375C129.198 14.7375 129.198 14.6428 129.122 14.6428C129.065 14.6428 129.065 14.7375 129.122 14.7375ZM133.418 21.1142C133.493 21.1142 133.493 21.2088 133.418 21.2088C133.361 21.2088 133.361 21.1142 133.418 21.1142ZM133.834 21.4548C133.777 21.4548 133.777 21.3413 133.834 21.3413C133.891 21.3413 133.891 21.4548 133.834 21.4548ZM131.204 20.698C131.147 20.698 131.147 20.6033 131.204 20.6033C131.279 20.6033 131.279 20.698 131.204 20.698ZM132.528 4.89792C132.471 4.89792 132.471 4.99253 132.528 4.99253C132.604 4.99253 132.604 4.89792 132.528 4.89792ZM126.643 19.3545C126.587 19.3734 126.587 19.4869 126.643 19.468C126.7 19.468 126.7 19.3545 126.643 19.3545ZM128.176 6.99828C128.1 6.99828 128.081 6.90367 128.157 6.90367C128.214 6.90367 128.233 6.99828 128.176 6.99828ZM130.39 5.90079C130.447 5.90079 130.447 5.9954 130.39 5.9954C130.314 6.01433 130.314 5.91971 130.39 5.90079ZM132.055 3.28953C132.112 3.28953 132.112 3.19492 132.055 3.19492C131.979 3.21384 131.979 3.30845 132.055 3.28953ZM133.38 20.2438C133.323 20.2438 133.304 20.1492 133.361 20.1492C133.436 20.1492 133.455 20.2438 133.38 20.2438ZM133.455 1.94605C133.493 1.94605 133.493 1.8136 133.455 1.8136C133.399 1.8136 133.399 1.94605 133.455 1.94605ZM130.617 16.2323C130.56 16.2323 130.56 16.3648 130.617 16.3648C130.655 16.3648 130.655 16.2323 130.617 16.2323ZM131.79 18.7111C131.733 18.73 131.733 18.5976 131.79 18.5787C131.828 18.5787 131.828 18.7111 131.79 18.7111ZM127.098 6.54415H127.041C127.041 6.54415 126.965 6.65768 126.965 6.6766L127.022 6.65768C127.06 6.60091 127.098 6.56307 127.098 6.54415ZM133.209 3.80043C133.19 3.78151 133.172 3.74366 133.172 3.72474L133.115 3.78151V3.80043L133.209 3.87612V3.80043ZM135.026 23.4038C135.026 23.3471 135.121 23.366 135.121 23.4227C135.102 23.4795 135.007 23.4795 135.026 23.4038ZM130.674 11.7099C130.655 11.7667 130.731 11.8424 130.768 11.7856C130.787 11.7288 130.712 11.691 130.674 11.7099ZM132.017 4.00857C132.093 3.98965 132.093 3.8572 132.017 3.87612C131.998 3.87612 131.998 4.00857 132.017 4.00857ZM133.436 22.5902C133.361 22.5902 133.342 22.5334 133.418 22.5334C133.436 22.5334 133.436 22.5902 133.436 22.5902C133.493 22.5902 133.512 22.6848 133.455 22.6848C133.436 22.6848 133.436 22.5902 133.436 22.5902ZM131.696 17.1784C131.715 17.2541 131.752 17.2352 131.809 17.2163C131.809 17.1406 131.715 17.1406 131.696 17.1784ZM120.626 6.88475C120.607 6.86582 120.569 6.86582 120.532 6.88475V6.96043C120.588 6.96043 120.645 6.94151 120.626 6.88475ZM128.971 20.6412C128.952 20.6223 128.914 20.6033 128.895 20.6033C128.895 20.6412 128.914 20.6601 128.933 20.679C128.952 20.698 128.952 20.7169 128.99 20.7169C128.99 20.7169 129.009 20.7358 129.028 20.7358L128.99 20.679C128.99 20.6601 128.99 20.6412 128.971 20.6412ZM132.642 22.6469C132.642 22.6091 132.661 22.5712 132.68 22.5712C132.717 22.5712 132.736 22.6659 132.698 22.7037L132.642 22.6469ZM116.596 22.4577C116.558 22.4577 116.577 22.3631 116.52 22.382C116.444 22.4388 116.558 22.5334 116.596 22.4577ZM133.607 23.0254C133.531 23.0443 133.512 22.9308 133.588 22.9118C133.607 22.9118 133.626 23.0254 133.607 23.0254ZM126.624 18.6165C126.681 18.6165 126.7 18.7111 126.643 18.7111C126.587 18.73 126.568 18.6354 126.624 18.6165ZM131.204 5.52235C131.147 5.52235 131.128 5.40882 131.185 5.40882C131.223 5.40882 131.241 5.52235 131.204 5.52235ZM127.779 19.9411C127.741 19.9411 127.76 20.0546 127.798 20.0546C127.854 20.0546 127.835 19.9411 127.779 19.9411ZM132.755 6.09001H132.736L132.698 6.24139C132.755 6.18463 132.812 6.09001 132.812 6.07109C132.793 6.07109 132.774 6.09001 132.755 6.09001ZM133.399 5.10606C133.436 5.10606 133.418 4.99253 133.38 4.99253C133.323 4.99253 133.342 5.10606 133.399 5.10606ZM130.787 5.12498C130.806 5.12498 130.825 5.23852 130.806 5.23852C130.731 5.23852 130.712 5.12498 130.787 5.12498ZM130.409 5.1439C130.485 5.1439 130.504 5.25744 130.428 5.25744C130.409 5.25744 130.39 5.1439 130.409 5.1439ZM132.831 3.10031C132.888 3.10031 132.869 3.0057 132.812 3.0057C132.755 3.0057 132.774 3.10031 132.831 3.10031ZM132.68 19.0896C132.736 19.0896 132.755 19.1842 132.698 19.1842C132.642 19.1842 132.623 19.0896 132.68 19.0896ZM130.995 5.73049C130.939 5.73049 130.939 5.63588 130.995 5.63588C131.052 5.63588 131.052 5.73049 130.995 5.73049ZM132.036 7.24427C132.093 7.24427 132.074 7.14966 132.017 7.14966C131.961 7.14966 131.979 7.24427 132.036 7.24427ZM131.942 5.67373C131.885 5.67373 131.885 5.57912 131.942 5.57912C131.998 5.57912 131.998 5.67373 131.942 5.67373ZM131.923 5.12498C131.979 5.12498 131.979 5.21959 131.923 5.21959C131.866 5.21959 131.866 5.12498 131.923 5.12498ZM131.658 17.7272C131.715 17.7272 131.715 17.6326 131.658 17.6326C131.601 17.6326 131.601 17.7272 131.658 17.7272ZM131.128 5.16283C131.071 5.16283 131.052 5.06822 131.109 5.06822C131.166 5.06822 131.185 5.16283 131.128 5.16283ZM135.953 24.4445C135.953 24.3878 136.048 24.3878 136.048 24.4445C136.048 24.5013 135.953 24.5013 135.953 24.4445ZM127.93 7.0172C127.873 7.0172 127.854 6.92259 127.911 6.92259C127.968 6.92259 127.987 7.0172 127.93 7.0172ZM133.001 3.64905C133.058 3.64905 133.058 3.55444 133.001 3.55444C132.944 3.55444 132.944 3.64905 133.001 3.64905ZM127.533 6.99828C127.59 6.99828 127.59 7.09289 127.533 7.09289C127.476 7.09289 127.476 6.99828 127.533 6.99828ZM128.592 20.6601C128.649 20.6601 128.649 20.5655 128.592 20.5655C128.536 20.5655 128.536 20.6601 128.592 20.6601ZM132.547 19.3356C132.604 19.3356 132.604 19.4302 132.547 19.4302C132.49 19.4302 132.49 19.3356 132.547 19.3356ZM131.241 3.04354C131.298 3.04354 131.298 2.94893 131.241 2.94893C131.185 2.94893 131.185 3.04354 131.241 3.04354ZM132.698 19.4869C132.755 19.4869 132.774 19.5815 132.717 19.5815C132.661 19.5815 132.642 19.4869 132.698 19.4869ZM132.32 21.6251C132.263 21.6251 132.244 21.5305 132.301 21.5305C132.358 21.5305 132.377 21.6251 132.32 21.6251ZM133.872 4.76546C133.928 4.76546 133.91 4.67085 133.853 4.67085C133.796 4.67085 133.815 4.76546 133.872 4.76546ZM131.204 5.76834C131.147 5.76834 131.147 5.6548 131.204 5.6548C131.241 5.6548 131.241 5.76834 131.204 5.76834ZM131.847 5.73049C131.79 5.73049 131.79 5.61696 131.847 5.61696C131.885 5.61696 131.885 5.73049 131.847 5.73049ZM133.55 2.87324C133.607 2.87324 133.607 2.75971 133.55 2.75971C133.512 2.75971 133.512 2.87324 133.55 2.87324ZM130.806 3.42198C130.863 3.42198 130.863 3.30845 130.806 3.30845C130.768 3.30845 130.768 3.42198 130.806 3.42198ZM132.225 19.0517C132.282 19.0517 132.282 19.1653 132.225 19.1653C132.188 19.1653 132.188 19.0517 132.225 19.0517ZM134.439 21.417C134.383 21.417 134.383 21.3035 134.439 21.3035C134.477 21.3035 134.477 21.417 134.439 21.417ZM131.033 20.433C131.071 20.433 131.071 20.5466 131.033 20.5466C130.977 20.5466 130.977 20.433 131.033 20.433ZM134.061 21.8333C134.004 21.8333 134.004 21.7197 134.061 21.7197C134.099 21.7197 134.099 21.8333 134.061 21.8333ZM131.033 3.53552C131.09 3.53552 131.09 3.44091 131.033 3.44091C130.977 3.45983 130.977 3.55444 131.033 3.53552ZM131.128 8.00116C131.071 8.00116 131.071 7.90655 131.128 7.90655C131.185 7.88762 131.185 7.98223 131.128 8.00116ZM131.052 6.75229C130.995 6.75229 130.995 6.65768 131.052 6.65768C131.109 6.63876 131.109 6.73337 131.052 6.75229ZM131.771 5.12498C131.828 5.12498 131.828 5.21959 131.771 5.21959C131.715 5.23852 131.715 5.14391 131.771 5.12498ZM133.455 4.48163C133.512 4.48163 133.512 4.38702 133.455 4.38702C133.399 4.40594 133.399 4.50055 133.455 4.48163ZM132.055 17.6515C132.112 17.6326 132.112 17.5379 132.055 17.5569C131.998 17.5569 131.998 17.6515 132.055 17.6515ZM133.399 3.57336C133.455 3.55444 133.455 3.45983 133.399 3.47875C133.342 3.47875 133.342 3.57336 133.399 3.57336ZM129.993 16.0809C129.936 16.0999 129.936 16.0052 129.993 15.9863C130.049 15.9863 130.049 16.0809 129.993 16.0809ZM133.928 23.2146C133.872 23.2146 133.872 23.12 133.928 23.12C133.985 23.1011 133.985 23.1957 133.928 23.2146ZM132.415 15.9863C132.396 15.9674 132.396 15.9485 132.396 15.9296C132.339 15.9485 132.282 15.9485 132.32 16.0052C132.339 16.0242 132.396 16.0242 132.415 15.9863ZM133.38 23.1768C133.455 23.1768 133.455 23.2714 133.399 23.2903H133.38C133.361 23.2524 133.361 23.1768 133.38 23.1768ZM115.555 22.5902C115.517 22.6091 115.517 22.628 115.517 22.6659C115.517 22.6848 115.536 22.7037 115.574 22.6848C115.593 22.6659 115.593 22.628 115.593 22.5902C115.574 22.5902 115.555 22.6091 115.555 22.5902ZM130.958 16.8757C130.958 16.8946 130.958 16.8946 130.939 16.9135C130.939 16.8946 130.92 16.8946 130.901 16.8946V16.8567C130.863 16.8189 130.844 16.8 130.825 16.8L130.863 16.7621L130.958 16.8757ZM131.393 5.76834L131.45 5.69265H131.487L131.544 5.74942L131.393 5.76834ZM132.528 4.78438C132.604 4.78438 132.604 4.74654 132.604 4.68977C132.528 4.68977 132.509 4.72762 132.528 4.78438ZM135.139 20.5277C135.196 20.5277 135.177 20.452 135.121 20.452C135.045 20.452 135.064 20.5277 135.139 20.5277ZM135.291 20.698C135.215 20.7169 135.215 20.8304 135.291 20.8115C135.31 20.8115 135.31 20.698 135.291 20.698ZM130.541 3.44091C130.56 3.44091 130.56 3.32737 130.541 3.32737C130.466 3.32737 130.466 3.44091 130.541 3.44091ZM132.661 4.59516C132.736 4.59516 132.736 4.51947 132.661 4.51947C132.604 4.51947 132.604 4.59516 132.661 4.59516ZM117.939 23.6687C117.845 23.6877 117.92 23.8012 117.958 23.8012C117.977 23.7633 117.939 23.7255 117.939 23.6687ZM133.304 20.0168C133.361 20.0168 133.361 20.1492 133.304 20.1492C133.285 20.1492 133.285 20.0168 133.304 20.0168ZM130.485 5.01145C130.504 5.01145 130.504 5.10606 130.485 5.10606C130.409 5.10606 130.409 5.01145 130.485 5.01145ZM126.549 7.88762C126.568 7.88762 126.568 7.79301 126.549 7.79301C126.473 7.79301 126.473 7.88762 126.549 7.88762ZM128.555 5.86295C128.573 5.86295 128.573 5.76834 128.555 5.76834C128.479 5.76834 128.479 5.86295 128.555 5.86295ZM132.642 3.02462C132.661 3.02462 132.661 2.93001 132.642 2.93001C132.566 2.93001 132.566 3.02462 132.642 3.02462ZM120.721 8.51206C120.778 8.51206 120.834 8.51206 120.815 8.45529C120.796 8.43637 120.74 8.43637 120.721 8.45529V8.51206ZM135.083 21.3791L135.102 21.4738H135.026C135.026 21.417 135.026 21.3791 135.083 21.3791ZM133.19 3.47875C133.153 3.47875 133.153 3.57336 133.19 3.57336C133.247 3.57336 133.247 3.47875 133.19 3.47875ZM134.685 20.698C134.742 20.698 134.742 20.7926 134.685 20.7926C134.647 20.7926 134.647 20.698 134.685 20.698ZM134.042 19.0139C134.004 19.0139 134.004 19.1085 134.042 19.1085C134.099 19.1085 134.099 19.0139 134.042 19.0139ZM131.961 18.8247C131.923 18.8247 131.923 18.73 131.961 18.73C132.017 18.73 132.017 18.8247 131.961 18.8247ZM132.377 18.9571C132.339 18.9571 132.339 18.8625 132.377 18.8625C132.434 18.8625 132.434 18.9571 132.377 18.9571ZM131.166 7.03612C131.223 7.03612 131.223 7.13073 131.166 7.13073C131.128 7.13073 131.128 7.03612 131.166 7.03612ZM130.92 5.18175C130.977 5.18175 130.977 5.27636 130.92 5.27636C130.882 5.27636 130.882 5.18175 130.92 5.18175ZM131.128 3.59228C131.185 3.59228 131.185 3.49767 131.128 3.49767C131.09 3.49767 131.09 3.59228 131.128 3.59228ZM131.998 4.87899C131.961 4.87899 131.961 4.78438 131.998 4.78438C132.055 4.78438 132.055 4.87899 131.998 4.87899ZM132.15 17.7839C132.207 17.7839 132.207 17.6893 132.15 17.6893C132.112 17.6893 132.112 17.7839 132.15 17.7839ZM133.966 19.3166C133.928 19.3166 133.928 19.4112 133.966 19.4112C134.023 19.4112 134.023 19.3166 133.966 19.3166ZM132.85 4.57624C132.812 4.57624 132.812 4.67085 132.85 4.67085C132.907 4.67085 132.907 4.57624 132.85 4.57624ZM126.114 8.2093C126.17 8.2093 126.17 8.11469 126.114 8.11469C126.076 8.11469 126.076 8.2093 126.114 8.2093ZM128.441 6.56307L128.46 6.63876H128.384L128.365 6.56307H128.441ZM132.528 6.18463C132.547 6.18463 132.528 6.09001 132.509 6.09001C132.434 6.10894 132.453 6.20355 132.528 6.18463ZM126.549 18.8057C126.511 18.8057 126.511 18.7111 126.549 18.7111C126.606 18.7111 126.606 18.8057 126.549 18.8057ZM133.172 3.23276C133.228 3.23276 133.228 3.13815 133.172 3.13815C133.134 3.13815 133.134 3.23276 133.172 3.23276ZM134.477 21.2088C134.534 21.2088 134.534 21.3035 134.477 21.3035C134.439 21.3035 134.439 21.2088 134.477 21.2088ZM131.204 3.3463C131.26 3.3463 131.26 3.25169 131.204 3.25169C131.166 3.25169 131.166 3.3463 131.204 3.3463ZM132.869 5.01145C132.831 5.01145 132.831 4.91684 132.869 4.91684C132.926 4.91684 132.926 5.01145 132.869 5.01145ZM132.831 22.628C132.888 22.628 132.888 22.7226 132.831 22.7226C132.793 22.7226 132.793 22.628 132.831 22.628ZM132.888 5.21959C132.85 5.21959 132.85 5.3142 132.888 5.3142C132.944 5.3142 132.944 5.21959 132.888 5.21959ZM133.777 21.3413C133.739 21.3413 133.739 21.2467 133.777 21.2467C133.834 21.2467 133.834 21.3413 133.777 21.3413ZM129.728 4.89792C129.784 4.89792 129.784 4.99253 129.728 4.99253C129.69 4.99253 129.69 4.89792 129.728 4.89792ZM132.377 3.53552C132.396 3.5166 132.396 3.42199 132.377 3.44091C132.301 3.44091 132.301 3.53552 132.377 3.53552ZM134.515 22.155C134.477 22.155 134.477 22.0603 134.515 22.0603C134.572 22.0603 134.572 22.155 134.515 22.155ZM134.496 21.6062C134.553 21.6062 134.553 21.7008 134.496 21.7008C134.458 21.7008 134.458 21.6062 134.496 21.6062ZM134.458 21.0575C134.515 21.0575 134.515 21.1521 134.458 21.1521C134.42 21.1521 134.42 21.0575 134.458 21.0575ZM130.768 4.89792C130.75 4.89792 130.731 4.78438 130.75 4.78438C130.806 4.78438 130.825 4.89792 130.768 4.89792ZM134.496 19.8843C134.553 19.8654 134.534 19.7708 134.477 19.7897C134.439 19.7897 134.458 19.8843 134.496 19.8843ZM131.752 17.8029C131.809 17.8029 131.809 17.7082 131.752 17.7082C131.715 17.7272 131.715 17.8218 131.752 17.8029ZM127.287 6.336C127.344 6.31708 127.325 6.22247 127.268 6.24139C127.23 6.24139 127.249 6.336 127.287 6.336ZM133.077 3.32737C133.134 3.32737 133.134 3.23276 133.077 3.23276C133.039 3.25169 133.039 3.3463 133.077 3.32737ZM133.928 21.2278C133.985 21.2278 133.985 21.3224 133.928 21.3224C133.891 21.3413 133.891 21.2467 133.928 21.2278ZM133.247 23.1957C133.228 23.1957 133.228 23.1011 133.247 23.1011C133.323 23.0821 133.342 23.1768 133.247 23.1957ZM132.793 19.4869C132.755 19.4869 132.755 19.3923 132.793 19.3923C132.85 19.3734 132.85 19.468 132.793 19.4869ZM131.715 7.11181C131.771 7.11181 131.79 7.20642 131.733 7.20642C131.696 7.20642 131.677 7.13073 131.715 7.11181ZM132.055 18.6733C132.017 18.6733 132.017 18.5787 132.055 18.5787C132.112 18.5597 132.112 18.6544 132.055 18.6733ZM129.728 5.84403C129.766 5.84403 129.784 5.93864 129.747 5.93864C129.69 5.95756 129.671 5.86295 129.728 5.84403ZM117.334 21.7765H117.39C117.39 21.7765 117.409 21.7765 117.409 21.7576C117.372 21.7954 117.334 21.8333 117.315 21.8711C117.296 21.8711 117.277 21.8711 117.277 21.8522L117.334 21.7765ZM134.893 21.6441C134.95 21.6251 134.95 21.7197 134.893 21.7387C134.856 21.7387 134.856 21.6441 134.893 21.6441ZM133.115 3.72474C133.172 3.72474 133.153 3.63013 133.096 3.63013C133.058 3.64905 133.077 3.72474 133.115 3.72474ZM128.744 20.6601C128.782 20.6601 128.763 20.5655 128.725 20.5655C128.668 20.5844 128.687 20.679 128.744 20.6601ZM134.269 20.4141C134.326 20.4141 134.345 20.5087 134.288 20.5087C134.25 20.5087 134.231 20.4141 134.269 20.4141ZM131.223 3.49767C131.279 3.49767 131.26 3.40306 131.204 3.40306C131.166 3.40306 131.185 3.49767 131.223 3.49767ZM127.59 6.31708C127.646 6.31708 127.627 6.22247 127.571 6.22247C127.533 6.22247 127.552 6.31708 127.59 6.31708ZM131.961 4.10318C132.017 4.10318 131.998 4.00857 131.942 4.00857C131.904 4.00857 131.923 4.10318 131.961 4.10318ZM132.736 2.40019C132.793 2.40019 132.774 2.30557 132.717 2.30557C132.68 2.30557 132.698 2.40019 132.736 2.40019ZM133.682 21.8522C133.701 21.8522 133.72 21.9468 133.701 21.9468C133.626 21.9468 133.607 21.8522 133.682 21.8522ZM132.831 5.97648C132.831 5.95756 132.812 5.91972 132.812 5.91972C132.736 5.93864 132.736 6.01433 132.793 6.01433H132.812C132.831 6.01433 132.831 5.9954 132.831 5.97648ZM134.61 19.4302C134.572 19.4302 134.591 19.5248 134.629 19.5248C134.685 19.5248 134.666 19.4302 134.61 19.4302ZM133.55 23.3281C133.474 23.3281 133.455 23.2335 133.531 23.2335C133.55 23.2335 133.569 23.3281 133.55 23.3281ZM132.585 16.6297L132.547 16.5729C132.49 16.5918 132.49 16.6297 132.509 16.6675C132.547 16.6675 132.566 16.6486 132.585 16.6297ZM132.585 21.909C132.623 21.909 132.642 22.0036 132.604 22.0036C132.547 22.0036 132.528 21.9279 132.585 21.909ZM126.814 6.97936C126.833 6.97936 126.814 6.88475 126.795 6.88475C126.719 6.88475 126.738 6.97936 126.814 6.97936ZM132.32 18.6544C132.263 18.6544 132.263 18.5597 132.32 18.5597C132.358 18.5597 132.358 18.6544 132.32 18.6544ZM130.863 4.93576C130.901 4.93576 130.901 5.03037 130.863 5.03037C130.806 5.03037 130.806 4.93576 130.863 4.93576ZM131.979 5.37097C131.923 5.37097 131.923 5.27636 131.979 5.27636C132.017 5.27636 132.017 5.37097 131.979 5.37097ZM134.629 20.2249C134.572 20.2249 134.572 20.3195 134.629 20.3195C134.666 20.3195 134.666 20.2249 134.629 20.2249ZM131.923 4.33025C131.961 4.33025 131.961 4.42486 131.923 4.42486C131.866 4.42486 131.866 4.33025 131.923 4.33025ZM131.601 5.54127C131.639 5.54127 131.639 5.63588 131.601 5.63588C131.544 5.63588 131.544 5.54127 131.601 5.54127ZM132.755 19.2788C132.698 19.2788 132.698 19.1842 132.755 19.1842C132.793 19.1842 132.793 19.2788 132.755 19.2788ZM133.777 19.222C133.815 19.222 133.796 19.1274 133.758 19.1274C133.701 19.1274 133.72 19.222 133.777 19.222ZM117.599 12.9209C117.542 12.9209 117.542 12.8263 117.599 12.8263C117.636 12.8263 117.636 12.9209 117.599 12.9209ZM132.963 4.51947C132.907 4.51947 132.907 4.61408 132.963 4.61408C133.001 4.61408 133.001 4.51947 132.963 4.51947ZM127.381 6.22247C127.419 6.22247 127.419 6.12786 127.381 6.12786C127.325 6.12786 127.325 6.22247 127.381 6.22247ZM134.875 22.0414C134.912 22.0414 134.912 22.136 134.875 22.136C134.818 22.136 134.818 22.0414 134.875 22.0414ZM134.042 19.7518C134.08 19.7518 134.08 19.6572 134.042 19.6572C133.985 19.6572 133.985 19.7518 134.042 19.7518ZM130.39 22.136C130.333 22.136 130.333 22.2306 130.39 22.2306C130.428 22.2306 130.428 22.136 130.39 22.136ZM132.888 6.07109C132.831 6.07109 132.85 6.1657 132.907 6.1657C132.944 6.1657 132.926 6.07109 132.888 6.07109ZM132.869 5.67373C132.812 5.67373 132.812 5.76834 132.869 5.76834C132.907 5.76834 132.907 5.67373 132.869 5.67373ZM132.093 21.89C132.131 21.89 132.15 21.9847 132.112 21.9847C132.055 21.9847 132.036 21.89 132.093 21.89ZM133.285 3.176C133.323 3.176 133.323 3.08139 133.285 3.08139C133.228 3.08139 133.228 3.176 133.285 3.176ZM129.595 5.06822C129.633 5.06822 129.633 5.16283 129.595 5.16283C129.538 5.16283 129.538 5.06822 129.595 5.06822ZM134.156 21.8711C134.099 21.8711 134.099 21.7765 134.156 21.7765C134.193 21.7765 134.193 21.8711 134.156 21.8711ZM134.137 21.5305C134.08 21.5305 134.08 21.4359 134.137 21.4359C134.174 21.4359 134.174 21.5305 134.137 21.5305ZM134.326 21.909C134.269 21.909 134.25 21.8144 134.307 21.8144C134.345 21.8144 134.364 21.909 134.326 21.909ZM132.471 19.6005C132.509 19.5815 132.509 19.6762 132.471 19.6951C132.415 19.6951 132.415 19.6005 132.471 19.6005ZM131.733 17.9732C131.771 17.9542 131.771 18.0488 131.733 18.0678C131.677 18.0678 131.677 17.9732 131.733 17.9732ZM130.428 5.40882C130.504 5.40882 130.522 5.50343 130.447 5.50343C130.428 5.50343 130.409 5.40882 130.428 5.40882ZM132.509 21.5873C132.509 21.6251 132.509 21.663 132.49 21.663C132.434 21.663 132.415 21.5684 132.471 21.5684C132.49 21.5684 132.49 21.5873 132.509 21.5873ZM130.806 16.8946L130.712 16.8378C130.75 16.8378 130.768 16.8189 130.787 16.8L130.806 16.8378L130.863 16.8946H130.806ZM128.706 14.5672C128.782 14.5672 128.782 14.6618 128.706 14.6618C128.687 14.6618 128.687 14.5672 128.706 14.5672ZM132.225 4.91684C132.207 4.91684 132.207 5.01145 132.225 5.01145C132.301 5.01145 132.301 4.91684 132.225 4.91684ZM133.058 20.1114C133.039 20.1114 133.039 20.0168 133.058 20.0168C133.134 20.0168 133.134 20.1114 133.058 20.1114ZM134.969 22.0225C134.95 22.0225 134.95 21.9279 134.969 21.9279C135.045 21.9279 135.045 22.0225 134.969 22.0225ZM128.176 6.03325C128.176 6.09002 128.119 6.12786 128.044 6.18463C128.044 6.12786 128.119 6.09002 128.176 6.03325ZM128.857 20.7169C128.838 20.7169 128.838 20.8115 128.857 20.8115C128.933 20.8115 128.933 20.7169 128.857 20.7169ZM133.209 20.0924C133.19 20.0924 133.19 19.9978 133.209 19.9978C133.285 19.9978 133.285 20.0924 133.209 20.0924ZM127.703 7.41457C127.646 7.43349 127.646 7.33888 127.703 7.31996C127.741 7.31996 127.741 7.41457 127.703 7.41457ZM134.893 20.3195C134.969 20.3006 134.969 20.206 134.893 20.2249C134.875 20.2249 134.875 20.3195 134.893 20.3195ZM130.731 16.1566C130.693 16.1566 130.693 16.2323 130.731 16.2323C130.825 16.2323 130.787 16.1566 130.731 16.1566ZM132.434 5.80618C132.509 5.78726 132.509 5.88187 132.434 5.90079C132.415 5.90079 132.415 5.80618 132.434 5.80618ZM133.645 20.5277C133.626 20.452 133.72 20.452 133.739 20.5277C133.739 20.5466 133.645 20.5466 133.645 20.5277ZM134.742 20.6223C134.799 20.6223 134.799 20.5466 134.742 20.5466C134.685 20.5466 134.685 20.6223 134.742 20.6223ZM134.42 22.0793C134.364 22.0793 134.364 22.0036 134.42 22.0036C134.477 22.0036 134.477 22.0793 134.42 22.0793ZM132.604 3.57336C132.68 3.57336 132.68 3.57336 132.68 3.5166C132.68 3.45983 132.547 3.57336 132.604 3.57336ZM135.196 23.4984C135.196 23.5174 135.102 23.4984 135.102 23.4795C135.121 23.4227 135.215 23.4227 135.196 23.4984ZM127.116 6.71445C127.173 6.71445 127.173 6.63876 127.116 6.63876C127.06 6.63876 127.06 6.71445 127.116 6.71445ZM134.042 20.5277L134.118 20.433V20.5087L134.042 20.5844V20.5277ZM133.474 19.2977C133.474 19.2409 133.399 19.2409 133.399 19.2977C133.399 19.3545 133.474 19.3545 133.474 19.2977ZM133.323 2.13528C133.38 2.11635 133.38 2.04066 133.323 2.05959C133.266 2.05959 133.266 2.13528 133.323 2.13528ZM133.134 19.1274C133.153 19.1085 133.153 18.995 133.134 19.0139C133.077 19.0139 133.077 19.1274 133.134 19.1274ZM134.231 19.5815V19.6383L134.288 19.6951H134.345L134.231 19.5815ZM132.831 19.8843V19.9411H132.736C132.736 19.8843 132.793 19.8843 132.831 19.8843ZM130.504 16.3837L130.56 16.4594H130.617C130.617 16.4405 130.579 16.4026 130.56 16.3837H130.504ZM130.863 20.3195C130.806 20.3195 130.787 20.2249 130.844 20.2249C130.863 20.2249 130.882 20.3195 130.863 20.3195ZM133.266 21.4738C133.285 21.4738 133.304 21.5684 133.285 21.5684C133.228 21.5684 133.209 21.4738 133.266 21.4738ZM132.509 22.2685C132.547 22.2496 132.566 22.3253 132.528 22.3442C132.471 22.3442 132.453 22.2685 132.509 22.2685ZM135.045 20.7736C134.988 20.7736 135.007 20.8682 135.064 20.8682C135.083 20.8682 135.064 20.7736 135.045 20.7736ZM132.339 4.76546C132.282 4.76546 132.301 4.86007 132.358 4.86007C132.377 4.86007 132.358 4.76546 132.339 4.76546ZM132.263 3.08139C132.282 3.08139 132.263 2.98677 132.244 2.98677C132.188 2.98677 132.207 3.08139 132.263 3.08139ZM128.914 6.24139C128.895 6.24139 128.876 6.14678 128.895 6.14678C128.952 6.14678 128.971 6.24139 128.914 6.24139ZM131.961 3.36522C131.904 3.36522 131.923 3.45983 131.979 3.45983C131.998 3.45983 131.979 3.36522 131.961 3.36522ZM132.358 5.90079C132.415 5.90079 132.415 5.95756 132.358 5.95756C132.282 5.95756 132.282 5.90079 132.358 5.90079ZM132.169 4.14103C132.188 4.14103 132.188 4.23564 132.169 4.23564C132.112 4.23564 132.112 4.14103 132.169 4.14103ZM117.428 21.663C117.428 21.6441 117.447 21.6441 117.466 21.6251C117.485 21.6251 117.485 21.6441 117.504 21.6441L117.409 21.7576C117.428 21.7387 117.428 21.6819 117.428 21.663ZM126.7 18.8625C126.7 18.8057 126.757 18.8057 126.757 18.8625C126.757 18.9382 126.7 18.9382 126.7 18.8625ZM131.998 18.503C132.036 18.503 132.055 18.5787 132.017 18.5787C131.961 18.5787 131.942 18.503 131.998 18.503ZM133.001 19.3734C133.02 19.3734 133.02 19.468 133.001 19.468C132.944 19.468 132.944 19.3734 133.001 19.3734ZM117.712 24.1418C117.655 24.1418 117.674 24.2175 117.693 24.2364C117.75 24.2364 117.731 24.1418 117.712 24.1418ZM132.112 4.40594C132.169 4.40594 132.188 4.46271 132.131 4.46271C132.055 4.48163 132.036 4.42486 132.112 4.40594ZM133.777 23.0632C133.758 23.0632 133.758 22.9686 133.777 22.9686C133.834 22.9686 133.834 23.0632 133.777 23.0632ZM130.466 4.33025C130.522 4.33025 130.522 4.23564 130.466 4.23564C130.447 4.23564 130.447 4.33025 130.466 4.33025ZM132.85 6.31708C132.907 6.31708 132.907 6.22247 132.85 6.22247C132.831 6.22247 132.831 6.31708 132.85 6.31708ZM128.498 7.03612C128.479 7.03612 128.479 6.94151 128.498 6.94151C128.555 6.94151 128.555 7.03612 128.498 7.03612ZM132.774 4.97361C132.755 4.99253 132.755 4.89792 132.774 4.87899C132.831 4.87899 132.831 4.97361 132.774 4.97361ZM128.857 20.9439C128.838 20.9439 128.857 21.0196 128.876 21.0196C128.952 21.0196 128.933 20.9439 128.857 20.9439ZM115.347 23.8958C115.328 23.9147 115.347 23.9715 115.366 23.9904L115.404 23.9526C115.404 23.9147 115.385 23.8958 115.347 23.8958ZM134.193 23.2903C134.156 23.2903 134.137 23.2335 134.156 23.1957L134.231 23.2524C134.212 23.2714 134.212 23.2903 134.193 23.2903ZM134.023 22.1739V22.2117C134.004 22.2117 133.985 22.1928 133.966 22.1928V22.1739C133.966 22.0982 134.023 22.0982 134.023 22.1739ZM128.895 6.24139C128.914 6.24139 128.914 6.31708 128.895 6.31708C128.819 6.31708 128.819 6.24139 128.895 6.24139ZM128.725 6.09001C128.744 6.09001 128.744 6.1657 128.725 6.1657C128.649 6.18463 128.649 6.10894 128.725 6.09001ZM132.661 2.87324C132.717 2.85432 132.717 2.75971 132.661 2.77863C132.642 2.77863 132.642 2.87324 132.661 2.87324ZM135.215 21.0196L135.234 21.0764L135.31 21.0575L135.215 20.9818V21.0196ZM132.717 20.6601C132.68 20.6601 132.68 20.5844 132.717 20.5844C132.774 20.5844 132.774 20.6601 132.717 20.6601ZM130.825 6.99828C130.825 6.96043 130.901 6.96043 130.901 6.99828C130.901 7.05505 130.825 7.05505 130.825 6.99828ZM128.327 20.452C128.271 20.452 128.271 20.5277 128.327 20.5277C128.365 20.5277 128.365 20.452 128.327 20.452ZM116.425 24.3878V24.4635C116.444 24.4635 116.463 24.4445 116.482 24.4445V24.3689C116.463 24.3878 116.444 24.3878 116.425 24.3878ZM130.466 16.308C130.504 16.308 130.504 16.2323 130.466 16.2323C130.409 16.2323 130.409 16.308 130.466 16.308ZM134.269 20.187C134.269 20.2438 134.326 20.2438 134.326 20.187C134.307 20.1114 134.25 20.1114 134.269 20.187ZM129.236 14.8131C129.255 14.7942 129.255 14.7185 129.236 14.7375C129.16 14.7375 129.16 14.8131 129.236 14.8131ZM132.698 5.23852C132.642 5.23852 132.642 5.29528 132.698 5.29528C132.774 5.27636 132.774 5.21959 132.698 5.23852ZM131.109 4.91684L131.014 5.03037V4.99253C131.014 4.97361 131.033 4.95468 131.052 4.91684H131.109ZM133.455 20.3952C133.455 20.4141 133.38 20.4141 133.38 20.3952C133.38 20.3195 133.455 20.3195 133.455 20.3952ZM130.768 4.46271C130.787 4.46271 130.787 4.53839 130.768 4.53839C130.693 4.53839 130.693 4.48163 130.768 4.46271ZM115.555 23.9715V23.8769C115.479 23.8958 115.479 23.9904 115.555 23.9715ZM135.045 20.3006C135.026 20.3006 135.026 20.3763 135.045 20.3763C135.121 20.3763 135.121 20.3006 135.045 20.3006ZM126.662 18.7868C126.7 18.7868 126.7 18.8625 126.662 18.8625C126.606 18.8814 126.606 18.8057 126.662 18.7868ZM135.48 21.2088C135.461 21.1521 135.385 21.1521 135.404 21.2088C135.404 21.2467 135.48 21.2467 135.48 21.2088ZM133.512 21.1142L133.418 21.0196H133.493C133.493 21.0385 133.512 21.0575 133.512 21.0764V21.1142ZM128.933 20.8682L128.99 20.9439V20.8682L128.933 20.8115V20.8682ZM115.763 25.1447C115.782 25.1636 115.839 25.1257 115.839 25.0879C115.801 25.069 115.763 25.0879 115.763 25.1447ZM129.122 5.57912C129.122 5.63588 129.179 5.63588 129.179 5.57912C129.16 5.52235 129.103 5.52235 129.122 5.57912ZM131.45 2.77863C131.431 2.72186 131.374 2.72186 131.393 2.77863C131.393 2.8354 131.45 2.8354 131.45 2.77863ZM131.431 6.24139C131.487 6.24139 131.487 6.29816 131.431 6.29816C131.374 6.31708 131.374 6.26031 131.431 6.24139ZM132.926 3.25169L132.755 3.44091H132.793L132.926 3.25169ZM128.592 6.46846V6.41169C128.592 6.39277 128.649 6.336 128.668 6.31708V6.336L128.592 6.46846ZM127.041 7.0172C127.079 7.0172 127.06 6.96043 127.022 6.96043C126.965 6.97936 126.984 7.03612 127.041 7.0172ZM128.63 6.79014C128.63 6.86582 128.63 6.86582 128.611 6.86582C128.536 6.86582 128.63 6.73337 128.63 6.79014ZM133.607 20.3952C133.607 20.452 133.531 20.452 133.531 20.3952C133.531 20.3763 133.607 20.3763 133.607 20.3952ZM132.036 4.55732C132.055 4.55732 132.055 4.63301 132.036 4.63301C131.979 4.63301 131.979 4.55732 132.036 4.55732ZM133.323 22.4388C133.266 22.4388 133.266 22.382 133.304 22.3631L133.342 22.4009C133.342 22.4199 133.342 22.4388 133.323 22.4388ZM133.134 19.9221C133.134 19.8654 133.19 19.8465 133.19 19.9032C133.19 19.9411 133.134 19.96 133.134 19.9221ZM115.593 24.2932V24.3499C115.631 24.3499 115.65 24.3121 115.65 24.2742C115.631 24.2553 115.631 24.2742 115.593 24.2932ZM132.963 5.71157C133.02 5.71157 133.02 5.71157 133.02 5.67373C133.02 5.61696 132.907 5.71157 132.963 5.71157ZM132.793 2.64617C132.85 2.64617 132.85 2.64617 132.85 2.60833C132.85 2.55156 132.736 2.64617 132.793 2.64617ZM118.393 21.9468C118.431 21.9468 118.45 22.0036 118.412 22.0036C118.355 22.0036 118.337 21.9468 118.393 21.9468ZM133.55 22.5902C133.55 22.6091 133.569 22.628 133.588 22.6469V22.6848C133.531 22.6848 133.512 22.628 133.55 22.5902ZM135.234 21.3791L135.329 21.3602C135.329 21.3981 135.253 21.417 135.234 21.417V21.3791ZM130.276 22.0793C130.239 22.0793 130.239 22.136 130.276 22.136C130.333 22.136 130.333 22.0793 130.276 22.0793ZM131.771 3.61121C131.771 3.64905 131.828 3.64905 131.828 3.61121C131.828 3.55444 131.771 3.55444 131.771 3.61121ZM133.834 20.452C133.834 20.3952 133.872 20.3763 133.872 20.433C133.891 20.5087 133.853 20.5276 133.834 20.452ZM133.607 22.0414C133.588 22.0225 133.569 22.0036 133.55 22.0036C133.55 21.9847 133.55 21.9657 133.569 21.9657C133.607 21.9468 133.626 22.0036 133.607 22.0414ZM128.876 5.6548C128.933 5.6548 128.933 5.6548 128.933 5.59804C128.914 5.54127 128.857 5.6548 128.876 5.6548ZM133.815 19.4302C133.777 19.4302 133.777 19.4869 133.815 19.4869C133.872 19.468 133.872 19.4112 133.815 19.4302ZM132.131 19.0517C132.131 19.0139 132.188 19.0139 132.188 19.0517C132.188 19.1085 132.131 19.1085 132.131 19.0517ZM130.882 5.42774C130.882 5.4845 130.825 5.4845 130.825 5.42774C130.825 5.38989 130.882 5.38989 130.882 5.42774ZM132.509 17.6136C132.453 17.6136 132.453 17.6704 132.509 17.6704C132.547 17.6704 132.547 17.6136 132.509 17.6136ZM133.664 5.4845C133.701 5.4845 133.701 5.42774 133.664 5.42774C133.607 5.42774 133.607 5.4845 133.664 5.4845ZM131.847 18.3516L131.904 18.4084H131.847L131.79 18.3516H131.847ZM134.08 21.3224H133.985C133.985 21.2845 134.042 21.2845 134.08 21.2845V21.3224ZM135.272 21.9657C135.291 21.9468 135.291 22.0225 135.272 22.0414C135.215 22.0414 135.215 21.9657 135.272 21.9657ZM119.831 23.6498C119.794 23.6877 119.831 23.7255 119.85 23.7255C119.85 23.7066 119.869 23.6877 119.888 23.6687C119.85 23.6687 119.85 23.6309 119.831 23.6498ZM132.566 6.63876C132.566 6.65768 132.623 6.65768 132.623 6.63876C132.623 6.56307 132.566 6.56307 132.566 6.63876ZM134.307 19.96C134.307 20.0357 134.364 20.0357 134.364 19.96C134.364 19.9411 134.307 19.9411 134.307 19.96ZM133.418 2.81647C133.455 2.81647 133.455 2.75971 133.418 2.75971C133.361 2.77863 133.361 2.8354 133.418 2.81647ZM128.592 6.18463C128.573 6.18463 128.573 6.10894 128.592 6.10894C128.649 6.10894 128.649 6.18463 128.592 6.18463ZM128.233 6.80906C128.214 6.80906 128.214 6.75229 128.233 6.75229C128.309 6.75229 128.309 6.80906 128.233 6.80906ZM130.806 16.3458C130.806 16.2891 130.731 16.2891 130.731 16.3458C130.731 16.3648 130.806 16.3648 130.806 16.3458ZM133.342 20.5466C133.399 20.5466 133.399 20.6223 133.342 20.6223C133.323 20.6223 133.323 20.5466 133.342 20.5466ZM133.228 20.2438C133.247 20.2438 133.285 20.2817 133.304 20.3006H133.228L133.209 20.2438H133.228ZM133.342 4.17887C133.38 4.17887 133.38 4.17887 133.38 4.10318C133.38 4.08426 133.285 4.17887 133.342 4.17887ZM115.839 23.8201C115.782 23.8201 115.801 23.8769 115.82 23.8958C115.858 23.8958 115.858 23.839 115.839 23.8201ZM132.85 3.81935C132.85 3.80043 132.774 3.89504 132.793 3.89504C132.85 3.89504 132.85 3.89504 132.85 3.81935ZM133.039 3.15707C133.077 3.13815 133.077 3.08139 133.039 3.10031C132.982 3.10031 132.982 3.15707 133.039 3.15707ZM132.982 20.187L133.001 20.2627H132.926L132.982 20.187ZM133.682 2.41911C133.682 2.36234 133.645 2.36234 133.645 2.41911C133.645 2.4948 133.682 2.4948 133.682 2.41911ZM117.561 24.6148C117.58 24.6148 117.58 24.6148 117.58 24.6338C117.58 24.6338 117.599 24.6338 117.618 24.6148C117.636 24.5581 117.561 24.5392 117.561 24.6148ZM133.399 20.7736C133.474 20.7736 133.474 20.8115 133.399 20.8115C133.342 20.8115 133.342 20.7736 133.399 20.7736ZM129.33 21.0007C129.274 21.0007 129.274 21.0385 129.33 21.0385C129.406 21.0385 129.406 21.0007 129.33 21.0007ZM133.645 19.0896C133.645 19.0706 133.626 19.0517 133.607 19.0328H133.55L133.607 19.0896H133.645ZM134.137 20.8304C134.156 20.8872 134.156 20.8872 134.118 20.8872C134.061 20.8872 134.137 20.7736 134.137 20.8304ZM115.933 23.6687C115.952 23.7255 115.933 23.7066 115.933 23.7633C115.99 23.7444 115.99 23.6498 115.933 23.6687ZM119.661 23.366C119.623 23.3849 119.623 23.4038 119.623 23.4417C119.68 23.4417 119.68 23.3849 119.661 23.366ZM131.147 6.56307C131.128 6.48738 131.185 6.48738 131.204 6.56307C131.204 6.58199 131.147 6.58199 131.147 6.56307ZM126.606 18.976C126.606 18.9571 126.662 18.9382 126.662 18.9571C126.681 19.0139 126.624 19.0328 126.606 18.976ZM131.942 5.52235L131.923 5.42774H131.979L131.942 5.52235ZM134.212 21.0385H134.118L134.156 20.9818L134.212 21.0385ZM133.531 2.57049C133.588 2.57049 133.588 2.57049 133.588 2.51372C133.588 2.4948 133.493 2.57049 133.531 2.57049ZM131.298 4.86007L131.26 4.91684L131.204 4.86007H131.298ZM119.396 23.858H119.472V23.8201C119.415 23.8201 119.396 23.8201 119.396 23.858ZM135.518 20.8115L135.461 20.7547V20.8115L135.537 20.8493L135.518 20.8115ZM133.058 4.61408L133.001 4.72762L133.115 4.59516L133.058 4.61408ZM133.19 20.1492C133.19 20.1681 133.134 20.1871 133.134 20.1681C133.134 20.1114 133.19 20.0924 133.19 20.1492ZM129.614 11.8045C129.576 11.8424 129.538 11.8424 129.52 11.8424L129.557 11.7856C129.576 11.8045 129.595 11.8045 129.614 11.8045ZM130.03 4.97361C130.087 4.97361 130.087 4.97361 130.087 4.91684C130.087 4.87899 129.993 4.99253 130.03 4.97361ZM133.455 3.40306C133.493 3.40306 133.493 3.40306 133.493 3.36522C133.474 3.30845 133.399 3.42198 133.455 3.40306ZM128.403 7.09289L128.384 7.1875L128.327 7.20642L128.403 7.09289ZM131.487 3.72474C131.506 3.78151 131.544 3.78151 131.525 3.72474C131.525 3.66797 131.487 3.66797 131.487 3.72474ZM128.044 20.0357C128.025 19.9789 127.987 19.9978 128.006 20.0546C128.006 20.0924 128.044 20.0735 128.044 20.0357ZM129.86 4.68977C129.86 4.74654 129.86 4.74654 129.822 4.74654C129.766 4.74654 129.86 4.67085 129.86 4.68977ZM133.815 19.9789C133.815 19.9978 133.758 19.9978 133.758 19.9789C133.758 19.9221 133.815 19.9221 133.815 19.9789ZM127.495 6.37385C127.495 6.31708 127.438 6.31708 127.438 6.37385C127.438 6.39277 127.495 6.39277 127.495 6.37385ZM132.793 20.0357C132.793 20.0546 132.736 20.0546 132.736 20.0357C132.736 19.9789 132.793 19.9789 132.793 20.0357ZM131.393 3.87612C131.393 3.89504 131.45 3.89504 131.45 3.87612C131.45 3.81935 131.393 3.81935 131.393 3.87612ZM128.063 6.88475C128.063 6.90367 128.063 6.90367 128.006 6.90367C127.968 6.92259 128.063 6.80906 128.063 6.88475ZM115.99 22.4766C115.952 22.4766 115.933 22.4956 115.952 22.5334C116.009 22.5334 115.99 22.4956 115.99 22.4766ZM134.458 20.8682C134.515 20.8682 134.515 20.9061 134.458 20.9061C134.42 20.9061 134.42 20.8682 134.458 20.8682ZM132.982 22.7983C132.944 22.7983 132.944 22.7605 132.982 22.7605C133.039 22.7605 133.039 22.7983 132.982 22.7983ZM129.841 19.9411C129.841 19.9789 129.841 19.9978 129.898 20.0168C129.841 20.0357 129.822 19.9789 129.784 19.96C129.784 19.96 129.803 19.96 129.841 19.9411ZM131.563 21.8144C131.544 21.8144 131.525 21.7954 131.506 21.7765C131.525 21.7765 131.544 21.7576 131.563 21.7576C131.582 21.7576 131.582 21.8144 131.563 21.8144ZM134.307 21.663C134.307 21.6062 134.345 21.6062 134.345 21.663C134.345 21.7008 134.307 21.7008 134.307 21.663ZM131.26 4.46271C131.26 4.51947 131.204 4.51947 131.204 4.46271C131.185 4.44378 131.241 4.44378 131.26 4.46271ZM131.658 5.93864C131.658 5.9954 131.62 5.9954 131.62 5.93864C131.62 5.90079 131.658 5.90079 131.658 5.93864ZM133.039 22.8551C133.058 22.8551 133.058 22.9118 133.039 22.9118C132.982 22.9118 132.982 22.8551 133.039 22.8551ZM134.004 23.2903C133.985 23.2524 134.023 23.2524 134.042 23.2903C134.042 23.3471 134.004 23.3471 134.004 23.2903ZM130.049 16.0999V16.0809L130.087 16.0999V16.1755C130.068 16.1566 130.049 16.1188 130.049 16.0999ZM133.209 23.0065C133.228 23.0065 133.228 23.0632 133.209 23.0632C133.153 23.0632 133.153 23.0065 133.209 23.0065ZM133.247 19.2031H133.323L133.228 19.1463L133.247 19.2031ZM132.339 18.4841C132.339 18.503 132.339 18.5219 132.358 18.5408L132.263 18.503L132.339 18.4841ZM131.639 21.8522H131.715V21.909L131.639 21.8522ZM126.189 18.5219V18.4462L126.246 18.5219H126.189ZM131.279 6.336C131.298 6.336 131.317 6.31708 131.336 6.31708L131.279 6.41169V6.336ZM134.307 20.8682H134.364V20.9061H134.307V20.8682ZM134.818 22.0414C134.818 22.0603 134.818 22.0603 134.761 22.0603C134.723 22.0603 134.818 21.9847 134.818 22.0414ZM128.573 6.07109C128.592 6.07109 128.592 6.10894 128.573 6.10894C128.498 6.10894 128.498 6.07109 128.573 6.07109ZM134.099 20.6601C134.099 20.5844 134.137 20.5844 134.137 20.6601C134.137 20.679 134.099 20.679 134.099 20.6601ZM134.78 20.3195C134.78 20.3384 134.818 20.3384 134.818 20.3195C134.818 20.2438 134.78 20.2438 134.78 20.3195ZM118.45 22.0414H118.469C118.45 22.0603 118.431 22.0982 118.431 22.136C118.412 22.0982 118.412 22.0414 118.45 22.0414ZM133.512 22.8929H133.455V22.8362L133.512 22.8929ZM128.782 5.74942V5.69265L128.725 5.78726L128.782 5.74942ZM118.583 22.7226L118.639 22.7794V22.7226H118.583ZM127.703 6.77121L127.76 6.82798H127.703V6.77121ZM128.782 20.7169H128.838L128.782 20.6601V20.7169ZM131.866 4.10318L131.809 4.15995H131.866V4.10318ZM132.15 22.0414V21.9847L132.207 22.0225L132.15 22.0414ZM117.239 22.0603C117.22 22.0603 117.22 22.0036 117.239 22.0036H117.277L117.239 22.0603ZM130.995 4.06534C130.995 4.00857 130.958 4.00857 130.958 4.06534C130.958 4.08426 130.995 4.08426 130.995 4.06534ZM132.358 22.2685V22.1928L132.396 22.2685H132.358ZM126.549 18.9571L126.511 18.8814H126.549V18.9571ZM131.544 6.54415L131.487 6.46846L131.506 6.54415H131.544ZM133.039 19.8654C133.02 19.8086 133.039 19.8086 133.058 19.8654C133.058 19.9221 133.039 19.9221 133.039 19.8654ZM130.39 10.8206C130.352 10.8206 130.333 10.8016 130.333 10.7827C130.352 10.8016 130.39 10.8016 130.409 10.8016C130.409 10.8016 130.409 10.8206 130.39 10.8206ZM132.093 5.35205C132.093 5.40882 132.074 5.42774 132.074 5.37097C132.074 5.33313 132.093 5.3142 132.093 5.35205ZM133.172 19.7518C133.172 19.6951 133.19 19.6951 133.19 19.7518C133.19 19.7897 133.172 19.7897 133.172 19.7518ZM132.982 18.976C132.982 19.0139 133.001 19.0139 133.001 18.976C133.001 18.9193 132.982 18.9193 132.982 18.976ZM133.115 3.95181C133.172 3.95181 133.172 3.93288 133.115 3.93288C133.077 3.93288 133.077 3.95181 133.115 3.95181ZM131.355 7.62271V7.67948H131.317L131.355 7.62271ZM132.471 17.9732V18.011H132.528L132.471 17.9732ZM128.952 21.0575H129.009L128.952 21.0196V21.0575ZM118.431 22.5902V22.6469H118.469L118.431 22.5902ZM130.958 3.36522L130.92 3.42198H130.958V3.36522ZM134.25 21.5684L134.174 21.5305H134.231L134.25 21.5684ZM132.774 19.6383V19.5815L132.812 19.6383H132.774ZM131.317 5.25744V5.21959H131.374L131.317 5.25744ZM127.608 6.92259C127.665 6.90367 127.665 6.92259 127.608 6.94151C127.571 6.94151 127.571 6.92259 127.608 6.92259ZM132.755 2.75971V2.79755L132.812 2.75971H132.755ZM132.982 19.1653C133.001 19.222 133.02 19.222 133.001 19.1653C133.001 19.1274 132.982 19.1274 132.982 19.1653ZM114.722 22.628V22.5712H114.685L114.722 22.628ZM137.656 27.6992C137.675 27.7181 137.694 27.737 137.694 27.7559V27.6992H137.656ZM131.998 3.55444H131.979L131.923 3.64905L131.998 3.55444ZM128.63 19.0328C128.63 19.0328 128.649 19.0328 128.668 19.0139V19.0328C128.668 19.0706 128.649 19.0517 128.63 19.0328ZM134.818 21.0007H134.856L134.818 21.0385V21.0007ZM128.763 20.187C128.763 20.2249 128.782 20.2438 128.801 20.2438L128.763 20.187ZM129.86 5.29528C129.841 5.29528 129.822 5.3142 129.822 5.33313L129.879 5.29528H129.86ZM126.341 18.5787L126.284 18.5597H126.341V18.5787ZM130.806 8.58774V8.56882C130.787 8.56882 130.768 8.58774 130.75 8.58774H130.806ZM117.277 21.909C117.258 21.909 117.258 21.9279 117.239 21.9279C117.239 21.9279 117.239 21.909 117.258 21.89C117.258 21.89 117.258 21.909 117.277 21.909ZM132.131 3.28953L132.112 3.3463H132.131V3.28953ZM134.458 20.0924H134.401L134.458 20.1114V20.0924ZM133.777 22.1171C133.796 22.1171 133.796 22.1171 133.815 22.136C133.796 22.136 133.777 22.1171 133.758 22.1171H133.777ZM137.637 27.6613V27.6424H137.618L137.637 27.6613ZM131.904 22.0603L131.923 22.0793H131.904V22.0603ZM117.239 22.0793L117.22 22.0982V22.0793H117.239ZM132.358 4.99253C132.377 4.97361 132.377 4.95468 132.377 4.95468L132.358 4.99253ZM123.578 18.6733C123.578 18.6733 123.578 18.6544 123.597 18.6544L123.578 18.6733ZM131.733 21.9468L131.752 21.9657C131.733 21.9657 131.733 21.9468 131.733 21.9468ZM133.588 23.5741V23.593V23.5741ZM128.138 19.8654C128.138 19.8843 128.157 19.8843 128.157 19.9032C128.138 19.8843 128.138 19.8843 128.138 19.8654ZM132.907 4.67085C132.907 4.68977 132.907 4.68977 132.888 4.68977L132.907 4.67085Z" fill="#E6E6E6"/>
<path d="M0 23.2V10.0871H2.47466V12.4764C2.74014 11.6989 3.21422 11.0542 3.89688 10.5422C4.57955 10.0112 5.41392 9.74575 6.39999 9.74575C8.65658 9.74575 10.0598 10.6844 10.6098 12.5617C10.9132 11.7463 11.4441 11.0732 12.2026 10.5422C12.9612 10.0112 13.8335 9.74575 14.8195 9.74575C17.9674 9.74575 19.5413 11.4619 19.5413 14.8942V23.2H17.0666V15.3777C17.0666 13.0453 16.1185 11.8791 14.2222 11.8791C12.0794 11.8791 11.008 13.3772 11.008 16.3733V23.2H8.53332V15.5484C8.53332 13.1022 7.59465 11.8791 5.71732 11.8791C4.69333 11.8791 3.89688 12.2583 3.32799 13.0169C2.75911 13.7564 2.47466 14.8752 2.47466 16.3733V23.2H0Z" fill="#7AEAD7"/>
<path d="M28.5306 23.5413C26.5016 23.5413 24.9087 22.8965 23.752 21.6071C22.6142 20.3176 22.0453 18.6678 22.0453 16.6577C22.0453 14.6666 22.6331 13.0169 23.8088 11.7084C25.0035 10.4 26.5964 9.74575 28.5875 9.74575C29.6115 9.74575 30.5312 9.98279 31.3466 10.4569C32.162 10.9309 32.7783 11.5757 33.1955 12.3911V10.0871H35.6417V23.2H33.1955V20.896C32.7783 21.6924 32.1431 22.3371 31.2897 22.8302C30.4364 23.3042 29.5167 23.5413 28.5306 23.5413ZM28.8719 21.3226C30.2562 21.3226 31.3371 20.877 32.1146 19.9857C32.911 19.0755 33.3093 17.9662 33.3093 16.6577C33.3093 15.3303 32.911 14.221 32.1146 13.3297C31.3371 12.4195 30.2562 11.9644 28.8719 11.9644C27.5445 11.9644 26.4826 12.41 25.6862 13.3013C24.8897 14.1736 24.4915 15.2924 24.4915 16.6577C24.4915 18.0231 24.8897 19.1419 25.6862 20.0142C26.4826 20.8865 27.5445 21.3226 28.8719 21.3226Z" fill="#7AEAD7"/>
<path d="M39.3344 23.2V10.0871H41.809V12.5049C42.1693 11.6515 42.7382 10.9783 43.5157 10.4853C44.3121 9.99227 45.2698 9.74575 46.3886 9.74575C49.6502 9.74575 51.281 11.5377 51.281 15.1217V23.2H48.8064V16.2026C48.8064 14.7235 48.5409 13.6332 48.0099 12.9315C47.4979 12.2299 46.6635 11.8791 45.5068 11.8791C44.3121 11.8791 43.3924 12.2678 42.7477 13.0453C42.1219 13.8228 41.809 14.8942 41.809 16.2595V23.2H39.3344Z" fill="#7AEAD7"/>
<path d="M92.8118 21.1235C93.4945 21.1235 94.0444 21.0761 94.4616 20.9813V23.1715C93.8927 23.3042 93.1626 23.3706 92.2714 23.3706C91.8732 23.3706 91.5223 23.3517 91.2189 23.3137C90.9345 23.2758 90.5932 23.1715 90.1949 23.0008C89.7967 22.8302 89.4649 22.5931 89.1994 22.2897C88.9339 21.9674 88.7064 21.5217 88.5167 20.9528C88.3271 20.365 88.2323 19.6634 88.2323 18.848V12.1635H85.8714V10.0871H88.2323V5.9342H90.7069V10.0871H94.0065V12.1635H90.7069V18.3075C90.7069 19.4643 90.8776 20.2228 91.2189 20.5831C91.5603 20.9434 92.0912 21.1235 92.8118 21.1235Z" fill="#7AEAD7"/>
<path d="M102.158 23.5413C100.129 23.5413 98.5363 22.8965 97.3796 21.6071C96.2418 20.3176 95.6729 18.6678 95.6729 16.6577C95.6729 14.6666 96.2608 13.0169 97.4365 11.7084C98.6311 10.4 100.224 9.74575 102.215 9.74575C103.239 9.74575 104.159 9.98279 104.974 10.4569C105.79 10.9309 106.406 11.5757 106.823 12.3911V10.0871H109.269V23.2H106.823V20.896C106.406 21.6924 105.771 22.3371 104.917 22.8302C104.064 23.3042 103.144 23.5413 102.158 23.5413ZM102.5 21.3226C103.884 21.3226 104.965 20.877 105.742 19.9857C106.539 19.0755 106.937 17.9662 106.937 16.6577C106.937 15.3303 106.539 14.221 105.742 13.3297C104.965 12.4195 103.884 11.9644 102.5 11.9644C101.172 11.9644 100.11 12.41 99.3138 13.3013C98.5174 14.1736 98.1192 15.2924 98.1192 16.6577C98.1192 18.0231 98.5174 19.1419 99.3138 20.0142C100.11 20.8865 101.172 21.3226 102.5 21.3226Z" fill="#7AEAD7"/>
<path d="M64.9466 10.0872H67.3928V22.8587C67.3928 25.3618 66.6343 27.2012 65.1173 28.3769C64.0174 29.1923 62.5098 29.6 60.5946 29.6C58.6793 29.6 57.1339 29.1734 55.9582 28.32C54.7066 27.4478 54.0524 26.291 53.9955 24.8498H56.5839C56.6977 25.6463 57.0865 26.291 57.7502 26.784C58.4328 27.2771 59.381 27.5236 60.5946 27.5236C63.4959 27.5236 64.9466 26.0255 64.9466 23.0294V20.8961C64.5484 21.7115 63.9131 22.3562 63.0408 22.8303C62.1685 23.3043 61.2488 23.5414 60.2817 23.5414C58.3096 23.5414 56.7356 22.8872 55.5599 21.5787C54.3842 20.2703 53.7964 18.63 53.7964 16.6578C53.7964 14.6857 54.4032 13.0454 55.6168 11.737C56.8494 10.4096 58.4233 9.74585 60.3386 9.74585C61.3436 9.74585 62.2538 9.98289 63.0693 10.457C63.9036 10.931 64.5294 11.5758 64.9466 12.3912V10.0872ZM60.623 21.3227C61.9694 21.3227 63.0408 20.8771 63.8373 19.9858C64.6527 19.0946 65.0604 17.9852 65.0604 16.6578C65.0604 15.3304 64.6527 14.2211 63.8373 13.3298C63.0408 12.4196 61.9694 11.9645 60.623 11.9645C59.3336 11.9645 58.2811 12.4101 57.4657 13.3014C56.6503 14.1737 56.2426 15.2925 56.2426 16.6578C56.2426 18.0042 56.6503 19.123 57.4657 20.0143C58.2811 20.8866 59.3336 21.3227 60.623 21.3227Z" fill="#7AEAD7"/>
<path d="M76.1743 23.4843C74.1453 23.4843 72.5524 22.8395 71.3956 21.55C70.2579 20.2606 69.689 18.6108 69.689 16.6007C69.689 14.6096 70.2768 12.9598 71.4525 11.6514C72.6472 10.3429 74.2401 9.68872 76.2312 9.68872C77.2552 9.68872 78.1749 9.92576 78.9903 10.3998C79.8057 10.8739 80.422 11.5186 80.8392 12.3341V10.0301H83.2854V23.1429H80.8392V20.8389C80.422 21.6354 79.7867 22.2801 78.9334 22.7731C78.0801 23.2472 77.1604 23.4843 76.1743 23.4843ZM76.5156 21.2656C77.8999 21.2656 78.9808 20.82 79.7583 19.9287C80.5547 19.0185 80.9529 17.9092 80.9529 16.6007C80.9529 15.2733 80.5547 14.164 79.7583 13.2727C78.9808 12.3625 77.8999 11.9074 76.5156 11.9074C75.1882 11.9074 74.1263 12.353 73.3298 13.2443C72.5334 14.1166 72.1352 15.2354 72.1352 16.6007C72.1352 17.966 72.5334 19.0849 73.3298 19.9571C74.1263 20.8294 75.1882 21.2656 76.5156 21.2656Z" fill="#7AEAD7"/>
</svg>
